<svg width="465" height="378" viewBox="0 0 465 378" fill="none" xmlns="http://www.w3.org/2000/svg">
<g clip-path="url(#clip0_430_3)">
<path d="M239.981 198.688H222.744V372.131H239.981V198.688Z" fill="#020B8B"/>
<path d="M239.982 198.755H222.678V204.752H239.982V198.755Z" fill="#00065A"/>
<path d="M332.269 58.4371V141.08L273.825 199.517H191.173L132.732 141.08V58.4371L191.173 0H273.825L332.269 58.4371Z" fill="#071088"/>
<path d="M332.27 58.4372V141.08L273.826 199.517H191.174L152.07 160.418C299.036 182.074 300.563 26.7344 300.563 26.7344L332.273 58.4402L332.27 58.4372Z" fill="#00065A"/>
<path d="M332.27 99.7585C332.27 99.7585 304.173 204.072 191.174 199.517H273.826L332.27 141.08V99.7585Z" fill="#2B3871"/>
<path d="M322.572 62.4535V137.063L269.811 189.822H195.189L142.428 137.063V62.4535L195.189 9.69507H269.811L322.572 62.4535Z" stroke="white" stroke-width="12" stroke-miterlimit="10"/>
<path d="M239.982 198.688H233.062V372.131H239.982V198.688Z" fill="#00065A"/>
<path d="M359.501 371.596H102.651C100.907 371.596 99.4941 373.009 99.4941 374.752V374.844C99.4941 376.587 100.907 378 102.651 378H359.501C361.245 378 362.658 376.587 362.658 374.844V374.752C362.658 373.009 361.245 371.596 359.501 371.596Z" fill="#071088"/>
<path d="M107.519 371.596H65.9261C64.1828 371.596 62.7695 373.009 62.7695 374.752V374.844C62.7695 376.587 64.1828 378 65.9261 378H107.519C109.262 378 110.675 376.587 110.675 374.844V374.752C110.675 373.009 109.262 371.596 107.519 371.596Z" fill="#00065A"/>
<path d="M46.8555 371.596H3.15656C1.41324 371.596 0 373.009 0 374.752V374.844C0 376.587 1.41324 378 3.15656 378H46.8555C48.5988 378 50.012 376.587 50.012 374.844V374.752C50.012 373.009 48.5988 371.596 46.8555 371.596Z" fill="#071088"/>
<path d="M414.951 371.596H379.08C377.337 371.596 375.924 373.009 375.924 374.752V374.844C375.924 376.587 377.337 378 379.08 378H414.951C416.694 378 418.107 376.587 418.107 374.844V374.752C418.107 373.009 416.694 371.596 414.951 371.596Z" fill="#071088"/>
<path d="M461.843 371.596H434.561C432.818 371.596 431.404 373.009 431.404 374.752V374.844C431.404 376.587 432.818 378 434.561 378H461.843C463.586 378 465 376.587 465 374.844V374.752C465 373.009 463.586 371.596 461.843 371.596Z" fill="#071088"/>
<path d="M197.406 359.424H106.732L108.383 353.454L111.604 341.791L113.557 334.732L116.432 324.32L121.976 304.253L124.854 293.842L145.077 220.655H159.065L166.474 247.478L179.284 293.842L182.162 304.253L187.707 324.32L190.585 334.732L195.756 353.454L197.406 359.424Z" fill="#E44D0B"/>
<path d="M197.406 359.424H106.732L108.383 353.451L111.604 341.791C174.787 338.059 166.474 247.478 166.474 247.478L195.756 353.454L197.406 359.427V359.424Z" fill="#D24508"/>
<path d="M215.96 359.424H88.1816V371.571H215.96V359.424Z" fill="#E44D0B"/>
<path d="M197.406 359.424H106.732L108.383 353.454H195.756L197.406 359.424Z" fill="#A63503"/>
<path d="M182.162 304.253C182.162 304.253 180.264 344.322 134.223 353.488L195.759 353.454L182.165 304.253H182.162Z" fill="#C13D03"/>
<path d="M182.162 304.253H121.977L124.855 293.842H179.284L182.162 304.253Z" fill="white"/>
<path d="M190.585 334.732H113.557L116.432 324.32H187.707L190.585 334.732Z" fill="white"/>
<path d="M186.403 359.424C186.403 359.424 169.466 372.208 106.732 371.571H215.957V359.424H186.403Z" fill="#B53A05"/>
</g>
<path d="M192.72 123H201.808V114.552H207.888V106.68H201.808V76.92H192.272L171.408 106.68V114.552H192.72V123ZM180.368 106.68L192.72 89.528V106.68H180.368ZM231.332 76.28C244.004 76.28 251.236 86.136 251.236 99.96C251.236 113.784 244.004 123.64 231.332 123.64C218.724 123.64 211.748 113.784 211.748 99.96C211.748 86.136 218.724 76.28 231.332 76.28ZM242.083 99.96C242.083 90.168 238.116 84.152 231.332 84.152C224.612 84.152 220.836 90.168 220.836 99.96C220.836 109.816 224.612 115.768 231.332 115.768C238.116 115.768 242.083 109.816 242.083 99.96ZM276.533 123H285.621V114.552H291.701V106.68H285.621V76.92H276.085L255.221 106.68V114.552H276.533V123ZM264.181 106.68L276.533 89.528V106.68H264.181Z" fill="white"/>
<defs>
<clipPath id="clip0_430_3">
<rect width="465" height="378" fill="white"/>
</clipPath>
</defs>
</svg>
