<svg width="59" height="52" viewBox="0 0 59 52" fill="none" xmlns="http://www.w3.org/2000/svg">
<g clip-path="url(#clip0_1_2140)">
<path d="M4.1148 42.8395C2.08605 42.8395 0 44.4651 0 47.3107C0 49.912 1.83418 51.7494 4.1148 51.7494C5.99738 51.7494 6.8364 50.4858 6.8364 50.4858V51.0366C6.8364 51.297 7.0825 51.5875 7.38722 51.5875H8.74798V43.0339H6.8364V44.1193C6.83632 44.1192 5.99029 42.8395 4.1148 42.8395ZM4.4553 44.5885C6.12538 44.5885 7.00143 46.0573 7.00143 47.3101C7.00143 48.7054 5.96129 50.0306 4.45889 50.0306C3.20297 50.0306 1.94487 49.0135 1.94487 47.2917C1.94479 45.7373 3.0275 44.5885 4.4553 44.5885Z" fill="black"/>
<path d="M11.4043 51.5875C11.1106 51.5875 10.8535 51.3769 10.8535 51.0367V43.034H12.7651V44.0924C13.1983 43.4414 14.0446 42.8369 15.3435 42.8369C17.4666 42.8369 18.5971 44.5294 18.5971 46.1119V51.5875H17.2687C16.9204 51.5875 16.6855 51.2958 16.6855 51.0043V46.5331C16.6855 45.6559 16.148 44.5905 14.905 44.5905C13.5637 44.5905 12.7651 45.8581 12.7651 47.0515V51.5875H11.4043V51.5875Z" fill="black"/>
<path d="M24.1702 42.8396C22.1415 42.8396 20.0554 44.4652 20.0554 47.3108C20.0554 49.9121 21.8895 51.7495 24.1702 51.7495C26.0528 51.7495 26.8918 50.4859 26.8918 50.4859V51.0367C26.8918 51.2971 27.1379 51.5876 27.4426 51.5876H28.8034V38.7572H26.8918V44.1193C26.8918 44.1193 26.0458 42.8396 24.1702 42.8396ZM24.5107 44.5886C26.1808 44.5886 27.0568 46.0573 27.0568 47.3101C27.0568 48.7055 26.0167 50.0307 24.5143 50.0307C23.2584 50.0307 22.0003 49.0136 22.0003 47.2917C22.0003 45.7374 23.0829 44.5886 24.5107 44.5886Z" fill="black"/>
<path d="M31.4602 51.5875C31.1665 51.5875 30.9094 51.3768 30.9094 51.0366V43.0339H32.821V44.4595C33.1501 43.6609 33.8601 42.9368 35.1214 42.9368C35.4731 42.9368 35.8018 43.0015 35.8018 43.0015V44.9779C35.8018 44.9779 35.3913 44.8159 34.8946 44.8159C33.5533 44.8159 32.821 46.0835 32.821 47.2769V51.5875L31.4602 51.5875Z" fill="black"/>
<path d="M47.4004 51.5875C47.1067 51.5875 46.8496 51.3769 46.8496 51.0367V43.0339H48.7612V51.5875H47.4004Z" fill="black"/>
<path d="M54.3667 42.8396C52.338 42.8396 50.252 44.4652 50.252 47.3108C50.252 49.9121 52.0861 51.7495 54.3667 51.7495C56.2493 51.7495 57.0884 50.4859 57.0884 50.4859V51.0367C57.0884 51.2971 57.3345 51.5876 57.6392 51.5876H58.9999V38.7572H57.0884V44.1193C57.0884 44.1193 56.2423 42.8396 54.3667 42.8396ZM54.7073 44.5886C56.3773 44.5886 57.2534 46.0573 57.2534 47.3101C57.2534 48.7055 56.2132 50.0307 54.7108 50.0307C53.4549 50.0307 52.1968 49.0136 52.1968 47.2917C52.1968 45.7374 53.2794 44.5886 54.7073 44.5886Z" fill="black"/>
<path d="M47.7909 41.1891C48.4892 41.1891 49.0553 40.623 49.0553 39.9247C49.0553 39.2265 48.4892 38.6604 47.7909 38.6604C47.0927 38.6604 46.5266 39.2265 46.5266 39.9247C46.5266 40.623 47.0927 41.1891 47.7909 41.1891Z" fill="black"/>
<path d="M40.8426 42.8367C38.718 42.8367 36.3838 44.4226 36.3838 47.2955C36.3838 49.9135 38.372 51.7498 40.838 51.7498C43.8771 51.7498 45.361 49.3066 45.361 47.3121C45.361 44.8645 43.4502 42.8367 40.8426 42.8367ZM40.8495 44.6218C42.3187 44.6218 43.4147 45.8059 43.4147 47.3009C43.4147 48.8217 42.2513 49.9953 40.8539 49.9953C39.5567 49.9953 38.2957 48.9396 38.2957 47.3264C38.2958 45.6863 39.4951 44.6218 40.8495 44.6218Z" fill="black"/>
<path d="M43.8997 10.212L48.7906 1.73956C49.0666 1.26461 48.8997 0.661218 48.4312 0.385275C47.9626 0.109273 47.3528 0.269753 47.0832 0.744703L42.1281 9.32625C38.3476 7.59968 34.0921 6.63691 29.5157 6.63691C24.9393 6.63691 20.6838 7.59968 16.9033 9.32625L11.9481 0.744703C11.6721 0.269753 11.0688 0.109273 10.5939 0.385275C10.1189 0.661277 9.95843 1.26461 10.2344 1.73956L15.1254 10.212C6.69143 14.782 0.978928 23.3186 0.0354004 33.3123H58.996C58.0525 23.3186 52.34 14.782 43.8997 10.212ZM15.9791 25.0324C14.6119 25.0324 13.5079 23.922 13.5079 22.5613C13.5079 21.1941 14.6183 20.0901 15.9791 20.0901C17.3462 20.0901 18.4502 21.2005 18.4502 22.5613C18.4567 23.922 17.3462 25.0324 15.9791 25.0324ZM43.046 25.0324C41.6788 25.0324 40.5748 23.922 40.5748 22.5613C40.5748 21.1941 41.6852 20.0901 43.046 20.0901C44.4131 20.0901 45.5171 21.2005 45.5171 22.5613C45.5236 23.922 44.4131 25.0324 43.046 25.0324Z" fill="#32DE84"/>
</g>
<defs>
<clipPath id="clip0_1_2140">
<rect width="59" height="52" fill="white"/>
</clipPath>
</defs>
</svg>
