<svg width="157" height="40" viewBox="0 0 157 40" fill="none" xmlns="http://www.w3.org/2000/svg">
<g clip-path="url(#clip0_1_1934)">
<path d="M40.5977 12.9692V29.1044H42.5429V15.9244L52.4153 29.1044H54.5068V12.9692H52.5617V25.9431L42.7102 12.9692H40.5977Z" fill="#B3B3B3"/>
<path d="M70.5151 15.2746V13.5442C63.7824 11.7824 57.0137 13.288 57.5845 21.7242C58.0965 29.0049 64.4746 30.3132 70.5151 28.4569V21.7242H68.4072V27.2299C64.4116 28.1737 59.8812 27.0034 59.6294 21.7242C59.2893 14.2435 64.6319 13.733 70.5151 15.2746Z" fill="#B3B3B3"/>
<path d="M85.0495 12.9692V23.6134C84.8213 26.157 83.212 27.5263 80.4852 27.5265C77.7585 27.5263 76.1491 26.157 75.9209 23.6134V12.9692H73.822V23.6134C74.2479 28.1398 76.5958 29.1807 79.6337 29.2451L79.6336 29.2453C83.359 29.4524 86.6561 28.8455 87.1484 23.6135V12.9692H85.0495Z" fill="#B3B3B3"/>
<path d="M93.0343 27.3895V12.9692H90.9756C90.9756 13.6557 90.9756 28.4161 90.9756 29.1044C91.102 29.1044 101.395 29.1044 101.502 29.1044V27.3894H93.0343V27.3895Z" fill="#B3B3B3"/>
<path d="M110.347 10.8599L102.402 29.1045H104.578L110.347 14.99L113.345 22.3227H109.201L108.612 23.9687H114.017L116.117 29.1045H118.293L110.347 10.8599Z" fill="#B3B3B3"/>
<path d="M127.511 21.4748C130.466 20.5232 132.014 19.0659 132.003 16.7839C131.977 14.0608 130.326 12.9157 127.438 12.9693C126.707 12.9693 121.367 12.9693 120.52 12.9693V14.6829V29.1044H122.675V14.6828H127.438C129.268 14.8096 129.739 15.6428 129.739 16.8925C129.739 18.4453 128.947 19.3786 127.264 19.9765C126.621 20.1927 125.93 20.3696 125.175 20.4967V21.8188L130.3 29.1044H133.089L127.511 21.4748Z" fill="#B3B3B3"/>
<path d="M135.38 27.3508V29.1044C138.698 29.009 140.954 27.8517 140.863 24.3471V12.9692H138.766V24.6022C138.865 26.3024 137.647 27.2985 135.38 27.3508Z" fill="#B3B3B3"/>
<path d="M155.751 13.5024V15.4159C150.884 13.8138 146.114 14.3919 146.097 17.3575C146.151 19.4881 147.195 20.1519 150.778 20.0172C154.841 19.8459 156.332 21.6543 156.283 24.6451C156.176 29.3087 151.57 29.9887 144.607 28.517V26.5601C149.008 27.8792 154.286 28.1575 154.155 24.6714C154.173 22.5449 153.304 21.6928 149.341 21.879C145.73 21.8275 143.856 20.3817 144.049 17.2777C144.389 12.7977 148.813 11.9341 155.751 13.5024Z" fill="#B3B3B3"/>
<path d="M0.279541 6.60285L19.1631 0L38.1424 6.60285L35.144 31.1962L19.2109 40L3.24604 31.1962L0.279541 6.60285Z" fill="#B3B3B3"/>
<path d="M19.165 2.05078V37.817L33.342 29.98L36.0317 7.91861L19.165 2.05078Z" fill="#A5120D"/>
<path d="M19.1647 2.05078V37.817L4.98777 29.98L2.2981 7.91861L19.1647 2.05078Z" fill="#DC1B16"/>
<path d="M19.1685 3.87549L7.56372 29.6442H11.827L14.2749 23.8307C14.6519 23.8307 23.6503 23.8307 24.0623 23.8307L26.5101 29.6442H30.7734L19.1685 3.87549ZM15.7465 20.3356L19.1685 12.2086L22.5905 20.3356C17.1782 20.3479 18.6856 20.3486 15.7465 20.3356Z" fill="white"/>
<path d="M19.1689 3.87549V12.2087L22.5909 20.3357C20.8757 20.3395 19.856 20.3423 19.1689 20.3438V23.8308C21.5128 23.8308 23.857 23.8308 24.0627 23.8308L26.5105 29.6443H30.7738L19.1689 3.87549Z" fill="#B3B2B2"/>
<path d="M41.0811 12.425V28.5602H43.0262V15.3802L52.8986 28.5602H54.9902V12.425H53.0451V25.3989L43.1936 12.425H41.0811Z" fill="#020202"/>
<path d="M70.9985 14.7304V13C64.2658 11.2382 57.4971 12.7438 58.0679 21.18C58.5799 28.4607 64.958 29.769 70.9985 27.9127V21.18H68.8906V26.6857C64.895 27.6295 60.3646 26.4592 60.1128 21.18C59.7726 13.6993 65.1153 13.1888 70.9985 14.7304Z" fill="#020202"/>
<path d="M85.5329 12.425V23.0692C85.3047 25.6128 83.6954 26.9821 80.9686 26.9823C78.2419 26.9821 76.6325 25.6128 76.4043 23.0692V12.425H74.3054V23.0692C74.7313 27.5956 77.0793 28.6365 80.1171 28.7009L80.117 28.7011C83.8424 28.9083 87.1395 28.3013 87.6318 23.0693V12.425H85.5329Z" fill="#020202"/>
<path d="M93.5177 26.8452V12.425H91.459C91.459 13.1115 91.459 27.8719 91.459 28.5602C91.5854 28.5602 101.878 28.5602 101.986 28.5602V26.8452H93.5177Z" fill="#020202"/>
<path d="M110.831 10.3157L102.885 28.5603H105.061L110.831 14.4457L113.828 21.7785H109.684L109.096 23.4245H114.501L116.6 28.5603H118.776L110.831 10.3157Z" fill="#020202"/>
<path d="M127.994 20.9306C130.95 19.979 132.498 18.5217 132.486 16.2397C132.461 13.5166 130.809 12.3715 127.922 12.4251C127.19 12.4251 121.851 12.4251 121.003 12.4251V14.1387V28.5603H123.158V14.1387H127.922C129.751 14.2655 130.222 15.0987 130.222 16.3484C130.222 17.9012 129.43 18.8344 127.747 19.4324C127.104 19.6486 126.413 19.8255 125.658 19.9526V21.2747L130.784 28.5603H133.573L127.994 20.9306Z" fill="#020202"/>
<path d="M135.863 26.8066V28.5602C139.181 28.4648 141.437 27.3074 141.346 23.8028V12.425H139.25V24.058C139.349 25.7582 138.13 26.7542 135.863 26.8066Z" fill="#A5120D"/>
<path d="M156.235 12.9583V14.8717C151.367 13.2696 146.597 13.8478 146.58 16.8133C146.634 18.9439 147.679 19.6077 151.261 19.473C155.324 19.3017 156.815 21.1101 156.767 24.1009C156.659 28.7645 152.054 29.4445 145.091 27.9728V26.0159C149.492 27.335 154.77 27.6133 154.639 24.1272C154.656 22.0007 153.788 21.1486 149.825 21.3348C146.213 21.2833 144.34 19.8375 144.532 16.7335C144.872 12.2535 149.296 11.3899 156.235 12.9583Z" fill="#A5120D"/>
<path d="M123.158 34.7179C122.661 34.7179 122.343 34.9111 122.154 35.213V33.7297H121.697V37.6303H122.154V37.2138C122.341 37.5426 122.657 37.7621 123.158 37.7448C123.757 37.724 124.245 37.0478 124.245 36.2521C124.245 35.3627 123.758 34.7179 123.158 34.7179ZM123.028 37.3319C122.57 37.3319 122.154 37.1101 122.154 36.2317C122.154 35.4771 122.477 35.1315 123.028 35.1315C123.527 35.1315 123.735 35.6241 123.735 36.2317C123.735 36.8394 123.506 37.3319 123.028 37.3319Z" fill="#00000D"/>
<path d="M126.483 34.8547L125.745 37.1323L124.982 34.8547H124.403C124.403 34.8547 125.428 37.6957 125.476 37.8289C125.45 37.9278 125.427 37.9718 125.357 38.1566C125.225 38.508 125.06 38.5593 124.702 38.4174V38.8755C125.219 38.96 125.501 38.9198 125.733 38.3157C125.843 38.03 127.062 34.8547 127.062 34.8547H126.483Z" fill="#00000D"/>
<path d="M135.587 34.126H132.438V35.0524H134.68C134.57 36.3514 133.489 36.9054 132.469 36.9054C131.164 36.9054 130.025 35.8784 130.025 34.4391C130.025 33.0369 131.111 31.957 132.472 31.957C133.522 31.957 134.141 32.6266 134.141 32.6266L134.79 31.9549C134.79 31.9549 133.957 31.0281 132.439 31.0281C130.506 31.0281 129.01 32.6599 129.01 34.4226C129.01 36.1497 130.417 37.8339 132.488 37.8339C134.31 37.8339 135.644 36.5858 135.644 34.7402C135.644 34.3508 135.587 34.1258 135.587 34.1258L135.587 34.126Z" fill="black"/>
<path d="M138.253 33.4551C136.972 33.4551 136.054 34.4566 136.054 35.6245C136.054 36.8099 136.944 37.8299 138.268 37.8299C139.466 37.8299 140.448 36.9141 140.448 35.65C140.448 34.2012 139.306 33.4551 138.253 33.4551ZM138.265 34.3143C138.895 34.3143 139.492 34.8236 139.492 35.6442C139.492 36.4474 138.898 36.9713 138.263 36.9713C137.564 36.9713 137.014 36.4122 137.014 35.6378C137.014 34.8802 137.558 34.3143 138.265 34.3143Z" fill="black"/>
<path d="M143.009 33.4551C141.728 33.4551 140.81 34.4566 140.81 35.6245C140.81 36.8099 141.7 37.8299 143.024 37.8299C144.222 37.8299 145.204 36.9141 145.204 35.65C145.203 34.2012 144.062 33.4551 143.009 33.4551ZM143.021 34.3143C143.651 34.3143 144.248 34.8236 144.248 35.6442C144.248 36.4474 143.654 36.9713 143.018 36.9713C142.32 36.9713 141.77 36.4122 141.77 35.6378C141.77 34.8802 142.313 34.3143 143.021 34.3143Z" fill="black"/>
<path d="M147.7 33.4575C146.524 33.4575 145.6 34.4873 145.6 35.6432C145.6 36.9598 146.671 37.8329 147.679 37.8329C148.303 37.8329 148.634 37.5854 148.879 37.3014V37.7327C148.879 38.4874 148.421 38.9393 147.729 38.9393C147.061 38.9393 146.726 38.4425 146.609 38.1605L145.769 38.5119C146.067 39.1426 146.667 39.8002 147.736 39.8002C148.905 39.8002 149.796 39.0638 149.796 37.5196V33.5349H148.879V33.9595C148.597 33.6557 148.211 33.4576 147.7 33.4575ZM147.785 34.315C148.361 34.315 148.953 34.8072 148.953 35.6478C148.953 36.5022 148.362 36.9731 147.772 36.9731C147.145 36.9731 146.562 36.4641 146.562 35.6559C146.562 34.8161 147.168 34.315 147.785 34.315Z" fill="black"/>
<path d="M153.792 33.4521C152.683 33.4521 151.752 34.3346 151.752 35.6366C151.752 37.0145 152.79 37.8316 153.899 37.8316C154.824 37.8316 155.392 37.3253 155.731 36.8716L154.975 36.3685C154.779 36.673 154.451 36.9706 153.904 36.9706C153.289 36.9706 153.006 36.6339 152.831 36.3077L155.764 35.0907L155.612 34.734C155.328 34.0355 154.667 33.4523 153.793 33.4523L153.792 33.4521ZM153.831 34.2934C154.23 34.2934 154.518 34.5058 154.64 34.7606L152.681 35.5793C152.597 34.9455 153.197 34.2934 153.831 34.2934Z" fill="black"/>
<path d="M151.307 31.2544H150.408V37.7019H151.307V31.2544Z" fill="black"/>
</g>
<defs>
<clipPath id="clip0_1_1934">
<rect width="157" height="40" fill="white"/>
</clipPath>
</defs>
</svg>
