<svg width="118" height="40" viewBox="0 0 118 40" fill="none" xmlns="http://www.w3.org/2000/svg">
<g clip-path="url(#clip0_1_2364)">
<path d="M17.0211 0.192475C16.3938 0.565903 15.3482 1.6115 14.1084 3.12762L15.2511 5.28604C16.0502 4.13588 16.8718 3.10522 17.6933 2.22393C17.7531 2.15671 17.7904 2.11937 17.7904 2.11937C17.7605 2.15671 17.7232 2.18658 17.6933 2.22393C17.4244 2.5152 16.6178 3.45624 15.4005 5.33085C16.573 5.2711 18.373 5.03211 19.8443 4.77818C20.2849 2.32849 19.4186 1.2082 19.4186 1.2082C19.4186 1.2082 18.3132 -0.576788 17.0211 0.192475Z" fill="url(#paint0_linear_1_2364)"/>
<path d="M13.1747 18.3113C13.0253 18.3412 12.8759 18.3636 12.7266 18.386C12.8012 18.3785 12.8834 18.3636 12.9581 18.3486C13.0328 18.3412 13.1075 18.3262 13.1747 18.3113Z" fill="#BE202E"/>
<path opacity="0.35" d="M13.1747 18.3113C13.0253 18.3412 12.8759 18.3636 12.7266 18.386C12.8012 18.3785 12.8834 18.3636 12.9581 18.3486C13.0328 18.3412 13.1075 18.3262 13.1747 18.3113Z" fill="#BE202E"/>
<path d="M13.5632 16.4216C13.5558 16.4216 13.5558 16.4216 13.5632 16.4216C13.5856 16.4216 13.608 16.4141 13.6304 16.4141C13.7275 16.3992 13.8246 16.3842 13.9142 16.3618C13.8022 16.3842 13.6827 16.3992 13.5632 16.4216Z" fill="#BE202E"/>
<path opacity="0.35" d="M13.5632 16.4216C13.5558 16.4216 13.5558 16.4216 13.5632 16.4216C13.5856 16.4216 13.608 16.4141 13.6304 16.4141C13.7275 16.3992 13.8246 16.3842 13.9142 16.3618C13.8022 16.3842 13.6827 16.3992 13.5632 16.4216Z" fill="#BE202E"/>
<path d="M11.8751 10.8575C12.2262 10.2078 12.5772 9.57294 12.9282 8.95305C13.2942 8.31075 13.6676 7.69086 14.0485 7.08591C14.0709 7.04856 14.0933 7.01122 14.1157 6.98135C14.4891 6.39133 14.8626 5.82372 15.2435 5.27851L14.1008 3.12756C14.0186 3.23212 13.929 3.33668 13.8394 3.44871C13.5107 3.85948 13.1672 4.30013 12.8162 4.77065C12.4203 5.30092 12.017 5.86106 11.5988 6.45108C11.2179 6.99628 10.8295 7.57136 10.4412 8.16138C10.1125 8.66925 9.78393 9.18458 9.45531 9.71485C9.44037 9.73725 9.43291 9.75219 9.41797 9.77459L10.9042 12.7097C11.2328 12.0899 11.554 11.47 11.8751 10.8575Z" fill="url(#paint1_linear_1_2364)"/>
<path d="M5.10098 27.4154C4.90679 27.9531 4.70514 28.5058 4.51096 29.0734C4.51096 29.0809 4.50349 29.0884 4.50349 29.0958C4.47362 29.178 4.44374 29.2527 4.42134 29.3348C4.2869 29.7157 4.17487 30.0593 3.90601 30.836C4.34665 31.0377 4.69767 31.5605 5.02629 32.158C4.98895 31.5381 4.73502 30.9555 4.24956 30.5074C6.40798 30.6045 8.27512 30.0593 9.2311 28.4759C9.31325 28.334 9.39541 28.1847 9.47009 28.0278C9.02945 28.5805 8.49171 28.8195 7.46851 28.7597H7.46105H7.46851C8.9697 28.0876 9.72402 27.4378 10.3887 26.3698C10.5456 26.1159 10.7024 25.8395 10.8592 25.5333C9.54478 26.8851 8.02119 27.266 6.41545 26.9748L5.21301 27.1092C5.17566 27.2138 5.13832 27.3108 5.10098 27.4154Z" fill="url(#paint2_linear_1_2364)"/>
<path d="M5.66073 24.7194C5.92213 24.0472 6.191 23.3676 6.45986 22.6805C6.72126 22.0232 6.99013 21.366 7.26647 20.7013C7.54281 20.0366 7.82661 19.3719 8.11042 18.7072C8.40169 18.0275 8.70044 17.3554 9.00665 16.6832C9.30539 16.0185 9.61907 15.3538 9.92528 14.6965C10.0373 14.4576 10.1493 14.226 10.2688 13.987C10.463 13.5837 10.6647 13.1804 10.8663 12.7771C10.8738 12.7547 10.8887 12.7323 10.8962 12.7099L9.42489 9.78223C9.40248 9.81957 9.38008 9.86438 9.3502 9.90172C9.00665 10.4693 8.65563 11.0444 8.31954 11.6344C7.97599 12.2319 7.6399 12.8369 7.31128 13.4568C7.03495 13.9796 6.76608 14.5024 6.49721 15.0326C6.44493 15.1372 6.39265 15.2492 6.34037 15.3538C6.01922 16.0185 5.72048 16.6683 5.45908 17.2881C5.16033 17.9902 4.89893 18.6624 4.66741 19.2972C4.51804 19.7154 4.37613 20.1187 4.24917 20.5071C4.14461 20.8357 4.04752 21.1718 3.95042 21.5004C3.72637 22.2772 3.53965 23.0539 3.38281 23.8306L4.87653 26.7807C5.07071 26.2504 5.27983 25.7202 5.48148 25.175C5.54123 25.0256 5.60098 24.8762 5.66073 24.7194Z" fill="url(#paint3_linear_1_2364)"/>
<path d="M3.36086 23.9351C3.17414 24.8762 3.03971 25.8172 2.97249 26.7582C2.97249 26.7881 2.96502 26.8255 2.96502 26.8553C2.50197 26.1085 1.24725 25.3766 1.25472 25.384C2.15095 26.6836 2.83059 27.9682 2.92768 29.2303C2.44969 29.3274 1.79246 29.1855 1.03813 28.9092C1.8298 29.6336 2.41982 29.8353 2.65134 29.8876C1.92689 29.9324 1.17257 30.4328 0.410772 31.0079C1.52359 30.5523 2.42729 30.373 3.06958 30.5224C2.04639 33.4127 1.02319 36.6093 0 40C0.31368 39.9104 0.500394 39.6938 0.604954 39.41C0.7842 38.7976 2.00158 34.7646 3.8986 29.4693C3.95088 29.32 4.01062 29.1706 4.0629 29.0138C4.07784 28.9689 4.09278 28.9316 4.10772 28.8868C4.30937 28.3341 4.51849 27.7665 4.73508 27.184C4.78736 27.0495 4.83217 26.9226 4.88445 26.7881V26.7807L3.39073 23.8306C3.3758 23.8679 3.36833 23.8978 3.36086 23.9351Z" fill="url(#paint4_linear_1_2364)"/>
<path d="M11.1432 12.9638C11.0984 13.0534 11.061 13.1356 11.0162 13.2252C10.8893 13.494 10.7548 13.7629 10.6279 14.0393C10.4859 14.338 10.344 14.6442 10.1947 14.9579C10.12 15.1147 10.0453 15.2716 9.97062 15.4359C9.74656 15.9213 9.5225 16.4217 9.29098 16.9371C9.00717 17.5719 8.72336 18.2291 8.43209 18.9162C8.15575 19.566 7.87195 20.2456 7.58814 20.9402C7.31927 21.6049 7.04294 22.2846 6.7666 22.9941C6.52014 23.6214 6.27367 24.2712 6.01974 24.9359C6.0048 24.9658 5.99734 25.0031 5.9824 25.033C5.73594 25.6902 5.482 26.3699 5.22807 27.0644C5.2206 27.0794 5.21313 27.0943 5.21313 27.1093L6.41558 26.9748C6.39317 26.9674 6.37076 26.9674 6.34089 26.9599C7.78232 26.7806 9.69428 25.7052 10.9266 24.3758C11.4942 23.7633 12.0095 23.0464 12.4875 22.2024C12.846 21.575 13.1746 20.8805 13.4958 20.1037C13.7721 19.4316 14.041 18.6996 14.2949 17.908C13.9663 18.0798 13.5854 18.2067 13.1672 18.2963C13.0925 18.3113 13.0178 18.3262 12.9431 18.3412C12.8684 18.3561 12.7937 18.3636 12.7116 18.3785C14.0559 17.8632 14.8999 16.8698 15.5123 15.645C15.1613 15.884 14.5862 16.1977 13.8991 16.3545C13.8095 16.3769 13.7124 16.3919 13.6153 16.4068C13.5929 16.4068 13.5705 16.4143 13.5406 16.4143C14.0036 16.2201 14.3995 16.0035 14.743 15.7421C14.8177 15.6898 14.8849 15.6301 14.9522 15.5703C15.0567 15.4807 15.1538 15.3836 15.2509 15.2865C15.3106 15.2193 15.3704 15.1595 15.4301 15.0923C15.5646 14.9355 15.6915 14.7637 15.8036 14.577C15.8409 14.5172 15.8783 14.465 15.9081 14.4052C15.9529 14.3156 15.9978 14.2334 16.0351 14.1513C16.2218 13.7779 16.3712 13.4418 16.4907 13.143C16.5504 12.9937 16.6027 12.8592 16.6475 12.7323C16.6625 12.68 16.6849 12.6352 16.6998 12.5829C16.7446 12.441 16.7894 12.314 16.8193 12.202C16.8641 12.0377 16.894 11.9032 16.9089 11.8062C16.8641 11.8435 16.8118 11.8808 16.7521 11.9107C16.3488 12.1497 15.6542 12.3738 15.0941 12.4783L16.1994 12.3588L15.0941 12.4783C15.0866 12.4783 15.0791 12.4783 15.0717 12.4858C15.0194 12.4933 14.9596 12.5007 14.8999 12.5157C14.9073 12.5082 14.9223 12.5082 14.9297 12.5007L11.1507 12.9115C11.1581 12.9414 11.1507 12.9563 11.1432 12.9638Z" fill="url(#paint5_linear_1_2364)"/>
<path d="M15.3997 5.33085C15.0636 5.84618 14.6977 6.4362 14.3018 7.09343C14.2794 7.13078 14.257 7.16065 14.2421 7.19799C13.8985 7.77307 13.54 8.40043 13.1591 9.09501C12.8305 9.6925 12.487 10.3273 12.1285 11.0219C11.8148 11.6194 11.5011 12.2542 11.165 12.9264L14.9441 12.5156C16.042 12.0078 16.5349 11.5522 17.0129 10.8875C17.1399 10.7082 17.2669 10.514 17.3938 10.3124C17.7822 9.70744 18.1631 9.04273 18.4992 8.37803C18.8278 7.73573 19.1191 7.1009 19.3357 6.53329C19.4776 6.16733 19.5896 5.83124 19.6717 5.5325C19.739 5.2711 19.7912 5.02464 19.8361 4.78564C18.3722 5.03211 16.5723 5.2711 15.3997 5.33085Z" fill="url(#paint6_linear_1_2364)"/>
<path d="M12.9581 18.3561C12.8834 18.371 12.8087 18.3785 12.7266 18.3934C12.8012 18.3785 12.8759 18.3635 12.9581 18.3561Z" fill="#BE202E"/>
<path opacity="0.35" d="M12.9581 18.3561C12.8834 18.371 12.8087 18.3785 12.7266 18.3934C12.8012 18.3785 12.8759 18.3635 12.9581 18.3561Z" fill="#BE202E"/>
<path d="M12.9581 18.3561C12.8834 18.371 12.8087 18.3785 12.7266 18.3934C12.8012 18.3785 12.8759 18.3635 12.9581 18.3561Z" fill="url(#paint7_linear_1_2364)"/>
<path d="M13.5554 16.4217C13.5778 16.4217 13.6002 16.4142 13.6301 16.4142C13.6077 16.4142 13.5853 16.4217 13.5554 16.4217Z" fill="#BE202E"/>
<path opacity="0.35" d="M13.5554 16.4217C13.5778 16.4217 13.6002 16.4142 13.6301 16.4142C13.6077 16.4142 13.5853 16.4217 13.5554 16.4217Z" fill="#BE202E"/>
<path d="M13.5554 16.4217C13.5778 16.4217 13.6002 16.4142 13.6301 16.4142C13.6077 16.4142 13.5853 16.4217 13.5554 16.4217Z" fill="url(#paint8_linear_1_2364)"/>
<path d="M15.2932 12.4472V12.9931H15.1396V12.4472H14.9463V12.3164H15.4809V12.4472H15.2932Z" fill="#B0AFB0"/>
<path d="M16.1973 12.5666L16.0153 12.9363H15.9243L15.7423 12.5666V12.9931H15.5945V12.3164H15.7992L15.9755 12.6861L16.1518 12.3164H16.3565V12.9931H16.2087V12.5666H16.1973Z" fill="#B0AFB0"/>
<path d="M21.4975 38.9338C20.8664 38.9338 20.3131 38.8999 19.8376 38.8319C19.3618 38.7737 18.959 38.701 18.6289 38.6136V34.8568C18.9881 34.9345 19.3666 35.0024 19.7646 35.0607C20.153 35.1189 20.5801 35.1481 21.046 35.1481C21.4927 35.1481 21.9051 35.0995 22.2838 35.0024C22.6722 34.9054 23.0071 34.7354 23.2886 34.4927C23.5799 34.2597 23.8031 33.9442 23.9584 33.5462C24.1234 33.1482 24.2059 32.6484 24.2059 32.0465V11.3838H28.7199V31.9008C28.7199 33.1239 28.5403 34.1773 28.1811 35.0607C27.8317 35.9441 27.3365 36.6722 26.6958 37.245C26.0648 37.8274 25.3075 38.2545 24.4241 38.5264C23.5409 38.798 22.5653 38.9338 21.4975 38.9338Z" fill="url(#paint9_linear_1_2364)" stroke="#D22128" stroke-width="0.185548"/>
<path d="M39.7013 32.6725L35.0272 15.9705H34.8962C34.9545 16.8636 35.0029 17.7277 35.0419 18.5625C35.0613 18.9217 35.0758 19.2906 35.0855 19.6691C35.1049 20.0476 35.1194 20.4215 35.1291 20.7903C35.1485 21.1592 35.1582 21.5136 35.1582 21.8534C35.1678 22.1931 35.1727 22.4989 35.1729 22.7707V32.6725H31.1394V11.3838H37.2844L41.8858 27.6634H41.9732L46.8657 11.3838H53.0107V32.6725H48.8025V22.5959C48.8025 22.3436 48.8025 22.0571 48.8025 21.7368C48.8121 21.4166 48.822 21.0766 48.8316 20.7176C48.8413 20.3584 48.8511 19.9943 48.8608 19.6255C48.8802 19.2566 48.8947 18.8974 48.9044 18.548C48.9431 17.7325 48.9771 16.8831 49.0062 15.9997H48.8897L43.8515 32.6725H39.7013Z" fill="black"/>
<path d="M62.0329 19.247C61.2465 19.247 60.5914 19.5237 60.0672 20.077C59.5527 20.6303 59.2565 21.4992 59.179 22.6836H64.8434C64.8337 22.1885 64.7707 21.7323 64.6541 21.3148C64.5376 20.8973 64.3628 20.5383 64.13 20.2373C63.8969 19.9267 63.6058 19.684 63.2562 19.5092C62.9066 19.3344 62.4988 19.247 62.0329 19.247ZM62.6009 32.9639C61.436 32.9639 60.3633 32.7939 59.3827 32.4542C58.4023 32.1145 57.5576 31.6047 56.849 30.9253C56.1404 30.236 55.5871 29.372 55.1891 28.3333C54.8008 27.285 54.6067 26.0569 54.6067 24.6493C54.6067 23.2222 54.7863 21.9748 55.1455 20.907C55.5047 19.8391 56.0046 18.9509 56.6453 18.2423C57.2957 17.524 58.0724 16.9852 58.9751 16.626C59.8876 16.2668 60.8971 16.0872 62.0038 16.0872C63.0812 16.0872 64.052 16.2523 64.9161 16.5822C65.7899 16.9026 66.5276 17.3782 67.1295 18.0093C67.7411 18.6403 68.207 19.4168 68.5274 20.339C68.8575 21.2515 69.0225 22.2999 69.0225 23.4842V25.6394H59.0916C59.1111 26.2606 59.2081 26.8237 59.3829 27.3284C59.5673 27.8235 59.8197 28.2458 60.1401 28.5953C60.4702 28.9351 60.8634 29.1973 61.3196 29.3817C61.7856 29.5661 62.3147 29.6583 62.9068 29.6583C63.4019 29.6583 63.8678 29.634 64.3047 29.5856C64.7514 29.5273 65.1833 29.4448 65.6008 29.3381C66.0183 29.2314 66.4308 29.1002 66.8386 28.9449C67.2462 28.78 67.6637 28.5905 68.0909 28.377V31.8135C67.7025 32.0174 67.3093 32.192 66.9113 32.3377C66.523 32.4735 66.1105 32.59 65.6735 32.6871C65.2368 32.7841 64.7658 32.852 64.2611 32.891C63.7561 32.9396 63.2026 32.9639 62.6009 32.9639Z" fill="black"/>
<path d="M77.9346 29.4253C78.3714 29.4253 78.7841 29.3767 79.1724 29.2796C79.5704 29.1826 79.9732 29.0612 80.3811 28.9156V32.2209C79.9636 32.4345 79.4442 32.6093 78.823 32.7451C78.2115 32.8908 77.5416 32.9635 76.8135 32.9635C76.1049 32.9635 75.4448 32.8809 74.8332 32.716C74.2216 32.551 73.6926 32.2645 73.246 31.8569C72.7994 31.4394 72.4452 30.8861 72.183 30.197C71.9307 29.498 71.8045 28.6243 71.8045 27.5759V19.7274H69.6785V17.8491L72.1247 16.3638L73.4061 12.9272H76.2456V16.3929H80.2063V19.7274H76.2456V27.5759C76.2456 28.207 76.4009 28.6729 76.7115 28.9738C77.0221 29.275 77.4299 29.4255 77.9346 29.4253Z" fill="black"/>
<path d="M88.7692 19.247C87.9828 19.247 87.3276 19.5237 86.8035 20.077C86.2889 20.6303 85.9928 21.4992 85.9152 22.6836H91.5797C91.57 22.1885 91.5069 21.7323 91.3904 21.3148C91.2739 20.8973 91.0991 20.5383 90.8662 20.2373C90.6332 19.9267 90.3421 19.684 89.9925 19.5092C89.6427 19.3344 89.2351 19.247 88.7692 19.247ZM89.3369 32.9639C88.1721 32.9639 87.0994 32.7939 86.1188 32.4542C85.1384 32.1145 84.2937 31.6047 83.5851 30.9253C82.8765 30.236 82.3232 29.372 81.9252 28.3333C81.5369 27.285 81.3428 26.0569 81.3428 24.6493C81.3428 23.2222 81.5224 21.9748 81.8816 20.907C82.2408 19.8391 82.7407 18.9509 83.3814 18.2423C84.0317 17.524 84.8084 16.9852 85.7111 16.626C86.6237 16.2668 87.6332 16.0872 88.7398 16.0872C89.8173 16.0872 90.7881 16.2523 91.6522 16.5822C92.526 16.9026 93.2637 17.3782 93.8656 18.0093C94.4772 18.6403 94.9431 19.4168 95.2635 20.339C95.5936 21.2515 95.7586 22.2999 95.7586 23.4842V25.6394H85.8277C85.8471 26.2606 85.9442 26.8237 86.119 27.3284C86.3034 27.8235 86.5558 28.2458 86.8762 28.5953C87.2063 28.9351 87.5995 29.1973 88.0557 29.3817C88.5216 29.5661 89.0508 29.6583 89.6429 29.6583C90.1379 29.6583 90.6039 29.634 91.0408 29.5856C91.4874 29.5273 91.9194 29.4448 92.3367 29.3381C92.7542 29.2314 93.1667 29.1002 93.5745 28.9449C93.9821 28.78 94.3996 28.5905 94.8268 28.377V31.8135C94.4384 32.0174 94.0452 32.192 93.6472 32.3377C93.2589 32.4735 92.8464 32.59 92.4094 32.6871C91.9727 32.7841 91.5017 32.852 90.997 32.891C90.4922 32.9396 89.9389 32.9639 89.3369 32.9639Z" fill="black"/>
<path d="M105.437 16.0872C105.553 16.0872 105.679 16.092 105.815 16.1018C105.961 16.1018 106.097 16.1115 106.223 16.1309C106.359 16.1406 106.48 16.1553 106.587 16.1746C106.703 16.1842 106.791 16.1989 106.849 16.2182V20.3828C106.771 20.3633 106.665 20.344 106.529 20.3245C106.393 20.305 106.247 20.2906 106.092 20.2809C105.946 20.2614 105.801 20.2518 105.655 20.2518C105.509 20.2421 105.388 20.2373 105.291 20.2371C104.718 20.2371 104.189 20.3099 103.704 20.4555C103.228 20.6012 102.816 20.8391 102.466 21.169C102.126 21.4894 101.859 21.9165 101.665 22.4504C101.481 22.9745 101.389 23.62 101.389 24.3871V32.6726H96.9473V16.3929H100.311L100.966 18.8392H101.184C101.417 18.4217 101.67 18.0432 101.942 17.7035C102.213 17.3637 102.514 17.0774 102.845 16.8444C103.184 16.6017 103.563 16.4172 103.98 16.2911C104.408 16.1551 104.893 16.0872 105.437 16.0872Z" fill="black"/>
<path d="M111.313 16.0478H110.326V12.201H109.153V11.3766H112.482V12.201H111.313V16.0478Z" fill="black"/>
<path d="M115.08 16.0478L114.054 12.3832H114.026C114.038 12.5791 114.049 12.7687 114.057 12.9519C114.062 13.0307 114.065 13.1116 114.067 13.1948C114.071 13.2779 114.075 13.3599 114.077 13.4408C114.081 13.5217 114.083 13.5994 114.083 13.674C114.085 13.7486 114.086 13.8156 114.086 13.8754V16.0479H113.201V11.377H114.549L115.559 14.9489H115.578L116.652 11.377H118V16.0479H117.077V13.837C117.077 13.7817 117.077 13.7188 117.077 13.6484C117.079 13.5781 117.081 13.5035 117.083 13.4248C117.085 13.346 117.087 13.2662 117.089 13.1853C117.093 13.1044 117.097 13.0255 117.099 12.9489C117.107 12.77 117.115 12.5836 117.121 12.3899H117.096L115.99 16.0481H115.08" fill="black"/>
<path d="M24.1453 8.10968L27.3337 0.490967H27.9482L31.1366 8.10968H30.3347L29.3451 5.72964H25.9174L24.9408 8.10968H24.1453ZM27.6442 1.37055L26.079 5.13463H29.1705L27.6442 1.37055Z" fill="#D22128"/>
<path d="M31.9519 8.10956V0.490845H35.108C36.4145 0.490845 37.3587 1.70027 37.3587 2.88382C37.3587 4.12558 36.4792 5.2962 35.1727 5.2962H32.6957V8.10956H31.9519ZM32.6957 4.63005H35.1339C36.0329 4.63005 36.615 3.80221 36.615 2.88382C36.615 1.92663 35.91 1.157 35.0692 1.157H32.6957V4.63005Z" fill="#D22128"/>
<path d="M36.9441 8.10956L40.1326 0.490845H40.747L43.9355 8.10956H43.1206L42.131 5.72952H38.7097L37.7331 8.10956H36.9441ZM40.443 1.37043L38.8779 5.13451H41.9693L40.443 1.37043Z" fill="#D22128"/>
<path d="M47.5321 0.445679C48.8838 0.445679 49.8733 1.13123 50.3454 2.10783L49.744 2.47001C49.2589 1.46108 48.3146 1.1183 47.4933 1.1183C45.6694 1.1183 44.6734 2.74811 44.6734 4.28091C44.6734 5.96246 45.9087 7.48879 47.5256 7.48879C48.3858 7.48879 49.3947 7.06193 49.8733 6.0724L50.4942 6.39578C50.0027 7.53406 48.651 8.16788 47.4803 8.16788C45.3913 8.16788 43.9167 6.16942 43.9167 4.2421C43.9167 2.4118 45.2361 0.445679 47.5321 0.445679Z" fill="#D22128"/>
<path d="M57.5494 0.490845V8.10956H56.7992V4.54597H52.2849V8.10956H51.5476V0.490845H52.2849V3.87981H56.7992V0.490845H57.5494Z" fill="#D22128"/>
<path d="M64.3861 7.44353V8.10968H59.2703V0.490967H64.289V1.15712H60.0076V3.90581H63.7393V4.53962H60.0076V7.44353H64.3861Z" fill="#D22128"/>
</g>
<defs>
<linearGradient id="paint0_linear_1_2364" x1="15.0876" y1="3.39296" x2="18.4585" y2="2.4557" gradientUnits="userSpaceOnUse">
<stop stop-color="#F69923"/>
<stop offset="0.3123" stop-color="#F79A23"/>
<stop offset="0.8383" stop-color="#E97826"/>
</linearGradient>
<linearGradient id="paint1_linear_1_2364" x1="-3.2584" y1="40.9707" x2="3.59772" y2="26.267" gradientUnits="userSpaceOnUse">
<stop offset="0.3233" stop-color="#9E2064"/>
<stop offset="0.6302" stop-color="#C92037"/>
<stop offset="0.7514" stop-color="#CD2335"/>
<stop offset="1" stop-color="#E97826"/>
</linearGradient>
<linearGradient id="paint2_linear_1_2364" x1="2.46876" y1="38.2729" x2="6.55433" y2="29.5109" gradientUnits="userSpaceOnUse">
<stop stop-color="#282662"/>
<stop offset="0.0955" stop-color="#662E8D"/>
<stop offset="0.7882" stop-color="#9F2064"/>
<stop offset="0.9487" stop-color="#CD2032"/>
</linearGradient>
<linearGradient id="paint3_linear_1_2364" x1="-2.6397" y1="38.7619" x2="4.21644" y2="24.0581" gradientUnits="userSpaceOnUse">
<stop offset="0.3233" stop-color="#9E2064"/>
<stop offset="0.6302" stop-color="#C92037"/>
<stop offset="0.7514" stop-color="#CD2335"/>
<stop offset="1" stop-color="#E97826"/>
</linearGradient>
<linearGradient id="paint4_linear_1_2364" x1="-0.896492" y1="36.331" x2="2.70659" y2="28.6037" gradientUnits="userSpaceOnUse">
<stop stop-color="#282662"/>
<stop offset="0.0955" stop-color="#662E8D"/>
<stop offset="0.7882" stop-color="#9F2064"/>
<stop offset="0.9487" stop-color="#CD2032"/>
</linearGradient>
<linearGradient id="paint5_linear_1_2364" x1="1.14118" y1="40.5246" x2="7.99732" y2="25.8208" gradientUnits="userSpaceOnUse">
<stop offset="0.3233" stop-color="#9E2064"/>
<stop offset="0.6302" stop-color="#C92037"/>
<stop offset="0.7514" stop-color="#CD2335"/>
<stop offset="1" stop-color="#E97826"/>
</linearGradient>
<linearGradient id="paint6_linear_1_2364" x1="-0.0991944" y1="42.7051" x2="6.75692" y2="28.0013" gradientUnits="userSpaceOnUse">
<stop offset="0.3233" stop-color="#9E2064"/>
<stop offset="0.6302" stop-color="#C92037"/>
<stop offset="0.7514" stop-color="#CD2335"/>
<stop offset="1" stop-color="#E97826"/>
</linearGradient>
<linearGradient id="paint7_linear_1_2364" x1="2.27352" y1="41.0525" x2="9.12967" y2="26.3487" gradientUnits="userSpaceOnUse">
<stop offset="0.3233" stop-color="#9E2064"/>
<stop offset="0.6302" stop-color="#C92037"/>
<stop offset="0.7514" stop-color="#CD2335"/>
<stop offset="1" stop-color="#E97826"/>
</linearGradient>
<linearGradient id="paint8_linear_1_2364" x1="2.14041" y1="40.9882" x2="8.99551" y2="26.2853" gradientUnits="userSpaceOnUse">
<stop offset="0.3233" stop-color="#9E2064"/>
<stop offset="0.6302" stop-color="#C92037"/>
<stop offset="0.7514" stop-color="#CD2335"/>
<stop offset="1" stop-color="#E97826"/>
</linearGradient>
<linearGradient id="paint9_linear_1_2364" x1="654.955" y1="-1325.19" x2="659.219" y2="-1334.34" gradientUnits="userSpaceOnUse">
<stop stop-color="#F69923"/>
<stop offset="0.3123" stop-color="#F79A23"/>
<stop offset="0.8383" stop-color="#E97826"/>
</linearGradient>
<clipPath id="clip0_1_2364">
<rect width="118" height="40" fill="white"/>
</clipPath>
</defs>
</svg>
