<svg width="44" height="53" viewBox="0 0 44 53" fill="none" xmlns="http://www.w3.org/2000/svg">
<g clip-path="url(#clip0_1_2152)">
<path d="M36.4646 28.1572C36.5392 36.1778 43.5008 38.8468 43.578 38.8809C43.5191 39.0692 42.4656 42.6846 39.9103 46.419C37.7013 49.6477 35.4087 52.8645 31.797 52.9311C28.2482 52.9965 27.1071 50.8266 23.0498 50.8266C18.9937 50.8266 17.7259 52.8643 14.3665 52.9965C10.8804 53.1285 8.22571 49.5051 5.99834 46.2884C1.44699 39.7082 -2.03121 27.6946 2.63915 19.5852C4.95924 15.5579 9.1055 13.0079 13.6058 12.9425C17.029 12.8772 20.2602 15.2455 22.3529 15.2455C24.4443 15.2455 28.3709 12.3973 32.4988 12.8157C34.2268 12.8877 39.0775 13.5138 42.1923 18.073C41.9415 18.2283 36.4045 21.4516 36.4646 28.1572ZM29.7952 8.46227C31.6459 6.22192 32.8917 3.10312 32.5519 0C29.884 0.107213 26.6582 1.77779 24.7445 4.01679C23.0296 5.99957 21.5278 9.17332 21.933 12.2149C24.9065 12.4452 27.9442 10.704 29.7952 8.46227Z" fill="#424242"/>
</g>
<defs>
<clipPath id="clip0_1_2152">
<rect width="44" height="53" fill="white"/>
</clipPath>
</defs>
</svg>
