<svg width="54" height="46" viewBox="0 0 54 46" fill="none" xmlns="http://www.w3.org/2000/svg">
<g clip-path="url(#clip0_1_2260)">
<path fill-rule="evenodd" clip-rule="evenodd" d="M8.1557 37.0932V33.6373C8.1557 33.1834 8.43955 32.8185 8.90969 32.8185H9.04C9.50992 32.8185 9.79251 33.1836 9.79251 33.6373V40.9128C9.79251 42.6869 8.91581 44.0985 7.38861 44.9978C6.68045 45.4145 5.89795 45.6283 5.07701 45.6283H4.75239C2.97788 45.6283 1.5679 44.7512 0.667335 43.2246C0.249367 42.516 0.0371094 41.7346 0.0371094 40.9128V40.5886C0.0371094 38.8139 0.914229 37.403 2.44037 36.5023C3.14916 36.0839 3.93061 35.8718 4.75261 35.8718H5.07722C6.27769 35.8716 7.29653 36.3371 8.1557 37.0932ZM1.67329 40.7504C1.67329 42.0319 2.29443 42.9954 3.41739 43.6098C3.87147 43.8584 4.36442 43.9919 4.88249 43.9919C6.14041 43.9919 7.07329 43.3984 7.71703 42.3325C8.0163 41.8366 8.1557 41.2942 8.1557 40.7172C8.1557 39.6063 7.6298 38.7393 6.73452 38.0954C6.19173 37.7051 5.58073 37.5093 4.91439 37.5093C3.54327 37.5093 2.55674 38.2018 1.96432 39.4325C1.76453 39.8483 1.67329 40.2902 1.67329 40.7504ZM15.4698 35.8716H15.6966C17.5928 35.8716 19.0349 36.7914 19.9488 38.4466C20.3141 39.1087 20.5097 39.8312 20.5097 40.5884V40.9126C20.5097 42.6867 19.6349 44.1002 18.1052 44.9978C17.397 45.4133 16.6147 45.6281 15.794 45.6281H15.47C13.6955 45.6281 12.2853 44.7509 11.385 43.2244C10.967 42.5158 10.7543 41.7344 10.7543 40.9126V40.5884C10.7543 38.8134 11.6346 37.4073 13.1569 36.5025C13.8645 36.082 14.6474 35.8716 15.4698 35.8716ZM12.3903 40.7504C12.3903 41.9943 13.0009 42.9095 14.0516 43.5528C14.545 43.855 15.0882 43.9919 15.6648 43.9919C16.8939 43.9919 17.8025 43.3686 18.4349 42.3312C18.7365 41.8366 18.8729 41.2934 18.8729 40.7174C18.8729 39.5607 18.3158 38.677 17.3632 38.0366C16.8411 37.6854 16.2601 37.5095 15.6316 37.5095C14.2605 37.5095 13.274 38.202 12.682 39.4327C12.4817 39.8483 12.3903 40.2902 12.3903 40.7504ZM27.3132 37.64C27.066 37.5243 26.6035 37.4858 26.3363 37.4757C24.969 37.4242 23.9798 38.1942 23.3994 39.4004C23.1992 39.8164 23.1075 40.2568 23.1075 40.7172C23.1075 42.119 23.8433 43.1004 25.0947 43.6985C25.5517 43.9169 26.1418 43.9585 26.6413 43.9585C27.0808 43.9585 27.7015 43.6892 28.0914 43.504L28.159 43.4719H28.4615L28.4948 43.4787C28.8672 43.556 29.1481 43.7921 29.1481 44.1925V44.3545C29.1481 45.3508 27.3271 45.5791 26.6322 45.6274C24.1802 45.7972 22.3463 44.4504 21.6472 42.1116C21.5258 41.7056 21.4711 41.302 21.4711 40.8788V40.555C21.4711 38.7803 22.3516 37.3747 23.8737 36.4704C24.5817 36.0501 25.3644 35.8389 26.1866 35.8389H26.5108C27.3831 35.8389 28.1865 36.0866 28.9067 36.5785L28.966 36.6195L29.0034 36.6811C29.0811 36.8102 29.1481 36.9591 29.1481 37.1126V37.2746C29.1481 37.6924 28.8355 37.9169 28.4583 37.9898L28.427 37.9952H28.3303C28.0861 37.9955 27.5311 37.7426 27.3132 37.64ZM32.6215 38.7482C33.257 38.1116 33.895 37.4763 34.5403 36.8503C34.7202 36.6759 35.4009 35.9367 35.6687 35.9367H35.9619L35.9952 35.9434C36.3684 36.0209 36.6483 36.2575 36.6483 36.6585V36.8203C36.6483 37.094 36.3277 37.4121 36.1509 37.5992C35.7749 37.9978 35.3789 38.3834 34.9941 38.7737L33.0171 40.7808C33.8684 41.634 34.7189 42.4881 35.5633 43.3479C35.7969 43.5857 36.0305 43.8238 36.2605 44.065C36.3418 44.1505 36.4618 44.2569 36.53 44.3756C36.6033 44.4865 36.6483 44.6118 36.6483 44.7455V44.9146L36.6388 44.9535C36.5469 45.3267 36.3099 45.6281 35.896 45.6281H35.7659C35.4951 45.6281 35.1893 45.3216 35.0036 45.1467C34.6216 44.7864 34.2524 44.4075 33.8779 44.0394L32.6215 42.806V44.7773C32.6215 45.2314 32.3372 45.5962 31.8677 45.5962H31.7387C31.2687 45.5962 30.9849 45.2312 30.9849 44.7773V33.669C30.9849 33.2147 31.269 32.8514 31.7387 32.8514H31.8677C32.3372 32.8514 32.6215 33.2147 32.6215 33.669V38.7482ZM53.0187 35.9364H53.1811C53.6719 35.9364 53.9995 36.2672 53.9995 36.7551C53.9995 37.4326 53.3518 37.606 52.7914 37.606C52.0565 37.606 51.3549 38.051 50.8482 38.5501C50.2163 39.1729 49.9398 39.9706 49.9398 40.8475V44.8094C49.9398 45.2637 49.6564 45.6281 49.1858 45.6281H49.0568C48.5864 45.6281 48.303 45.2635 48.303 44.8094V40.6201C48.303 39.0113 49.0861 37.6981 50.3916 36.777C51.1713 36.2271 52.0643 35.9364 53.0187 35.9364ZM41.3868 43.7881C41.9824 43.9959 42.6614 43.9663 43.2724 43.8599C43.5847 43.727 44.3841 43.3786 44.6781 43.4295L44.724 43.4371L44.7662 43.458C44.9455 43.545 45.117 43.6681 45.2087 43.8506C45.4228 44.2789 45.32 44.7091 44.8993 44.9522L44.7592 45.0331C43.2067 45.9292 41.5557 45.8051 40.0083 44.9681C39.2684 44.5683 38.7024 43.9744 38.2849 43.2508L38.1871 43.0816C37.1906 41.3557 37.3249 39.5402 38.449 37.8989C38.8372 37.3316 39.344 36.8934 39.9371 36.5506L40.1614 36.4212C41.6233 35.5772 43.1902 35.6349 44.6917 36.3757C45.4989 36.7741 46.153 37.3678 46.6039 38.1486L46.6848 38.2892C47.0121 38.8565 46.588 39.3509 46.1502 39.6889C45.6421 40.0809 45.1291 40.5527 44.642 40.973C43.5564 41.9103 42.4721 42.8499 41.3868 43.7881ZM39.9814 42.8009C41.1961 41.7595 42.4109 40.7174 43.6219 39.6718C44.0359 39.3148 44.4897 38.9444 44.9003 38.5689C44.5706 38.1536 44.0205 37.8544 43.5526 37.6759C42.6088 37.3162 41.678 37.437 40.8123 37.9367C39.679 38.591 39.1964 39.6329 39.2389 40.9297C39.2555 41.4404 39.3928 41.9322 39.664 42.3667C39.7595 42.52 39.8661 42.6639 39.9814 42.8009Z" fill="#364548"/>
<path fill-rule="evenodd" clip-rule="evenodd" d="M31.1498 10.0062H35.9791V14.943H38.421C39.5486 14.943 40.7086 14.7422 41.7764 14.3804C42.301 14.2026 42.8901 13.9548 43.4077 13.6435C42.7259 12.7535 42.3779 11.6295 42.2755 10.5217C42.1363 9.01503 42.4402 7.05382 43.4601 5.87447L43.9678 5.28733L44.5727 5.77351C46.0957 6.99721 47.3766 8.70689 47.6024 10.6561C49.4362 10.1167 51.5894 10.2442 53.2058 11.1771L53.8689 11.5598L53.5198 12.2411C52.1527 14.9092 49.2947 15.7357 46.5005 15.5895C42.3194 26.0034 33.2164 30.9339 22.1792 30.9339C16.477 30.9339 11.2453 28.8023 8.2661 23.7432L8.21731 23.6606L7.78329 22.7776C6.77628 20.5506 6.44174 18.1111 6.66878 15.6734L6.73679 14.9432H10.8664V10.0062H15.6955V5.17687H25.3544V0.347534H31.1498V10.0062Z" fill="#364548"/>
<path fill-rule="evenodd" clip-rule="evenodd" d="M46.7959 11.8327C47.1197 9.31622 45.2364 7.33937 44.0685 6.401C42.7225 7.95713 42.5134 12.0354 44.625 13.7523C43.4465 14.799 40.9634 15.7477 38.4207 15.7477H7.47019C7.22287 18.4019 7.68899 20.8461 8.75303 22.9381L9.1051 23.582C9.32813 23.9603 9.57164 24.3255 9.8348 24.6771H9.83501C11.1075 24.7588 12.2805 24.7871 13.3538 24.7633H13.3543C15.4635 24.7166 17.1846 24.4678 18.489 24.0156C18.6833 23.948 18.8949 24.0511 18.9621 24.2452C19.0292 24.4391 18.9264 24.6509 18.7325 24.7183C18.5591 24.7783 18.3783 24.8347 18.1914 24.8879C18.1912 24.8881 18.191 24.8881 18.1908 24.8881C17.1637 25.1813 16.0625 25.3787 14.6415 25.4664C14.7258 25.4676 14.5537 25.479 14.5533 25.4793C14.5049 25.4822 14.4441 25.4892 14.3955 25.4917C13.8362 25.523 13.2326 25.5295 12.6155 25.5295C11.9405 25.5295 11.2758 25.5166 10.5326 25.479L10.5136 25.4915C13.0924 28.39 17.1246 30.1284 22.1789 30.1284C32.8758 30.1284 41.9493 25.3865 45.9669 14.7407C48.8175 15.0332 51.557 14.3063 52.8031 11.8739C50.8182 10.7287 48.2657 11.0939 46.7959 11.8327Z" fill="#22A0C8"/>
<path fill-rule="evenodd" clip-rule="evenodd" d="M46.7959 11.8327C47.1197 9.31622 45.2364 7.33937 44.0685 6.401C42.7225 7.95713 42.5134 12.0354 44.625 13.7523C43.4465 14.799 40.9634 15.7477 38.4207 15.7477H9.303C9.1767 19.8125 10.6851 22.898 13.3541 24.7633H13.3545C15.4637 24.7166 17.1848 24.4678 18.4892 24.0156C18.6835 23.948 18.8951 24.0511 18.9623 24.2452C19.0295 24.4391 18.9266 24.6509 18.7327 24.7183C18.5593 24.7783 18.3785 24.8347 18.1916 24.8879C18.1914 24.8881 18.1912 24.8881 18.191 24.8881C17.1639 25.1813 15.9681 25.4041 14.5469 25.4917C14.5465 25.4917 14.5125 25.4588 14.5121 25.459C18.1526 27.3264 23.4311 27.3197 29.4831 24.995C36.2692 22.3881 42.5837 17.4213 46.9896 11.7406C46.9233 11.7706 46.8584 11.8012 46.7959 11.8327Z" fill="#37B1D9"/>
<path fill-rule="evenodd" clip-rule="evenodd" d="M7.52832 18.9725C7.72072 20.3943 8.13658 21.7255 8.75329 22.938L9.10536 23.582C9.32839 23.9602 9.57191 24.3254 9.83506 24.6771C11.1078 24.7588 12.281 24.7871 13.3545 24.7632C15.4638 24.7165 17.1849 24.4678 18.4893 24.0156C18.6836 23.948 18.8952 24.0511 18.9623 24.2451C19.0295 24.439 18.9267 24.6509 18.7328 24.7182C18.5594 24.7782 18.3786 24.8346 18.1917 24.8878C18.1915 24.888 18.1912 24.888 18.191 24.888C17.164 25.1812 15.9745 25.3913 14.5533 25.479C14.5045 25.4819 14.4194 25.4826 14.3702 25.4851C13.8111 25.5166 13.2137 25.5356 12.5965 25.5356C11.9217 25.5356 11.2315 25.5227 10.4885 25.4851C13.0673 28.3836 17.1247 30.1284 22.1789 30.1284C31.3366 30.1284 39.304 26.6524 43.9283 18.9723H7.52832" fill="#1B81A5"/>
<path fill-rule="evenodd" clip-rule="evenodd" d="M9.58203 18.9725C10.1295 21.4687 11.445 23.4286 13.3549 24.7632C15.4642 24.7165 17.1853 24.4678 18.4897 24.0156C18.684 23.948 18.8956 24.0511 18.9628 24.2451C19.0299 24.439 18.9271 24.6509 18.7332 24.7182C18.5598 24.7782 18.379 24.8346 18.1921 24.8878C18.1919 24.888 18.1917 24.888 18.1914 24.888C17.1644 25.1812 15.9495 25.3913 14.5286 25.479C18.1689 27.346 23.4322 27.3192 29.4838 24.9947C33.1447 23.5881 36.6682 21.4942 39.8293 18.9723H9.58203" fill="#1D91B4"/>
<path fill-rule="evenodd" clip-rule="evenodd" d="M11.6709 10.8112H15.8563V14.9967H11.6709V10.8112ZM12.0194 11.1601H12.3497V14.6481H12.0194V11.1601ZM12.6405 11.1601H12.9841V14.6481H12.6405V11.1601ZM13.2743 11.1601H13.618V14.6481H13.2743V11.1601ZM13.9088 11.1601H14.2524V14.6481H13.9088V11.1601ZM14.543 11.1601H14.8867V14.6481H14.543V11.1601ZM15.1771 11.1601H15.5076V14.6481H15.1771V11.1601Z" fill="#23A3C2"/>
<path fill-rule="evenodd" clip-rule="evenodd" d="M16.5 5.98181H20.6858V10.1672H16.5V5.98181ZM16.8489 6.33072H17.179V9.8185H16.8489V6.33072ZM17.47 6.33072H17.8133V9.8185H17.47V6.33072ZM18.1039 6.33072H18.4475V9.8185H18.1039V6.33072ZM18.7381 6.33072H19.0817V9.8185H18.7381V6.33072ZM19.3723 6.33072H19.716V9.8185H19.3723V6.33072ZM20.0064 6.33072H20.3371V9.8185H20.0064V6.33072Z" fill="#23A3C2"/>
<path fill-rule="evenodd" clip-rule="evenodd" d="M16.5 10.8112H20.6858V14.9967H16.5V10.8112ZM16.8489 11.1601H17.179V14.6481H16.8489V11.1601ZM17.47 11.1601H17.8133V14.6481H17.47V11.1601ZM18.1039 11.1601H18.4475V14.6481H18.1039V11.1601ZM18.7381 11.1601H19.0817V14.6481H18.7381V11.1601ZM19.3723 11.1601H19.716V14.6481H19.3723V11.1601ZM20.0064 11.1601H20.3371V14.6481H20.0064V11.1601Z" fill="#34BBDE"/>
<path fill-rule="evenodd" clip-rule="evenodd" d="M21.3298 10.811H25.5154V14.9966H21.3298V10.811ZM21.6785 11.1599H22.0086V14.6479H21.6785V11.1599ZM22.2995 11.1599H22.6431V14.6479H22.2995V11.1599ZM22.9337 11.1599H23.2773V14.6479H22.9337V11.1599ZM23.5679 11.1599H23.9116V14.6479H23.5679V11.1599ZM24.202 11.1599H24.5458V14.6479H24.202V11.1599ZM24.8362 11.1599H25.1665V14.6479H24.8362V11.1599Z" fill="#23A3C2"/>
<path fill-rule="evenodd" clip-rule="evenodd" d="M21.3298 5.98181H25.5154V10.1672H21.3298V5.98181ZM21.6785 6.33072H22.0086V9.8185H21.6785V6.33072ZM22.2995 6.33072H22.6431V9.8185H22.2995V6.33072ZM22.9337 6.33072H23.2773V9.8185H22.9337V6.33072ZM23.5679 6.33072H23.9116V9.8185H23.5679V6.33072ZM24.202 6.33072H24.5458V9.8185H24.202V6.33072ZM24.8362 6.33072H25.1665V9.8185H24.8362V6.33072Z" fill="#34BBDE"/>
<path fill-rule="evenodd" clip-rule="evenodd" d="M26.1592 10.811H30.3446V14.9966H26.1592V10.811ZM26.5081 11.1599H26.8382V14.6479H26.5081V11.1599ZM27.129 11.1599H27.4726V14.6479H27.129V11.1599ZM27.763 11.1599H28.1067V14.6479H27.763V11.1599ZM28.3973 11.1599H28.7409V14.6479H28.3973V11.1599ZM29.0315 11.1599H29.3751V14.6479H29.0315V11.1599ZM29.6658 11.1599H29.9961V14.6479H29.6658V11.1599Z" fill="#34BBDE"/>
<path fill-rule="evenodd" clip-rule="evenodd" d="M26.1592 5.98181H30.3446V10.1672H26.1592V5.98181ZM26.5081 6.33072H26.8382V9.8185H26.5081V6.33072ZM27.129 6.33072H27.4726V9.8185H27.129V6.33072ZM27.763 6.33072H28.1067V9.8185H27.763V6.33072ZM28.3973 6.33072H28.7409V9.8185H28.3973V6.33072ZM29.0315 6.33072H29.3751V9.8185H29.0315V6.33072ZM29.6658 6.33072H29.9961V9.8185H29.6658V6.33072Z" fill="#23A3C2"/>
<path fill-rule="evenodd" clip-rule="evenodd" d="M26.1592 1.15247H30.3446V5.33806H26.1592V1.15247ZM26.5081 1.50095H26.8382V4.98915H26.5081V1.50095ZM27.129 1.50095H27.4726V4.98915H27.129V1.50095ZM27.763 1.50095H28.1067V4.98915H27.763V1.50095ZM28.3973 1.50095H28.7409V4.98915H28.3973V1.50095ZM29.0315 1.50095H29.3751V4.98915H29.0315V1.50095ZM29.6658 1.50095H29.9961V4.98915H29.6658V1.50095Z" fill="#34BBDE"/>
<path fill-rule="evenodd" clip-rule="evenodd" d="M30.9883 10.8112H35.1739V14.9967H30.9883V10.8112ZM31.337 11.1601H31.6675V14.6481H31.337V11.1601ZM31.9579 11.1601H32.3015V14.6481H31.9579V11.1601ZM32.5921 11.1601H32.9358V14.6481H32.5921V11.1601ZM33.2262 11.1601H33.5698V14.6481H33.2262V11.1601ZM33.8606 11.1601H34.204V14.6481H33.8606V11.1601ZM34.4946 11.1601H34.825V14.6481H34.4946V11.1601Z" fill="#23A3C2"/>
<path fill-rule="evenodd" clip-rule="evenodd" d="M20.4244 21.7828C21.062 21.7828 21.579 22.3001 21.579 22.9377C21.579 23.5753 21.062 24.0923 20.4244 24.0923C19.7866 24.0923 19.2695 23.5753 19.2695 22.9377C19.2695 22.2999 19.7866 21.7828 20.4244 21.7828Z" fill="#D3ECEC"/>
<path fill-rule="evenodd" clip-rule="evenodd" d="M20.4237 22.1105C20.5293 22.1105 20.6301 22.1303 20.7232 22.1664C20.6225 22.2247 20.5543 22.3339 20.5543 22.4587C20.5543 22.6452 20.7055 22.796 20.8918 22.796C21.0195 22.796 21.1304 22.7251 21.1879 22.6203C21.2284 22.7179 21.2508 22.8252 21.2508 22.9375C21.2508 23.3942 20.8806 23.7644 20.4237 23.7644C19.9671 23.7644 19.5967 23.3942 19.5967 22.9375C19.5967 22.4807 19.9671 22.1105 20.4237 22.1105Z" fill="#364548"/>
<path fill-rule="evenodd" clip-rule="evenodd" d="M0 19.3898H53.7142C52.5446 19.0931 50.0138 18.6924 50.4311 17.1595C48.3045 19.6205 43.1757 18.8859 41.8815 17.6726C40.44 19.763 32.049 18.9685 31.4637 17.3399C29.6567 19.4606 24.0575 19.4606 22.2505 17.3399C21.6651 18.9685 13.2742 19.763 11.8326 17.6726C10.5383 18.8861 5.40993 19.6205 3.28313 17.1595C3.70067 18.6924 1.16985 19.0933 0 19.3898Z" fill="#364548"/>
<path fill-rule="evenodd" clip-rule="evenodd" d="M23.493 30.1037C20.6333 28.7467 19.0636 26.9021 18.1903 24.8883C17.1282 25.1916 15.8513 25.3853 14.3678 25.4685C13.809 25.4997 13.221 25.5158 12.6041 25.5158C11.8927 25.5158 11.1434 25.4947 10.3564 25.4531C12.9789 28.0739 16.205 30.0919 22.1784 30.1286C22.6196 30.1286 23.0575 30.1202 23.493 30.1037Z" fill="#BDD9D7"/>
<path fill-rule="evenodd" clip-rule="evenodd" d="M19.253 26.7464C18.8575 26.2093 18.4735 25.5343 18.1915 24.8881C17.1292 25.1913 15.8521 25.3852 14.3682 25.4687C15.3874 26.0218 16.8449 26.5344 19.253 26.7464Z" fill="#D3ECEC"/>
</g>
<defs>
<clipPath id="clip0_1_2260">
<rect width="54" height="46" fill="white"/>
</clipPath>
</defs>
</svg>
