<svg width="99" height="36" viewBox="0 0 99 36" fill="none" xmlns="http://www.w3.org/2000/svg">
<g clip-path="url(#clip0_1_2155)">
<path d="M13.812 31.8138L29.0072 16.615H17.9584L8.28931 26.2876L13.812 31.8138Z" fill="#39CEFD"/>
<path d="M0 17.9984L17.9583 0.039917H29.0072L5.52616 23.5246L0 17.9984Z" fill="#39CEFD"/>
<path d="M17.9579 35.9568H29.0068L19.3377 26.2877L13.8115 31.8139L17.9579 35.9568Z" fill="#03569B"/>
<path d="M19.3377 26.2877L13.8115 31.8139L22.0074 28.9747L19.3377 26.2877Z" fill="url(#paint0_linear_1_2155)"/>
<path d="M8.28931 26.2841L13.8155 20.7579L19.3416 26.2841L13.8155 31.8138L8.28931 26.2841Z" fill="#16B9FD"/>
<path d="M29.0072 16.6151L19.3381 26.2877L29.0072 35.9602H17.9583L13.8119 31.8139L8.28577 26.2877L17.9583 16.6151H29.0072ZM17.9583 0.039917L0 17.9984L5.52616 23.5246L29.0072 0.039917C29.0072 0.039917 17.9583 0.039917 17.9583 0.039917Z" fill="url(#paint1_radial_1_2155)"/>
<path d="M32.5049 9.66724H42.1889V11.5121H34.5347V17.2296H41.4514V19.0745H34.5347V26.268H32.5978V9.66724H32.5049Z" fill="#808080"/>
<path d="M44.4941 9.66724H46.431V26.36H44.4941V9.66724Z" fill="#808080"/>
<path d="M53.7173 26.7286C52.2412 26.7286 51.2268 26.2679 50.3973 25.4374C49.6598 24.6069 49.291 23.4087 49.291 21.9326V14.4622H51.2278V21.6557C51.2278 22.762 51.5047 23.5926 51.9654 24.1462C52.519 24.6999 53.1646 24.9767 54.0861 24.9767C54.7317 24.9767 55.3773 24.7918 55.838 24.4231C56.3916 24.0543 56.7604 23.5926 57.0372 23.0399C57.3141 22.4862 57.4979 21.8406 57.4979 21.195V14.4622H59.4347V26.3599H57.5899V24.608H57.4979C57.1292 25.1616 56.6674 25.7143 55.9299 26.0841C55.2853 26.5448 54.5478 26.7286 53.7173 26.7286Z" fill="#808080"/>
<path d="M67.182 26.5448C66.7213 26.5448 66.2595 26.4529 65.7988 26.268C65.4301 26.0831 65.0613 25.8992 64.7845 25.6224C64.5076 25.3455 64.2308 24.9767 64.0469 24.608C63.862 24.2392 63.7701 23.7775 63.7701 23.2248V16.2162H61.6494V14.4642H63.7701V11.1443H65.7069V14.4642H68.5662V16.2162H65.7069V22.6722C65.7069 23.3178 65.7988 23.7785 66.0757 24.1483C66.3525 24.5171 66.8132 24.702 67.3669 24.702C67.8276 24.702 68.2893 24.61 68.6581 24.3332V26.27C68.3813 26.362 68.1974 26.4549 67.9206 26.5469C67.9195 26.5448 67.5508 26.5448 67.182 26.5448Z" fill="#808080"/>
<path d="M75.5743 26.5449C75.1136 26.5449 74.6519 26.453 74.1912 26.2681C73.8224 26.0832 73.4537 25.8993 73.1768 25.6225C72.9 25.3456 72.6232 24.9769 72.4383 24.6081C72.2534 24.2393 72.1614 23.7776 72.1614 23.225V16.2163H70.2246V14.4644H72.3453V11.1444H74.2821V14.4644H77.1414V16.2163H74.2821V22.6723C74.2821 23.3179 74.374 23.7786 74.6509 24.1484C74.9277 24.5172 75.3884 24.7021 75.9421 24.7021C76.4028 24.7021 76.8645 24.6102 77.2333 24.3333V26.2701C76.9565 26.3621 76.7726 26.455 76.4958 26.547C76.3119 26.5449 75.9431 26.5449 75.5743 26.5449Z" fill="#808080"/>
<path d="M84.3362 26.7288C83.2298 26.7288 82.2155 26.452 81.293 25.8983C80.3706 25.3446 79.725 24.6071 79.1723 23.6846C78.7116 22.7622 78.4348 21.6559 78.4348 20.4566C78.4348 19.3503 78.7116 18.243 79.1723 17.3205C79.6331 16.3981 80.3716 15.5686 81.2011 15.015C82.0306 14.4613 83.046 14.1844 84.2442 14.1844C85.4425 14.1844 86.4579 14.4613 87.2873 15.015C88.1178 15.5686 88.7634 16.2142 89.2242 17.1356C89.6849 18.0581 89.9617 19.0724 89.9617 20.2717C89.9617 20.5486 89.9617 20.7324 89.8698 20.9173H80.3706C80.4625 21.8398 80.6474 22.5773 81.0162 23.2229C81.385 23.8685 81.9386 24.3292 82.4923 24.6061C83.1379 24.8829 83.6916 25.0668 84.3372 25.0668C85.9052 25.0668 87.0115 24.3292 87.842 22.9461L89.502 23.7766C88.9483 24.699 88.3027 25.5285 87.3813 26.0822C86.6417 26.453 85.6263 26.7288 84.3362 26.7288ZM87.748 19.1664C87.748 18.7057 87.5631 18.1521 87.2873 17.6903C87.0115 17.2286 86.6417 16.7679 86.0881 16.3991C85.5344 16.0304 84.8888 15.8455 84.0593 15.8455C83.1369 15.8455 82.3074 16.1223 81.6618 16.7679C81.0162 17.3216 80.6474 18.151 80.3706 19.1654H87.748V19.1664Z" fill="#808080"/>
<path d="M92.1739 14.4634H94.0188V16.4002H94.1107C94.3875 15.7546 94.7563 15.2009 95.4938 14.8321C96.1394 14.3714 96.877 14.1865 97.6145 14.1865C98.1682 14.1865 98.6289 14.2785 98.9977 14.4634V16.584C98.537 16.3072 97.9833 16.2153 97.3377 16.2153C96.784 16.2153 96.2314 16.4002 95.7696 16.676C95.3089 17.0447 94.9391 17.4135 94.5704 17.9672C94.2935 18.5209 94.1097 19.0735 94.1097 19.7191V26.359H92.1729V14.4634H92.1739Z" fill="#808080"/>
</g>
<defs>
<linearGradient id="paint0_linear_1_2155" x1="-8098.77" y1="-3443.7" x2="-8098.77" y2="-3443.7" gradientUnits="userSpaceOnUse">
<stop stop-color="#1A237E" stop-opacity="0.4"/>
<stop offset="1" stop-color="#1A237E" stop-opacity="0"/>
</linearGradient>
<radialGradient id="paint1_radial_1_2155" cx="0" cy="0" r="1" gradientUnits="userSpaceOnUse" gradientTransform="translate(-8098.77 -3443.7) scale(1.2603e-07)">
<stop stop-color="white" stop-opacity="0.1"/>
<stop offset="1" stop-color="white" stop-opacity="0"/>
</radialGradient>
<clipPath id="clip0_1_2155">
<rect width="99" height="36" fill="white"/>
</clipPath>
</defs>
</svg>
