<svg width="87" height="47" viewBox="0 0 87 47" fill="none" xmlns="http://www.w3.org/2000/svg">
<g clip-path="url(#clip0_1_2282)">
<path d="M47.979 8.35381H48.9941L51.8873 5.4606L52.0291 4.23174C46.6443 -0.521696 38.4261 -0.00822586 33.6727 5.3767C32.352 6.87124 31.3949 8.65159 30.8713 10.5777C31.1931 10.4458 31.5507 10.4239 31.8864 10.5178L37.6728 9.56264C37.6728 9.56264 37.9666 9.07512 38.1204 9.1051C40.6939 6.27779 45.0258 5.94811 47.999 8.35381H47.979Z" fill="#EA4335"/>
<path d="M56.0092 10.5777C55.3438 8.128 53.9791 5.92612 52.081 4.24365L48.0209 8.30374C49.7352 9.70443 50.7123 11.8164 50.6703 14.0303V14.7516C52.6665 14.7516 54.2849 16.3701 54.2849 18.3661C54.2849 20.3623 52.6664 21.9807 50.6703 21.9807H43.4413L42.72 22.712V27.0478L43.4413 27.7691H50.6703C55.8614 27.809 60.1033 23.6331 60.1433 18.442C60.1672 15.2891 58.6147 12.34 56.0092 10.5777Z" fill="#4285F4"/>
<path d="M36.2019 27.7233H43.4309V21.9367H36.2019C35.6864 21.9367 35.1789 21.8249 34.7094 21.6111L33.6943 21.9268L30.7811 24.82L30.5273 25.8351C32.1597 27.0698 34.1538 27.7332 36.2019 27.7233Z" fill="#34A853"/>
<path d="M36.202 8.9532C31.0089 8.98318 26.8269 13.2171 26.8568 18.4102C26.8749 21.3094 28.2276 24.0388 30.5273 25.8051L34.7193 21.6132C32.901 20.7919 32.0918 18.65 32.913 16.8317C33.7342 15.0135 35.8761 14.2042 37.6944 15.0254C38.4956 15.3871 39.137 16.0304 39.5007 16.8317L43.6927 12.6398C41.9105 10.3059 39.1371 8.94123 36.202 8.9532Z" fill="#FBBC05"/>
<path d="M6.06041 42.5668C4.4576 42.5871 2.91709 41.9545 1.79173 40.8138C0.629404 39.7215 -0.0198757 38.1912 0.000463912 36.596C-0.0186045 35.0009 0.630675 33.4719 1.79173 32.3783C2.91211 31.2262 4.45379 30.5807 6.06041 30.5934C7.59065 30.5731 9.06623 31.1676 10.1547 32.2433L9.00383 33.4146C8.21578 32.6519 7.15653 32.2344 6.06041 32.2497C4.91079 32.2357 3.80705 32.7054 3.02027 33.5432C2.20297 34.3541 1.75222 35.4643 1.77139 36.6152C1.76122 37.7534 2.21187 38.847 3.02027 39.649C4.68547 41.3091 7.37041 41.3409 9.07513 39.7203C9.58309 39.1652 9.89369 38.4573 9.96117 37.7088H6.07948V36.0538H11.5716C11.6251 36.3873 11.6467 36.7246 11.6365 37.0633C11.7053 38.4752 11.1935 39.854 10.2196 40.8801C9.13625 42.0066 7.62381 42.6203 6.06041 42.5668ZM18.8296 41.4669C17.2981 42.9347 14.8817 42.9347 13.3502 41.4669C12.608 40.7475 12.2031 39.7507 12.2312 38.7182C12.2032 37.6858 12.6092 36.6889 13.3502 35.9696C14.8829 34.5056 17.2968 34.5056 18.8296 35.9696C19.5705 36.6889 19.9767 37.6858 19.9486 38.7182C19.9753 39.752 19.5667 40.7488 18.8231 41.4669H18.8296ZM14.5596 40.3873C15.3502 41.2326 16.6768 41.2758 17.5221 40.484C17.5552 40.4522 17.5883 40.4203 17.6188 40.3873C18.0504 39.9404 18.2834 39.3394 18.2656 38.7182C18.2846 38.0957 18.0517 37.491 17.6188 37.0429C16.8054 36.195 15.4584 36.1657 14.6092 36.9792C14.5876 36.9995 14.5659 37.0213 14.5455 37.0429C14.1127 37.491 13.8797 38.0958 13.8988 38.7182C13.8823 39.3396 14.1178 39.9417 14.5519 40.3873C14.552 40.3873 14.5596 40.3873 14.5596 40.3873ZM27.2511 41.4669C25.7196 42.9347 23.3032 42.9347 21.7717 41.4669C21.0295 40.7475 20.6247 39.7507 20.6527 38.7182C20.6248 37.6858 21.0308 36.6889 21.7717 35.9696C23.3032 34.5018 25.7196 34.5018 27.2511 35.9696C27.9921 36.6889 28.3982 37.6858 28.3701 38.7182C28.3995 39.7507 27.9933 40.7475 27.2511 41.4669ZM22.9825 40.3873C23.7731 41.2326 25.0996 41.2758 25.945 40.484C25.978 40.4522 26.0112 40.4203 26.0417 40.3873C26.4733 39.9404 26.7062 39.3394 26.6884 38.7182C26.7075 38.0957 26.4745 37.491 26.0417 37.0429C25.2282 36.195 23.8812 36.1657 23.0333 36.9792C23.0117 36.9995 22.99 37.0213 22.9697 37.0429C22.5368 37.491 22.3038 38.0958 22.3229 38.7182C22.3064 39.3396 22.5419 39.9417 22.976 40.3873C22.9761 40.3873 22.9825 40.3873 22.9825 40.3873ZM32.7878 46.0207C32.0124 46.0449 31.2524 45.803 30.6337 45.3346C30.0849 44.922 29.6521 44.3734 29.3784 43.7432L30.8526 43.1282C31.013 43.5051 31.2639 43.8361 31.5834 44.0919C31.9246 44.3669 32.3536 44.5121 32.7929 44.4994C33.3556 44.5337 33.9055 44.3212 34.3002 43.9176C34.6897 43.4478 34.882 42.8443 34.8374 42.2358V41.6795H34.7788C34.2785 42.2727 33.5287 42.5961 32.7546 42.5528C31.773 42.5553 30.8347 42.1479 30.1677 41.4273C29.4445 40.7131 29.0447 39.7342 29.0614 38.7169C29.0436 37.6946 29.4433 36.7092 30.1677 35.9873C30.8335 35.2642 31.7717 34.853 32.7546 34.8555C33.1659 34.8542 33.5732 34.9459 33.945 35.1204C34.2671 35.2604 34.5535 35.4705 34.7866 35.7353H34.8451V35.1204H36.4492V42.009C36.5345 43.1102 36.1628 44.1987 35.4206 45.0174C34.714 45.6936 33.7656 46.055 32.7878 46.0207ZM32.9049 41.0531C33.4639 41.0658 33.9998 40.8277 34.3664 40.4063C34.7648 39.9493 34.9762 39.3572 34.9546 38.75C34.9787 38.1325 34.7687 37.5304 34.3664 37.0619C33.9998 36.6393 33.4637 36.4025 32.9049 36.4152C32.3308 36.4038 31.7795 36.6393 31.3912 37.0619C30.9634 37.5139 30.7305 38.1161 30.7445 38.7373C30.7318 39.3535 30.9634 39.9493 31.3912 40.3936C31.7769 40.8201 32.3282 41.0607 32.9049 41.0531ZM39.3023 31.0274V42.3338H37.6142V31.0274H39.3023ZM43.9338 42.5668C42.9115 42.5935 41.9248 42.1925 41.2106 41.4605C40.4862 40.7348 40.0902 39.7431 40.117 38.7182C40.0788 37.6909 40.4595 36.6915 41.1712 35.9493C41.8434 35.2414 42.7829 34.8494 43.7581 34.8684C44.2024 34.8633 44.6417 34.9499 45.0516 35.1206C45.4208 35.2695 45.7569 35.4897 46.0409 35.7673C46.2852 36.0028 46.5017 36.2651 46.6876 36.5503C46.8378 36.7908 46.9651 37.0442 47.0695 37.3064L47.2439 37.7469L42.07 39.8755C42.3908 40.6113 43.1305 41.0748 43.9325 41.0404C44.7079 41.0429 45.4272 40.6367 45.8281 39.9735L47.1216 40.8468C46.7918 41.3191 46.3693 41.7201 45.8791 42.0244C45.2986 42.3911 44.6212 42.5795 43.9338 42.5668ZM41.7733 38.6011L45.2146 37.1714C45.1089 36.9192 44.9192 36.7118 44.6774 36.5832C44.4074 36.4305 44.1019 36.3528 43.7913 36.3566C43.2656 36.3706 42.7652 36.5908 42.4011 36.9716C41.9591 37.3943 41.7287 37.9913 41.7733 38.6011Z" fill="#5F6368"/>
<path d="M56.0877 42.5667C53.1443 42.6176 50.7178 40.2725 50.6669 37.3292C50.6656 37.2579 50.6656 37.1854 50.6681 37.1141C50.5994 34.1706 52.9304 31.7301 55.8725 31.6615C55.9438 31.6602 56.0164 31.6602 56.0877 31.6602C57.5593 31.6143 58.9725 32.2433 59.9235 33.3674L58.9916 34.2727C58.2926 33.393 57.2156 32.9003 56.094 32.9461C55.0183 32.922 53.9782 33.3382 53.2156 34.097C52.4224 34.8952 51.9985 35.9875 52.0443 37.1117C51.9972 38.2359 52.4224 39.3282 53.2156 40.1265C53.9782 40.8865 55.0183 41.3015 56.094 41.2773C57.3467 41.2913 58.5371 40.7337 59.3277 39.7636L60.2596 40.6955C59.772 41.2786 59.1597 41.7446 58.4684 42.0603C57.7224 42.4063 56.9088 42.5794 56.0877 42.5667Z" fill="#5F6368"/>
<path d="M62.7622 42.3337H61.4229V31.8866H62.7622V42.3337Z" fill="#5F6368"/>
<path d="M64.9498 36.0459C66.41 34.5959 68.7679 34.5959 70.2281 36.0459C70.9207 36.7779 71.2937 37.7557 71.2631 38.7627C71.2936 39.7698 70.9206 40.7474 70.2281 41.4796C68.7679 42.9296 66.41 42.9296 64.9498 41.4796C64.2572 40.7475 63.8842 39.7698 63.9148 38.7627C63.8842 37.7557 64.2559 36.7779 64.9498 36.0459ZM65.9454 40.6393C66.8022 41.5445 68.2307 41.5839 69.137 40.7271C69.1675 40.6991 69.1969 40.6685 69.2249 40.6393C69.6972 40.1326 69.9467 39.4566 69.9175 38.764C69.948 38.0714 69.6985 37.3954 69.2249 36.8887C68.3681 35.9835 66.9396 35.9441 66.0332 36.8009C66.0027 36.8289 65.9734 36.8595 65.9454 36.8887C65.473 37.3954 65.2236 38.0714 65.2528 38.764C65.2261 39.4553 65.4781 40.1288 65.9518 40.6329L65.9454 40.6393Z" fill="#5F6368"/>
<path d="M78.6814 42.3337H77.3879V41.3445H77.3498C77.1194 41.72 76.7934 42.0281 76.4052 42.2369C76.0028 42.4698 75.5445 42.5933 75.0786 42.5921C74.3122 42.6443 73.5649 42.3439 73.0481 41.7773C72.5579 41.1573 72.3122 40.3795 72.3555 39.5914V35.193H73.6948V39.3458C73.6948 40.6787 74.283 41.3446 75.4605 41.3446C75.9914 41.3611 76.4968 41.1205 76.8189 40.6978C77.1665 40.2586 77.3511 39.7124 77.3434 39.1523V35.193H78.6828V42.3338L78.6814 42.3337Z" fill="#5F6368"/>
<path d="M83.2288 42.5667C82.3096 42.5693 81.435 42.1708 80.8354 41.4731C80.1645 40.7322 79.8055 39.7621 79.8322 38.7627C79.8055 37.7633 80.1645 36.7932 80.8354 36.0522C81.435 35.3558 82.3096 34.9561 83.2288 34.9586C83.738 34.951 84.2409 35.0707 84.6903 35.3075C85.0862 35.5061 85.421 35.8078 85.6604 36.1808H85.7189L85.6604 35.1916V31.8866H86.9997V42.3337H85.7062V41.3444H85.6476C85.4083 41.7174 85.0735 42.0191 84.6776 42.2178C84.232 42.4522 83.7342 42.5731 83.2288 42.5667ZM83.4491 41.3445C84.0614 41.3534 84.6484 41.0989 85.0595 40.6456C85.514 40.1274 85.747 39.4514 85.7062 38.7627C85.747 38.0751 85.514 37.3979 85.0595 36.8798C84.2473 35.9861 82.8647 35.9212 81.9709 36.7346C81.92 36.7805 81.8717 36.8301 81.8258 36.8798C81.3701 37.3941 81.1371 38.0688 81.1791 38.755C81.137 39.4413 81.3701 40.116 81.8258 40.6303C82.2383 41.0938 82.8303 41.3534 83.4491 41.3445Z" fill="#5F6368"/>
</g>
<defs>
<clipPath id="clip0_1_2282">
<rect width="87" height="47" fill="white"/>
</clipPath>
</defs>
</svg>
