<svg width="34" height="62" viewBox="0 0 34 62" fill="none" xmlns="http://www.w3.org/2000/svg">
<g clip-path="url(#clip0_1_1895)">
<path d="M21.2786 0.0170898C22.2515 1.12475 22.5726 2.7086 22.293 4.13717C21.9928 5.74172 21.1026 7.15993 20.057 8.38146C19.2185 9.3649 18.2558 10.2345 17.2516 11.0419C16.0819 11.9839 14.9328 12.9984 14.1977 14.3235C13.5766 15.4001 13.4317 16.7251 13.8561 17.8949C14.5497 19.9032 16.1646 21.3939 17.0445 23.2883C16.0714 22.4291 15.119 21.5388 14.2288 20.5968C13.2971 19.603 12.4172 18.5471 11.8375 17.3048C11.4441 16.4353 11.2681 15.4208 11.5683 14.4995C11.8685 13.5574 12.5414 12.8017 13.2143 12.0978C15.088 10.2241 17.3966 8.8473 19.2288 6.94254C20.2433 5.897 21.0818 4.64441 21.3715 3.20549C21.6098 2.14959 21.4959 1.06264 21.2786 0.0170898Z" fill="#E92E2F" stroke="#E92E2F" stroke-width="0.00971013" stroke-miterlimit="10"/>
<path d="M19.7471 11.808C21.7554 10.3276 24.1053 9.38562 26.4863 8.70239C24.6023 9.90322 22.6354 11.0005 21.0101 12.543C20.4201 13.1123 19.861 13.7645 19.6022 14.5616C19.4055 15.1517 19.4884 15.8038 19.7265 16.3628C20.1612 17.3566 20.8962 18.1641 21.4552 19.075C21.9314 19.8514 22.0142 20.8452 21.6519 21.6837C21.1032 22.9156 20.0265 23.8162 18.9086 24.5305C18.7637 24.6133 18.6395 24.7686 18.4634 24.7893C19.2088 24.1164 19.7886 23.1641 19.7677 22.1392C19.7471 21.3732 19.3227 20.7003 18.8257 20.1516C17.8009 18.9301 16.9417 17.3773 17.1178 15.7314C17.2938 14.0854 18.4738 12.7603 19.7471 11.808Z" fill="#E92E2F" stroke="#E92E2F" stroke-width="0.00971013" stroke-miterlimit="10"/>
<path d="M26.8691 23.7749C27.3038 23.2469 27.9972 23.1124 28.6289 23.0295C29.7262 22.8846 30.8958 23.1641 31.7239 23.9198C32.4074 24.5306 32.7903 25.483 32.6453 26.4043C32.49 27.4705 31.7757 28.3608 30.9684 29.0337C29.5087 30.2034 27.7075 30.8867 25.9062 31.3423C26.0098 31.2282 26.1236 31.1247 26.2582 31.0421C27.6246 30.307 28.9807 29.4479 29.9849 28.247C30.5957 27.5017 31.0719 26.5286 30.8752 25.5452C30.6681 24.4065 29.5606 23.5783 28.4321 23.5162C27.8937 23.4643 27.3867 23.6714 26.8691 23.7749Z" fill="#0774BB" stroke="#0774BB" stroke-width="0.00971013" stroke-miterlimit="10"/>
<path d="M6.06166 24.7169C7.96642 23.8991 10.0368 23.3711 12.1176 23.4022C10.9064 23.7541 9.66414 24.0544 8.52543 24.5927C8.25628 24.7376 7.94572 24.8722 7.79044 25.1517C7.70762 25.369 7.93537 25.514 8.101 25.5864C8.80493 25.8763 9.58133 25.9177 10.337 25.9902C12.9871 26.1661 15.6476 26.0626 18.2873 25.897C20.8959 25.7314 23.4839 25.3794 26.0616 24.9653C25.4923 25.2345 24.9126 25.5036 24.3847 25.8452C24.1154 26.0316 23.7842 26.0833 23.484 26.1558C20.3163 26.8597 17.0659 27.0771 13.836 27.1289C12.5834 27.1392 11.3412 27.1185 10.0989 27.0357C8.71176 26.9425 7.31425 26.839 5.95814 26.4767C5.56477 26.3628 5.15069 26.2386 4.84013 25.9591C4.68485 25.8349 4.68485 25.5864 4.81943 25.4415C5.16104 25.0896 5.63723 24.9239 6.06166 24.7169Z" fill="#0774BB" stroke="#0774BB" stroke-width="0.00971013" stroke-miterlimit="10"/>
<path d="M8.50465 29.1373C9.04295 28.7129 9.68477 28.4748 10.3266 28.2471C10.1196 28.4955 9.8297 28.7336 9.80899 29.0752C9.79864 29.2926 9.97462 29.4582 10.1506 29.5618C10.4922 29.7378 10.8752 29.7999 11.2583 29.8516C13.2458 30.0587 15.2541 30.1725 17.2624 30.038C19.0946 29.9448 20.9167 29.6446 22.7283 29.3237C23.2251 29.7895 23.8153 30.1104 24.4364 30.3899C22.2519 31.0317 20.0057 31.4044 17.7488 31.5804C15.6164 31.7253 13.4528 31.7151 11.3306 31.3734C10.4921 31.2181 9.63291 31.0422 8.86686 30.6487C8.5563 30.4831 8.20434 30.2657 8.11117 29.9034C8.04916 29.5928 8.2769 29.3132 8.50465 29.1373Z" fill="#0774BB" stroke="#0774BB" stroke-width="0.00971013" stroke-miterlimit="10"/>
<path d="M9.70553 33.6505C10.1817 33.2676 10.7718 33.0708 11.3515 32.9053C11.1652 33.0812 10.8339 33.2985 10.9788 33.5988C11.2583 33.9611 11.7759 34.0025 12.19 34.0957C13.9395 34.3131 15.7097 34.4581 17.4591 34.3234C18.7841 34.2407 20.0885 34.0025 21.3825 33.7748C22.1278 34.2095 22.9042 34.5822 23.7012 34.9136C22.4797 35.4621 21.1649 35.8141 19.8503 36.0626C17.635 36.4559 15.3472 36.5076 13.1216 36.1558C12.1381 35.9797 11.134 35.7521 10.2437 35.2653C9.90212 35.0688 9.5398 34.8409 9.39487 34.458C9.2811 34.1579 9.46744 33.8369 9.70553 33.6505Z" fill="#0774BB" stroke="#0774BB" stroke-width="0.00971013" stroke-miterlimit="10"/>
<path d="M3.96011 36.5802C4.91249 36.2593 5.89593 36.0005 6.90007 35.9694C7.30379 35.9591 7.71787 35.9798 8.06984 36.1868C6.86901 36.2594 5.66819 36.5595 4.59158 37.1081C4.35349 37.2428 4.08434 37.3981 3.99117 37.6775C3.99117 37.9984 4.35349 38.1019 4.59158 38.2054C6.09262 38.7644 7.69717 38.9404 9.27066 39.1062C13.9601 39.4994 18.6805 39.3959 23.37 38.9715C25.1402 38.7748 26.9208 38.578 28.6392 38.0916C29.1877 37.9051 29.8088 37.7189 30.1711 37.2322C30.3887 36.9425 30.2437 36.5802 30.0264 36.3317C30.3782 36.5284 30.8752 36.777 30.8028 37.253C30.6681 37.7498 30.1609 38.0086 29.7468 38.2468C28.4219 38.9197 26.9621 39.2614 25.5129 39.5614C21.2997 40.3896 16.983 40.576 12.6973 40.4519C9.46745 40.3378 6.23765 40.0273 3.04925 39.4788C2.47989 39.3441 1.83807 39.2304 1.42399 38.7851C1.15484 38.4746 1.39293 38.0399 1.65173 37.8123C2.3038 37.2116 3.14231 36.8804 3.96011 36.5802Z" fill="#0774BB" stroke="#0774BB" stroke-width="0.00971013" stroke-miterlimit="10"/>
<path d="M29.757 40.1205C30.8028 39.7582 31.9206 39.3753 32.697 38.5471C32.5625 39.4476 31.7861 40.0688 31.02 40.4726C29.55 41.2386 27.9041 41.5907 26.2685 41.8804C22.8109 42.4292 19.3015 42.5637 15.7923 42.5016C13.401 42.4292 10.989 42.3359 8.63912 41.839C8.08012 41.6838 7.47971 41.5802 6.99316 41.2491C9.08426 41.601 11.2064 41.7461 13.3286 41.8288C16.8172 41.9323 20.3161 41.7978 23.784 41.363C25.7923 41.0833 27.8109 40.7416 29.757 40.1205Z" fill="#0774BB" stroke="#0774BB" stroke-width="0.00971013" stroke-miterlimit="10"/>
<path d="M2.47938 55.4726C2.48973 52.077 2.46902 48.6817 2.48973 45.2759C3.19366 45.2965 3.89759 45.2759 4.60153 45.2965C4.59117 49.0957 4.60152 52.9052 4.59117 56.7148C4.57047 57.7809 4.54977 58.899 4.03217 59.8513C3.46281 60.8659 2.44832 61.5802 1.37172 61.9943C1.0301 61.6216 0.719544 61.2282 0.37793 60.8556C1.24749 60.3483 2.11706 59.6237 2.3241 58.5781C2.52078 57.5533 2.45867 56.5077 2.47938 55.4726Z" fill="#E92E2F" stroke="#E92E2F" stroke-width="0.00971013" stroke-miterlimit="10"/>
<path d="M6.55801 49.3649C7.95553 48.7644 9.50832 48.4538 11.0301 48.6194C11.8168 48.7126 12.6346 49.0026 13.1419 49.634C13.5663 50.1722 13.7216 50.8659 13.7112 51.5388C13.7112 53.8576 13.7112 56.166 13.7112 58.4849C13.1936 58.4849 12.676 58.4849 12.1481 58.4849C12.0963 58.1432 12.0445 57.7915 12.0031 57.4394C11.4131 57.9052 10.7816 58.3503 10.0466 58.5367C9.20811 58.7541 8.28679 58.7334 7.46898 58.4126C6.83752 58.1538 6.34062 57.5844 6.16464 56.9219C5.90584 55.9591 6.04042 54.8307 6.72364 54.0543C7.33441 53.3402 8.25573 52.9882 9.1667 52.8226C10.0052 52.6568 10.8644 52.6568 11.7236 52.6568C11.7029 52.0047 11.8272 51.2904 11.4545 50.7107C11.1543 50.2655 10.6056 50.0896 10.0984 50.0585C8.99072 49.9653 7.89342 50.2449 6.84787 50.6072C6.74435 50.193 6.65118 49.779 6.55801 49.3649ZM9.1253 54.1682C8.66981 54.3129 8.24538 54.6444 8.12116 55.1205C7.97623 55.6484 8.01764 56.2695 8.35925 56.7147C8.69052 57.1493 9.29093 57.2529 9.80853 57.1909C10.5332 57.1079 11.1646 56.6939 11.7236 56.2488C11.7236 55.4724 11.7133 54.7064 11.7236 53.93C10.8541 53.9301 9.9638 53.8783 9.1253 54.1682Z" fill="#E92E2F" stroke="#E92E2F" stroke-width="0.00971013" stroke-miterlimit="10"/>
<path d="M24.7572 49.365C26.1651 48.7644 27.7178 48.4436 29.2499 48.6195C30.0158 48.7127 30.8027 48.9924 31.3098 49.5926C31.7862 50.162 31.9309 50.9178 31.9205 51.6424C31.9102 53.9302 31.9309 56.2076 31.8999 58.4953C31.3823 58.4747 30.8647 58.5056 30.3471 58.4747C30.2954 58.1227 30.254 57.781 30.1919 57.4395C29.4672 58.0606 28.5977 58.5679 27.6142 58.6506C26.7137 58.7335 25.6991 58.6196 24.9951 57.9777C24.2601 57.2945 24.136 56.1869 24.3222 55.2448C24.4983 54.3754 25.1504 53.661 25.9373 53.2779C27.169 52.6776 28.5771 52.6464 29.9228 52.6568C29.902 52.0253 30.0158 51.3524 29.695 50.7831C29.4465 50.3276 28.9186 50.1206 28.4218 50.0688C27.2725 49.9447 26.1235 50.2346 25.0468 50.6072C24.954 50.1931 24.8505 49.779 24.7572 49.365ZM27.2934 54.1786C26.8585 54.3236 26.4549 54.6548 26.3203 55.1103C26.1754 55.6383 26.2168 56.2594 26.548 56.7149C26.8897 57.1599 27.5005 57.253 28.0284 57.191C28.7427 57.0875 29.3948 56.694 29.9332 56.218C29.9124 55.4624 29.9228 54.6963 29.9228 53.9302C29.043 53.9302 28.1423 53.8784 27.2934 54.1786Z" fill="#E92E2F" stroke="#E92E2F" stroke-width="0.00971013" stroke-miterlimit="10"/>
<path d="M14.8918 48.7439C15.6165 48.7439 16.3411 48.7439 17.0658 48.7439C17.4901 50.1103 17.9042 51.4664 18.3288 52.8329C18.577 53.6714 18.8876 54.4996 19.0638 55.3588C19.157 55.7417 19.2397 56.1352 19.3535 56.5079C20.244 53.9922 20.9271 51.394 21.2792 48.7439C21.983 48.7439 22.6871 48.7439 23.3908 48.7439C22.7802 52.0979 21.8174 55.4001 20.3681 58.4851C19.54 58.4851 18.7118 58.4851 17.8837 58.4851C16.8898 55.2345 15.8856 51.9944 14.8918 48.7439Z" fill="#E92E2F" stroke="#E92E2F" stroke-width="0.00971013" stroke-miterlimit="10"/>
<path d="M32.3338 48.5555H32.0793V48.4636H32.6988V48.5555H32.443V49.3005H32.3337V48.5555H32.3338Z" fill="#E92E2F" stroke="#E92E2F" stroke-width="0.00971013" stroke-miterlimit="10"/>
<path d="M33.4972 48.9331C33.491 48.8163 33.4835 48.6748 33.4835 48.5718H33.4811C33.4513 48.6687 33.4178 48.7742 33.3757 48.8896L33.2279 49.2956H33.146L33.0094 48.8971C32.9697 48.7779 32.9374 48.671 32.9138 48.5717H32.9113C32.9089 48.676 32.9026 48.8151 32.8952 48.9417L32.8729 49.3005H32.7698L32.8282 48.4636H32.9659L33.1087 48.8684C33.1435 48.9714 33.1708 49.0633 33.1931 49.1503H33.1956C33.2179 49.0659 33.2477 48.974 33.2849 48.8684L33.434 48.4636H33.5717L33.6239 49.3005H33.5172L33.4972 48.9331Z" fill="#E92E2F" stroke="#E92E2F" stroke-width="0.00971013" stroke-miterlimit="10"/>
</g>
<defs>
<clipPath id="clip0_1_1895">
<rect width="34" height="62" fill="white"/>
</clipPath>
</defs>
</svg>
