<svg width="71" height="48" viewBox="0 0 71 48" fill="none" xmlns="http://www.w3.org/2000/svg">
<path d="M44.9336 15.1859C44.9336 20.5148 40.7102 24.8346 35.5001 24.8346C30.2903 24.8346 26.0669 20.5148 26.0669 15.1859C26.0669 9.85708 30.2903 5.53699 35.5001 5.53699C40.7099 5.53671 44.9336 9.85708 44.9336 15.1859Z" fill="#D33833"/>
<path d="M26.4516 17.576C26.4516 17.576 25.7686 7.51386 35.0402 7.22631L34.3932 6.14819L29.362 7.83718L27.9243 9.49039L26.6665 11.8984L25.9478 14.7015L26.1632 16.5702" fill="#EF3D3A"/>
<path d="M29.0394 8.60369C27.3842 10.2973 26.3602 12.6351 26.3602 15.222C26.3602 17.8083 27.3842 20.1464 29.0394 21.8398C30.6953 23.5329 32.9771 24.5777 35.5001 24.5777C38.0231 24.5777 40.3052 23.5329 41.9609 21.8398C43.616 20.1467 44.64 17.8083 44.64 15.222C44.64 12.6354 43.6154 10.297 41.9609 8.60369C40.3052 6.91088 38.0231 5.86608 35.5001 5.86581C32.9774 5.86608 30.695 6.91088 29.0394 8.60369ZM28.6205 22.2491C26.8613 20.4504 25.7742 17.964 25.7742 15.2217C25.7742 12.4789 26.8616 9.99311 28.6205 8.19407C30.3788 6.39476 32.8133 5.27951 35.5001 5.27979C38.1872 5.27951 40.6217 6.39476 42.3798 8.19407C44.1389 9.99311 45.2263 12.4792 45.2263 15.2217C45.2266 17.964 44.1389 20.4501 42.3798 22.2491C40.6217 24.0484 38.1869 25.1634 35.5001 25.1634C32.813 25.164 30.3791 24.0487 28.6205 22.2491Z" fill="#231F20"/>
<path d="M39.4709 15.2396L38.0334 15.4551L36.0926 15.6711L34.8351 15.7066L33.6133 15.6711L32.6789 15.3832L31.8523 14.4848L31.2053 12.6519L31.0617 12.2568L30.199 11.9695L29.696 11.1429L29.3367 9.95691L29.7321 8.91484L30.6666 8.59124L31.4208 8.95089L31.7804 9.74145L32.2116 9.66935L32.3553 9.48967L32.2116 8.66306L32.1756 7.621L32.391 6.18351L32.3829 5.36237L33.0382 4.31484L34.1879 3.48823L36.2005 2.62585L38.4285 2.94945L40.369 4.35089L41.2677 5.7881L41.8426 6.83071L41.9862 9.41785L41.5553 11.6462L40.7644 13.6222L40.0096 14.6648" fill="#F0D6B7"/>
<path d="M38.2492 21.4564L33.1101 21.6718V22.5345L33.5416 25.5531L33.3256 25.8049L29.7322 24.5829L29.4804 24.1517L29.121 20.091L28.2949 17.6469L28.115 17.0721L30.99 15.0958L31.8884 14.7362L32.6789 15.7065L33.3616 16.3176L34.1522 16.5688L34.5113 16.6767L34.9428 18.5454L35.2661 18.9411L36.0927 18.6532L35.5176 19.7677L38.6443 21.2407L38.2492 21.4564Z" fill="#335061"/>
<path d="M29.7325 8.91473L30.667 8.59113L31.4213 8.95078L31.7809 9.74134L32.2121 9.66924L32.3197 9.23805L32.1042 8.41145L32.3197 6.43491L32.1403 5.3568L32.7872 4.60228L34.1883 3.48812L33.7932 2.94934L31.8169 3.91959L30.9903 4.56624L30.5228 5.57253L29.8044 6.54277L29.5886 7.69271L29.7325 8.91473Z" fill="#6D6B6D"/>
<path d="M31.2057 5.53652C31.2057 5.53652 31.7448 4.2069 33.901 3.55998C36.0572 2.91306 34.0088 3.09274 34.0088 3.09274L31.6732 3.99117L30.7748 4.88959L30.3796 5.60834L31.2057 5.53652Z" fill="#DCD9D8"/>
<path d="M30.128 8.66297C30.128 8.66297 29.3732 6.14737 32.2481 5.788L32.1403 5.35681L30.1637 5.82405L29.5886 7.69272L29.7323 8.91447L30.128 8.66297Z" fill="#DCD9D8"/>
<path d="M31.2771 12.0052L31.7476 11.5492C31.7476 11.5492 31.9601 11.5738 31.9958 11.8253C32.0319 12.0771 32.1395 14.3409 33.6846 15.5626C33.8255 15.6743 32.5346 15.3827 32.5346 15.3827L31.3847 13.5858" fill="#F7E4CD"/>
<path d="M37.8902 11.3225C37.8902 11.3225 37.974 10.2331 38.2673 10.317C38.5606 10.4008 38.5606 10.6941 38.5606 10.6941C38.5606 10.6941 37.8484 11.1551 37.8902 11.3225Z" fill="#F7E4CD"/>
<path d="M40.8724 7.33337C40.8724 7.33337 40.2798 7.45844 40.2254 7.9803C40.1708 8.50215 40.8724 8.08816 40.9802 8.05212" fill="#F7E4CD"/>
<path d="M36.5247 7.36951C36.5247 7.36951 35.7341 7.47737 35.7341 7.98011C35.7341 8.48339 36.6326 8.44735 36.8841 8.23161" fill="#F7E4CD"/>
<path d="M31.6374 9.70527C31.6374 9.70527 30.2718 8.87867 30.1278 9.66923C29.9842 10.4598 29.6606 11.0349 30.3433 11.8612L29.8763 11.7176L29.4452 10.6037L29.3015 9.52559L30.1281 8.66321L31.0626 8.73503L31.6016 9.16622L31.6374 9.70527Z" fill="#F7E4CD"/>
<path d="M32.2837 7.44127C32.2837 7.44127 32.8949 4.27903 35.9853 3.66788C38.5296 3.16487 39.8666 3.77574 40.3693 4.35084C40.3693 4.35084 38.1055 1.65584 35.949 2.48217C33.7928 3.30878 32.2116 4.81781 32.2474 5.78833C32.3089 7.44072 32.2837 7.44127 32.2837 7.44127Z" fill="#F7E4CD"/>
<path d="M40.6208 4.70978C40.6208 4.70978 39.5788 4.67373 39.5427 5.60821C39.5427 5.60821 39.5427 5.75185 39.6145 5.89548C39.6145 5.89548 40.4412 4.96101 40.9444 5.46429" fill="#F7E4CD"/>
<path d="M36.0576 5.99306C36.0576 5.99306 35.8782 4.55885 34.6556 5.39283C33.8651 5.93161 33.9369 6.6864 34.0805 6.83004C34.2242 6.97368 34.1851 7.26341 34.2946 7.06461C34.4041 6.86581 34.3681 6.21916 34.7632 6.03948C35.1587 5.86007 35.8067 5.65935 36.0576 5.99306Z" fill="#F7E4CD"/>
<path d="M32.6792 15.7065L29.3012 17.2161C29.3012 17.2161 30.7027 22.7863 29.9839 24.5114L29.4809 24.3317L29.4449 22.2115L28.5104 18.1866L28.115 17.0727L31.6366 14.701L32.6792 15.7065Z" fill="#49728B"/>
<path d="M33.0266 18.7876L33.5058 19.3723V21.5285H32.9307C32.9307 21.5285 32.8589 20.0189 32.8589 19.8395C32.8589 19.6598 32.9307 19.0129 32.9307 19.0129" fill="#49728B"/>
<path d="M33.0391 21.8519L31.4216 21.9237L31.8891 22.2471L33.0391 22.4268" fill="#49728B"/>
<path d="M38.5728 21.4922L39.9024 21.4564L40.2257 24.7628L38.86 24.9423L38.5728 21.4922Z" fill="#335061"/>
<path d="M38.9321 21.4922L40.9444 21.3843C40.9444 21.3843 41.7711 19.2999 41.7711 19.1923C41.7711 19.0845 42.4898 16.1737 42.4898 16.1737L40.8726 14.485L40.5493 14.1978L39.6869 15.0601V18.4021L38.9321 21.4922Z" fill="#335061"/>
<path d="M39.8306 21.2407L38.5728 21.4922L38.7524 22.4985C39.2194 22.714 40.0102 22.1389 40.0102 22.1389" fill="#49728B"/>
<path d="M39.866 14.9519L42.3818 16.8208L42.4537 15.9582L40.5489 14.1974L39.866 14.9519Z" fill="#49728B"/>
<path d="M34.2852 28.5722L33.5416 25.553L33.1713 23.3252L33.1101 21.6717L36.4774 21.4926L38.5725 21.4921L38.3819 25.2657L38.7055 28.1767L38.6694 28.7158L35.9384 28.9315L34.2852 28.5722Z" fill="white"/>
<path d="M38.1053 21.4564C38.1053 21.4564 37.9256 25.1937 38.4649 27.8529C38.4649 27.8529 37.3868 28.5359 35.8054 28.7153L38.824 28.6075L39.1834 28.392L38.7522 22.4984L38.6443 21.2404" fill="#DCD9D8"/>
<path d="M40.2869 24.4756L41.6883 24.0802L44.3475 23.9365L44.7427 22.7148L44.0239 20.5946L43.1976 20.4865L42.0474 20.8461L40.9442 21.3846L40.3587 21.277L39.9021 21.4564" fill="white"/>
<path d="M40.2615 23.7566C40.2615 23.7566 41.1959 23.3254 41.3396 23.3614L40.9444 21.3849L41.4114 21.2052C41.4114 21.2052 41.7347 23.0739 41.7347 23.2896C41.7347 23.2896 43.747 23.3975 43.9267 23.3975C43.9267 23.3975 44.3579 22.5709 44.2501 21.7085L44.6452 22.8584L44.6812 23.5053L44.1064 24.3677L43.4595 24.5114L42.3814 24.4753L42.022 24.0083L40.7642 24.188L40.3688 24.3317" fill="#DCD9D8"/>
<path d="M38.8493 21.2052L38.0588 19.1929L37.2322 18.0072C37.2322 18.0072 37.4119 17.5039 37.6634 17.5039C37.9149 17.5039 38.49 17.5039 38.49 17.5039L39.2805 17.7912L39.2087 19.1208L38.8493 21.2052Z" fill="white"/>
<path d="M39.0036 20.522C39.0036 20.522 37.9973 18.5815 37.9973 18.294C37.9973 18.294 38.1769 17.8628 38.4285 17.9706C38.68 18.0785 39.219 18.3658 39.219 18.3658V17.6828L37.9973 17.431L37.1707 17.5389L38.5721 20.8451L38.8594 20.8811" fill="#DCD9D8"/>
<path d="M34.609 15.7789L33.6137 15.671L32.6792 15.3832V15.7065L33.1355 16.2101L34.5733 16.857" fill="white"/>
<path d="M33.0024 15.8867C33.0024 15.8867 34.1163 16.354 34.476 16.2464L34.5115 16.6773L33.5054 16.4621L32.8943 16.0309L33.0024 15.8867Z" fill="#DCD9D8"/>
<path d="M40.2835 17.6262C39.6738 17.6082 39.123 17.5359 38.6404 17.3999C38.6732 17.2022 38.6118 17.0083 38.6612 16.8657C38.7958 16.7691 39.0211 16.7704 39.2243 16.7475C39.0484 16.6612 38.8015 16.6271 38.5986 16.677C38.594 16.5399 38.5326 16.4547 38.4949 16.3474C38.8379 16.2251 39.647 15.4228 40.1025 15.6885C40.3193 15.8149 40.4116 16.5364 40.4283 16.8876C40.4427 17.1784 40.4023 17.472 40.2835 17.6262Z" fill="#D33833"/>
<path d="M40.2827 17.6263L40.2851 17.54C39.6808 17.5223 39.1366 17.4505 38.6631 17.3169L38.6398 17.3999L38.7251 17.4141C38.7335 17.3617 38.7365 17.3112 38.7365 17.2628C38.7365 17.1692 38.7267 17.084 38.727 17.0135C38.727 16.9649 38.7313 16.9248 38.7425 16.8936L38.6609 16.8652L38.7114 16.9352C38.7592 16.9002 38.8365 16.8773 38.9296 16.8636C39.0222 16.8497 39.1287 16.8445 39.2338 16.8328L39.5271 16.8L39.2619 16.6697C39.1276 16.6039 38.9634 16.5673 38.7999 16.567C38.7245 16.567 38.6497 16.575 38.5776 16.5924L38.5981 16.6763L38.6844 16.6735C38.6819 16.5924 38.6614 16.525 38.6388 16.4687C38.6161 16.4119 38.5921 16.365 38.576 16.3188L38.4946 16.3472L38.5235 16.4286C38.6117 16.3964 38.7089 16.3363 38.8195 16.2634C38.9847 16.1544 39.1759 16.0162 39.3665 15.907C39.5566 15.797 39.7458 15.7194 39.8911 15.7208C39.9547 15.7208 40.0091 15.7339 40.0585 15.7626C40.0713 15.7699 40.0891 15.7858 40.1074 15.8117C40.1399 15.8568 40.1732 15.9297 40.2013 16.0168C40.2871 16.2792 40.331 16.667 40.3417 16.8909C40.3433 16.9259 40.3441 16.9611 40.3441 16.9961C40.3441 17.1176 40.3335 17.2358 40.3114 17.3366C40.2892 17.4376 40.2548 17.5209 40.2147 17.5728L40.2827 17.6263L40.2851 17.54L40.2827 17.6263L40.351 17.679C40.4143 17.596 40.4536 17.4911 40.4796 17.3745C40.505 17.2577 40.5164 17.1285 40.5164 16.9966C40.5164 16.9589 40.5156 16.921 40.5137 16.8833C40.505 16.7033 40.4774 16.4324 40.4239 16.1853C40.3968 16.0619 40.3638 15.9442 40.3209 15.8453C40.2996 15.7959 40.2756 15.7508 40.2475 15.7115C40.2191 15.6724 40.1866 15.638 40.1451 15.6137C40.0664 15.5679 39.9788 15.5482 39.8911 15.5485C39.7562 15.5487 39.6194 15.5913 39.4834 15.6528C39.2794 15.7451 39.0757 15.8819 38.8949 16.0045C38.8048 16.0657 38.7207 16.1233 38.6469 16.1697C38.5735 16.2161 38.5093 16.2508 38.4651 16.2664L38.3845 16.2951L38.4127 16.3756C38.434 16.4368 38.4596 16.4859 38.4779 16.5329C38.4965 16.5799 38.5093 16.6236 38.5112 16.6801L38.5151 16.7863L38.618 16.7609C38.674 16.747 38.736 16.7404 38.7988 16.7404C38.9356 16.7402 39.0784 16.7729 39.1844 16.8251L39.2226 16.7475L39.213 16.6618C39.115 16.6727 39.0069 16.6782 38.9026 16.6932C38.7982 16.709 38.6956 16.7336 38.6093 16.7953L38.5871 16.8115L38.5784 16.8374C38.5582 16.8961 38.5538 16.9554 38.5536 17.0135C38.5538 17.0976 38.5634 17.1812 38.5631 17.2628C38.5631 17.3046 38.5607 17.3461 38.5541 17.386L38.5415 17.4622L38.6158 17.4829C39.1071 17.6217 39.6644 17.6943 40.2797 17.7126L40.3239 17.714L40.3507 17.679L40.2827 17.6263Z" fill="#D33833"/>
<path d="M37.3671 16.6291C37.3655 16.675 37.3636 16.7217 37.3617 16.7684C37.1713 16.8935 36.8641 16.8918 36.6552 16.9973C36.963 17.0109 37.2057 17.0849 37.4157 17.1895C37.4111 17.3058 37.4067 17.4216 37.4021 17.5379C37.0534 17.7769 36.7344 18.1327 36.3234 18.3566C36.1293 18.4626 35.4474 18.7351 35.2407 18.6868C35.1238 18.6598 35.1132 18.5145 35.0665 18.3777C34.9668 18.0849 34.7374 17.6185 34.7177 17.1778C34.6923 16.621 34.6361 15.6876 35.236 15.8023C35.7202 15.8946 36.2836 16.1177 36.6582 16.3225C36.8871 16.4475 37.0195 16.6027 37.3671 16.6291Z" fill="#D33833"/>
<path d="M37.3672 16.6292L37.2812 16.626C37.2795 16.6716 37.2776 16.718 37.2757 16.765L37.3617 16.7685L37.3145 16.6964C37.2375 16.7475 37.1222 16.7783 36.9966 16.8062C36.8713 16.8346 36.7364 16.8603 36.6165 16.9203L36.321 17.0692L36.6517 17.0836C36.948 17.0968 37.1769 17.1672 37.377 17.2666L37.4155 17.1893L37.3295 17.1858C37.3249 17.3021 37.3205 17.4184 37.3159 17.5342L37.4019 17.5378L37.353 17.4665C37.1722 17.5905 37.0035 17.7409 36.8303 17.8865C36.6569 18.0323 36.4789 18.1732 36.282 18.2808C36.2003 18.3256 36.0081 18.4097 35.8107 18.4799C35.7113 18.5151 35.6102 18.5473 35.5198 18.5703C35.4297 18.5932 35.3494 18.6066 35.2989 18.6066C35.2817 18.6066 35.268 18.605 35.2601 18.6031C35.2473 18.5995 35.2421 18.5965 35.2336 18.588C35.2214 18.5757 35.2066 18.5457 35.1932 18.5028C35.1796 18.4602 35.167 18.4067 35.1479 18.3502C35.0963 18.1983 35.0144 18.0099 34.9434 17.8051C34.8724 17.6006 34.8126 17.381 34.8035 17.174C34.7973 17.0389 34.7893 16.8829 34.7893 16.7267C34.7891 16.5014 34.8071 16.2745 34.8639 16.1164C34.892 16.0372 34.9292 15.9769 34.9726 15.9384C35.0163 15.9001 35.0654 15.8794 35.1397 15.8788C35.1637 15.8788 35.1905 15.8813 35.2197 15.887C35.691 15.9766 36.2506 16.1978 36.6168 16.3982C36.7244 16.4564 36.8139 16.5263 36.927 16.5886C37.0395 16.6505 37.1752 16.7013 37.3609 16.7153L37.3672 16.6292L37.2812 16.626L37.3672 16.6292L37.3737 16.5432C37.2118 16.5304 37.1075 16.4902 37.0095 16.437C36.912 16.3837 36.821 16.3136 36.699 16.2467C36.3156 16.0375 35.7487 15.8125 35.2517 15.7172C35.2129 15.7095 35.1755 15.7057 35.1392 15.7057C35.0283 15.7051 34.9303 15.7434 34.8576 15.8086C34.7484 15.907 34.6924 16.0514 34.6588 16.2112C34.6258 16.3712 34.6165 16.5506 34.6162 16.7262C34.6162 16.8878 34.6244 17.0462 34.6304 17.1811C34.6411 17.4149 34.7061 17.6489 34.7798 17.8611C34.8532 18.0727 34.936 18.2642 34.984 18.4051C35.0053 18.4668 35.0193 18.5372 35.0463 18.6052C35.0602 18.6394 35.0783 18.6735 35.1064 18.7041C35.1345 18.7347 35.1744 18.7598 35.2203 18.7699C35.2454 18.7759 35.2711 18.7778 35.2981 18.7778C35.3745 18.7775 35.4636 18.7612 35.5616 18.7363C35.7083 18.6992 35.8724 18.6421 36.0185 18.585C36.1646 18.5277 36.2907 18.4709 36.3639 18.4313C36.578 18.3144 36.7648 18.1656 36.9406 18.0178C37.1165 17.8701 37.282 17.7232 37.4499 17.6082L37.486 17.5837L37.4876 17.5402C37.492 17.4239 37.4964 17.3081 37.5013 17.1918L37.5035 17.1361L37.4538 17.1112C37.2348 17.002 36.9786 16.9236 36.6586 16.9102L36.6547 16.9963L36.6935 17.0733C36.7828 17.0279 36.906 17.0017 37.0338 16.9733C37.1618 16.9444 37.2951 16.9135 37.4087 16.8395L37.4458 16.8152L37.4478 16.7707C37.4497 16.7243 37.4516 16.6779 37.4532 16.6312L37.4559 16.5487L37.3735 16.5424L37.3672 16.6292Z" fill="#D33833"/>
<path d="M37.7133 17.2938C37.6601 16.9904 37.5986 16.9041 37.6221 16.6392C38.4315 16.0996 38.5833 17.5658 37.7133 17.2938Z" fill="#D33833"/>
<path d="M37.714 17.2938L37.7992 17.2791C37.776 17.1469 37.7508 17.0541 37.7334 16.976C37.7153 16.8973 37.7044 16.8345 37.7044 16.7493C37.7044 16.7187 37.706 16.6851 37.7093 16.6472L37.6233 16.6393L37.6711 16.7111C37.7891 16.6327 37.8841 16.6051 37.9556 16.6051C37.9988 16.6051 38.034 16.6147 38.0646 16.6303C38.1105 16.654 38.1479 16.6936 38.1744 16.7455C38.2009 16.7971 38.2153 16.8602 38.2153 16.9233C38.2153 17.0074 38.1894 17.089 38.1416 17.1458C38.093 17.2024 38.0264 17.2403 37.9166 17.2414C37.8666 17.2414 37.8079 17.2327 37.7399 17.2114L37.714 17.2938L37.7992 17.2791L37.714 17.2938L37.688 17.376C37.7699 17.4014 37.8461 17.4137 37.916 17.4137C38.0698 17.4145 38.1949 17.3517 38.2735 17.2564C38.3521 17.1617 38.3874 17.0412 38.3874 16.9233C38.3871 16.805 38.3527 16.6865 38.2806 16.5923C38.2443 16.5453 38.1987 16.5049 38.1432 16.4765C38.0881 16.4481 38.0242 16.432 37.9551 16.432C37.8393 16.432 37.7123 16.4752 37.575 16.5669L37.5406 16.5898L37.5367 16.6308C37.5329 16.6734 37.531 16.7122 37.531 16.7482C37.531 16.8493 37.5455 16.9304 37.5643 17.0134C37.5832 17.0967 37.6066 17.183 37.6285 17.308L37.6375 17.3597L37.6875 17.3755L37.714 17.2938Z" fill="#D33833"/>
<path d="M38.8857 17.5399C38.8857 17.5399 38.6342 17.1802 38.8139 17.0727C38.9936 16.9648 39.1736 17.0727 39.2812 16.893C39.389 16.7133 39.2812 16.6057 39.3172 16.3897C39.3532 16.1742 39.5329 16.1379 39.7126 16.1024C39.8923 16.0664 40.3956 15.9945 40.4674 16.1742L40.2519 15.5273L39.8208 15.3837L38.4554 16.1742L38.3835 16.5694V17.3599" fill="#EF3D3A"/>
<path d="M35.1118 18.7257C35.0686 18.1648 35.023 17.6047 34.9722 17.0444C34.8963 16.2077 35.1732 16.3535 35.8985 16.3535C36.0094 16.3535 36.5804 16.4856 36.6214 16.5689C36.8174 16.9693 36.2937 16.8802 36.8469 17.1823C37.3142 17.4368 38.1397 17.0274 37.9507 16.4613C37.845 16.3352 37.4002 16.422 37.2407 16.3393C36.96 16.1937 36.6793 16.0482 36.3983 15.9026C36.0413 15.7172 35.2156 15.4471 34.8346 15.706C33.8696 16.3622 34.8955 18.002 35.2399 18.6864" fill="#EF3D3A"/>
<path d="M36.058 5.99317C35.0785 5.76515 34.5916 6.40306 34.2947 7.065C34.0296 7.00083 34.135 6.64009 34.2022 6.45658C34.3775 5.97433 35.0839 5.33287 35.6612 5.41971C35.91 5.45685 36.2462 5.68405 36.058 5.99317Z" fill="#231F20"/>
<path d="M40.8305 7.10876C40.8461 7.10931 40.8616 7.11013 40.8772 7.11068C41.0984 7.57054 41.2901 8.05771 41.5692 8.4635C41.3821 8.89906 40.1527 9.28465 40.1719 8.50255C40.4378 8.38622 40.8966 8.4788 41.1323 8.33052C40.996 7.95613 40.7994 7.63772 40.8305 7.10876Z" fill="#231F20"/>
<path d="M36.5591 7.12061C36.7691 7.50565 36.8374 7.91007 37.1361 8.20118C37.2707 8.33225 37.5318 8.49173 37.4024 8.85602C37.3721 8.94204 37.1509 9.13374 37.0231 9.17115C36.5564 9.30878 35.4687 9.19955 35.8374 8.61789C36.2235 8.63592 36.7421 8.8683 37.0307 8.5884C36.8087 8.23394 36.4138 7.5335 36.5591 7.12061Z" fill="#231F20"/>
<path d="M40.6551 11.0332C39.9525 11.4846 39.169 11.9753 38.0175 11.8617C37.7714 11.6476 37.6778 11.1719 37.9167 10.8573C38.0412 11.0714 37.9631 11.4647 38.3097 11.5239C38.9629 11.6359 39.7234 11.1244 40.1931 10.9455C40.4845 10.4543 40.168 10.2738 39.9053 9.95728C39.3678 9.30926 38.6469 8.50641 38.6731 7.53671C38.8902 7.37915 38.9091 7.77702 38.9405 7.84966C39.2209 8.50641 39.9274 9.3464 40.4427 9.9084C40.5694 10.0468 40.7777 10.1798 40.8009 10.271C40.8679 10.5376 40.6273 10.8565 40.6551 11.0332Z" fill="#231F20"/>
<path d="M31.3906 10.5582C31.1702 10.4326 31.118 9.87879 30.8592 9.86296C30.4894 9.84056 30.5569 10.5812 30.5585 11.0145C30.3043 10.7835 30.2595 10.0727 30.4463 9.7073C30.2333 9.60271 30.138 9.82254 30.0203 9.9001C30.1721 8.79768 31.6336 9.38917 31.3906 10.5582Z" fill="#231F20"/>
<path d="M41.1019 11.4928C40.7747 12.1154 40.3122 12.8008 39.3523 12.821C39.3326 12.6201 39.3179 12.3139 39.3531 12.193C40.0869 12.1225 40.5402 11.7489 41.1019 11.4928Z" fill="#231F20"/>
<path d="M36.5037 11.8964C37.1159 12.2183 38.241 12.2527 39.0731 12.2284C39.1178 12.4108 39.1165 12.6359 39.1184 12.8584C38.0487 12.9117 36.7841 12.6471 36.5037 11.8964Z" fill="#231F20"/>
<path d="M36.3873 12.4965C36.8106 13.5593 38.2655 13.4372 39.4925 13.4074C39.4387 13.5454 39.3213 13.7084 39.1757 13.7674C38.7825 13.9274 37.6981 14.0489 37.1522 13.7589C36.8059 13.5748 36.5837 13.1589 36.3939 12.9154C36.3029 12.7982 35.8466 12.4976 36.3873 12.4965Z" fill="#231F20"/>
<path d="M40.6039 18.3594C40.1072 19.2103 39.6318 20.0842 39.0425 20.8349C39.2896 20.1085 39.3953 18.8925 39.4327 17.9654C39.9494 17.7234 40.392 18.0197 40.6039 18.3594Z" fill="#81B0C4"/>
<path d="M43.2775 21.4176C42.7212 21.5287 42.3304 22.0697 41.7878 22.035C42.086 21.6145 42.6084 21.4375 43.2775 21.4176Z" fill="#231F20"/>
<path d="M43.5223 22.2879C43.0687 22.3356 42.5365 22.4091 42.0769 22.3714C42.2945 22.0391 43.1329 22.1538 43.5223 22.2879Z" fill="#231F20"/>
<path d="M43.6797 23.0387C43.1702 23.0496 42.5372 23.0395 42.0527 22.9991C42.3389 22.691 43.349 22.8846 43.6797 23.0387Z" fill="#231F20"/>
<path d="M39.6448 25.0924C39.7179 25.7322 39.9716 26.3808 39.9397 27.0815C39.6579 27.1762 39.4962 27.2595 39.1188 27.259C39.0923 26.6634 39.0126 25.7529 39.0363 25.1855C39.2218 25.1972 39.4957 25.0522 39.6448 25.0924Z" fill="#DCD9D8"/>
<path d="M38.8241 15.662C38.5683 15.8291 38.3506 16.0377 38.1046 16.2158C37.5598 16.2428 37.2621 16.1781 36.8621 15.8652C36.8686 15.84 36.909 15.8512 36.9104 15.8204C37.494 16.0806 38.2351 15.7147 38.8241 15.662Z" fill="#F0D6B7"/>
<path d="M35.7615 19.6377C35.9218 18.9435 36.5496 18.5836 37.1198 18.2013C37.7085 18.9482 38.066 19.9086 38.4603 20.8357C37.5294 20.555 36.5777 20.0995 35.7615 19.6377Z" fill="#81B0C4"/>
<path d="M39.0368 25.185C39.0127 25.753 39.0925 26.6632 39.1193 27.2585C39.4966 27.259 39.6583 27.176 39.9401 27.081C39.9721 26.3803 39.7184 25.732 39.6452 25.0919C39.4961 25.0523 39.2222 25.1973 39.0368 25.185ZM33.1596 21.9564C33.4086 24.2445 33.7691 26.1678 34.4302 28.1938C35.8977 28.6394 37.6667 28.6782 38.9636 28.276C38.7255 27.1323 38.8292 25.7402 38.6902 24.5201C38.5854 23.6028 38.6389 22.6801 38.495 21.7439C36.9234 21.4173 34.7022 21.6678 33.1596 21.9564ZM38.8667 21.7584C38.8535 22.741 38.9109 23.7104 38.9857 24.6943C39.3628 24.6375 39.6193 24.5998 39.9696 24.5228C39.8557 23.5755 39.8697 22.5097 39.6378 21.6719C39.3699 21.6749 39.134 21.6691 38.8667 21.7584ZM40.7809 21.6C40.6021 21.5591 40.3934 21.5984 40.2222 21.6019C40.3025 22.4029 40.4977 23.2868 40.5663 24.1276C40.8355 24.1361 40.9795 24.0091 41.2006 23.9663C41.2127 23.2284 41.1365 22.2115 40.7809 21.6ZM43.6791 24.2483C44.2403 24.1121 44.5931 23.425 44.4361 22.7191C44.3309 22.2448 44.1433 21.3515 43.9424 21.0479C43.7938 20.8234 43.3918 20.5296 43.0707 20.7352C42.5483 21.07 41.628 21.1669 41.2468 21.5719C41.4377 22.2079 41.4969 23.0818 41.5759 23.8876C42.2285 23.9283 43.0316 23.7079 43.5745 23.9417C43.1955 24.0646 42.7039 24.0657 42.3765 24.2443C42.6444 24.3734 43.2709 24.3475 43.6791 24.2483ZM38.4609 20.836C38.0665 19.9089 37.7085 18.9485 37.1203 18.2016C36.5501 18.5839 35.9223 18.9438 35.762 19.638C36.578 20.0995 37.5297 20.555 38.4609 20.836ZM39.4325 17.9654C39.3953 18.8925 39.2894 20.1082 39.0422 20.8349C39.6315 20.0842 40.107 19.2103 40.6037 18.3594C40.3921 18.0197 39.9494 17.7234 39.4325 17.9654ZM38.3311 17.574C38.1078 17.55 37.9183 17.831 37.628 17.7092C37.5616 17.7827 37.501 17.8624 37.4333 17.9342C38.0745 18.707 38.3661 19.8032 38.8612 20.7114C39.1269 19.8392 39.0963 18.8835 39.155 17.931C38.7896 17.9547 38.587 17.6011 38.3311 17.574ZM37.6231 16.6393C37.599 16.9039 37.6607 16.9908 37.7143 17.2939C38.5837 17.5659 38.4319 16.0997 37.6231 16.6393ZM36.658 16.3225C36.2831 16.1177 35.72 15.8946 35.2358 15.8023C34.6356 15.6876 34.6918 16.621 34.7175 17.1778C34.7374 17.6186 34.9668 18.085 35.0662 18.3777C35.1129 18.5145 35.1236 18.6598 35.2404 18.6868C35.4472 18.7352 36.1288 18.4624 36.3232 18.3567C36.7342 18.1328 37.0529 17.7769 37.4019 17.538C37.4062 17.4217 37.4106 17.3059 37.4155 17.1896C37.2055 17.085 36.9633 17.011 36.655 16.9973C36.8639 16.8922 37.1711 16.8935 37.3614 16.7685C37.3634 16.7218 37.3653 16.6756 37.3669 16.6292C37.0196 16.6027 36.8871 16.4476 36.658 16.3225ZM33.0774 15.6721C32.7664 15.9877 33.9499 16.4187 34.327 16.4416C34.3248 16.2417 34.4409 16.0533 34.4174 15.9099C33.9698 15.8315 33.3813 15.8831 33.0774 15.6721ZM36.9103 15.8206C36.9087 15.8515 36.8688 15.8403 36.862 15.8654C37.2623 16.1783 37.5597 16.2428 38.1045 16.216C38.3503 16.0377 38.5682 15.8294 38.8241 15.6622C38.2347 15.7147 37.4936 16.0806 36.9103 15.8206ZM40.4284 16.8873C40.4117 16.5361 40.3194 15.8146 40.1026 15.6882C39.6471 15.4225 38.838 16.2248 38.495 16.3471C38.5321 16.4547 38.5938 16.5396 38.5988 16.6767C38.8014 16.627 39.0485 16.6609 39.2244 16.7472C39.0212 16.7698 38.7959 16.7682 38.6613 16.8654C38.6121 17.008 38.6733 17.2018 38.6405 17.3996C39.1231 17.5358 39.6739 17.6082 40.2837 17.6259C40.4019 17.4719 40.4423 17.1784 40.4284 16.8873ZM32.5536 15.9774C32.4559 15.9077 31.795 15.0478 31.7044 15.0833C30.5086 15.5552 29.39 16.3706 28.3908 17.142C29.3439 19.1866 29.7284 21.6912 29.7964 24.1055C30.8879 24.6159 31.8466 25.3519 33.3278 25.4289C33.1563 24.2161 33.0001 23.1345 32.9026 21.9927C32.5304 21.8357 31.9966 22.0001 31.6484 21.9441C31.6457 21.5244 32.1803 21.7603 32.2248 21.478C32.2584 21.2647 31.9305 21.2483 32.0372 20.9124C32.3095 21.0113 32.4526 21.23 32.7429 21.3119C33.0083 20.7314 32.7391 19.7043 32.7776 19.2193C32.7849 19.1281 32.8229 18.7147 33.0272 18.7873C33.2077 18.8515 33.0168 19.887 33.0367 20.3463C33.0547 20.7693 32.9856 21.1787 33.1569 21.4444C34.5881 21.2497 36.0425 21.1235 37.5911 21.0809C37.2506 20.9348 36.8459 20.7964 36.4021 20.5462C36.1618 20.4108 35.4035 20.1284 35.3338 19.8999C35.223 19.5358 35.6244 19.3417 35.6932 19.0298C34.9709 19.4236 34.8297 18.6524 34.6591 18.1055C34.5042 17.6104 34.416 17.2403 34.3781 16.955C33.7544 16.6584 33.0891 16.358 32.5536 15.9774ZM39.7962 15.1879C40.7927 14.7048 40.9724 16.994 40.5819 17.7313C40.6425 17.9512 40.8497 18.0356 40.9344 18.2333C40.3781 19.2294 39.761 20.1593 39.1933 21.1437C39.6152 20.881 40.2181 21.0968 40.7151 20.9001C40.8967 20.8283 41.0281 20.4127 41.1654 20.0801C41.5436 19.1653 41.9404 18.0121 42.1171 17.1393C42.1572 16.9405 42.2657 16.5071 42.2414 16.3302C42.1979 16.0131 41.7678 15.778 41.5491 15.5819C41.146 15.2198 40.8923 14.9012 40.4721 14.5628C40.3014 14.814 39.9355 14.9828 39.7962 15.1879ZM30.2745 6.35082C29.7996 6.87321 29.8993 7.8522 29.9567 8.54855C30.8149 8.00867 31.954 8.59142 31.9433 9.50978C32.3529 9.49886 32.0965 8.99803 32.0225 8.67526C31.7803 7.62145 32.4305 6.47616 32.052 5.51274C31.3166 5.56817 30.7128 5.86829 30.2745 6.35082ZM33.6722 3.31856C32.5973 3.62331 31.2194 4.40432 30.7781 5.37019C31.12 5.32049 31.3576 5.14791 31.6951 5.12661C31.8226 5.11842 31.9897 5.18013 32.1364 5.14354C32.4286 5.07117 32.6749 4.41633 32.8953 4.17275C33.1102 3.9349 33.3682 3.83304 33.5446 3.61621C33.658 3.56132 33.8262 3.56515 33.8325 3.39475C33.7828 3.34204 33.7311 3.3019 33.6722 3.31856ZM39.2678 3.60502C38.1523 2.9753 36.2637 2.50206 35.0769 3.09354C34.1192 3.57088 32.8245 4.3609 32.3835 5.36227C32.7956 6.32842 32.2612 7.21374 32.2273 8.19437C32.2093 8.71622 32.4731 9.17198 32.4933 9.73999C32.3521 9.97292 31.9212 10.0016 31.623 9.98548C31.5225 9.48275 31.3466 8.91775 30.8291 8.8615C30.0968 8.78148 29.5612 9.38744 29.5279 10.021C29.4886 10.7659 30.0998 12.0003 30.9668 11.9145C31.3016 11.8815 31.3838 11.5459 31.7486 11.5494C31.9463 11.944 31.4436 12.0677 31.392 12.3498C31.3783 12.4227 31.4335 12.7075 31.4657 12.8411C31.6233 13.4915 31.9739 14.3332 32.3193 14.8282C32.7576 15.4563 33.6189 15.5508 34.5457 15.6125C34.7112 15.2562 35.321 15.2854 35.7181 15.3788C35.2418 15.1904 34.7994 14.7329 34.4327 14.3285C34.0113 13.8643 33.5848 13.3665 33.5629 12.7594C34.3592 13.864 35.0171 14.8285 36.4647 15.3146C37.56 15.6822 38.8399 15.1464 39.6815 14.5552C40.0308 14.3094 40.2394 13.9194 40.4876 13.5628C41.4167 12.2266 41.8503 10.3192 41.7547 8.47072C41.7154 7.70829 41.7173 6.94831 41.4614 6.43547C41.1941 5.89915 40.2897 5.41907 39.7604 5.90461C39.6624 5.38303 40.2006 5.06025 40.8328 5.24813C40.3817 4.66593 39.9087 3.96657 39.2678 3.60502ZM41.3462 20.8078C42.2181 20.3745 43.847 19.6412 44.3935 20.8095C44.5953 21.2398 44.8318 21.9679 44.9364 22.4124C45.0838 23.0394 44.7763 24.3579 44.1319 24.5678C43.5625 24.7538 42.8981 24.7423 42.2124 24.6047C42.1318 24.5375 42.0417 24.4204 41.9789 24.2983C41.4893 24.2795 41.0308 24.3245 40.6441 24.5258C40.6807 24.8879 40.4358 24.9461 40.2061 25.0206C40.036 25.6957 40.5466 26.5772 40.4246 27.1924C40.3372 27.6307 39.7978 27.6987 39.4013 27.7809C39.3885 28.0245 39.4185 28.2282 39.4459 28.4341C39.3552 28.7681 38.9486 28.9584 38.5633 29.0048C37.2954 29.1575 35.3707 29.2257 34.1514 28.7874C33.8112 27.9527 33.5433 26.9376 33.2595 25.9846C32.0703 26.1116 31.1085 25.4715 30.2016 25.052C29.8878 24.9065 29.4534 24.8265 29.336 24.5766C29.2221 24.3346 29.2688 23.871 29.2404 23.4329C29.1686 22.3141 29.1071 21.2352 28.8119 20.0896C28.6792 19.5757 28.4479 19.1221 28.2868 18.6268C28.1377 18.1677 27.8772 17.6003 27.8095 17.1429C27.7087 16.4643 28.3477 16.4266 28.7562 16.1325C29.3878 15.6778 29.8835 15.4263 30.5673 15.0159C30.7699 14.8943 31.3805 14.5866 31.4501 14.4451C31.588 14.1644 31.2131 13.7682 31.1126 13.5483C30.9542 13.2002 30.8712 12.9044 30.8485 12.5612C30.2748 12.4705 29.8398 12.1291 29.5774 11.7441C29.1429 11.107 28.8414 9.92841 29.2174 9.03135C29.2469 8.9609 29.3939 8.8219 29.4157 8.71349C29.4586 8.49994 29.3354 8.21594 29.3275 7.98874C29.2882 6.82351 29.5247 5.81913 30.3092 5.46768C30.6279 4.19896 31.7677 3.77706 32.8417 3.14652C33.2432 2.91085 33.6855 2.76011 34.1429 2.59217C35.7825 1.98867 38.2984 2.10254 39.6591 3.13177C40.2361 3.56815 41.1586 4.48979 41.4885 5.15692C42.3599 6.91827 42.2982 9.86178 41.6886 12.0041C41.6067 12.2919 41.4879 12.7146 41.3219 13.0601C41.2061 13.3015 40.8467 13.7843 40.8904 13.9973C40.9355 14.2176 41.7102 14.8059 41.8765 14.9659C42.1755 15.2545 42.7441 15.6374 42.79 16.0017C42.8394 16.3892 42.6193 16.9192 42.5076 17.2933C42.1332 18.5413 41.7692 19.695 41.3462 20.8078Z" fill="#231F20"/>
<path d="M35.5301 12.1681C35.5774 12.105 35.8373 12.0097 36.2014 12.1848C36.2014 12.1848 35.7702 12.2566 35.8059 12.9759L35.6263 12.9398C35.6263 12.9398 35.4403 12.2877 35.5301 12.1681Z" fill="#F7E4CD"/>
<path d="M38.6803 18.348C38.6803 18.4569 38.5919 18.5457 38.4826 18.5457C38.3734 18.5457 38.2849 18.4572 38.2849 18.348C38.2849 18.239 38.3734 18.1503 38.4826 18.1503C38.5916 18.1503 38.6803 18.239 38.6803 18.348Z" fill="#1D1919"/>
<path d="M38.8786 19.2645C38.8786 19.3734 38.7901 19.4622 38.6809 19.4622C38.5716 19.4622 38.4832 19.3737 38.4832 19.2645C38.4832 19.1555 38.5716 19.0668 38.6809 19.0668C38.7901 19.0668 38.8786 19.1552 38.8786 19.2645Z" fill="#1D1919"/>
<path d="M69.8877 44.9526C70.6292 44.4332 71 43.7005 71 42.7538C71 42.0441 70.7608 41.4597 70.2826 41.0009C69.8042 40.5421 69.0497 40.18 68.0185 39.9146C67.3503 39.7415 66.8304 39.5569 66.4587 39.3605C66.0871 39.1644 65.9014 38.8469 65.9014 38.4083C65.9014 38.0792 66.0283 37.8225 66.2823 37.6379C66.5363 37.4533 66.8853 37.361 67.3298 37.361C67.8954 37.361 68.4235 37.579 68.914 38.0145C69.4044 38.4503 69.7507 38.9681 69.9527 39.5683H70.5587L70.4203 36.6164H69.7624L69.5805 37.127C69.2804 37 68.9096 36.8834 68.4683 36.7764C68.0267 36.6696 67.5434 36.6164 67.0182 36.6164C65.9104 36.6164 65.0144 36.8673 64.3303 37.3695C63.6466 37.8717 63.3047 38.5295 63.3047 39.3433C63.3047 39.7819 63.3825 40.1601 63.5384 40.4774C63.6943 40.7947 63.9019 41.0662 64.1616 41.2912C64.4614 41.5451 64.7517 41.7314 65.0316 41.8496C65.3115 41.9679 65.6477 42.0847 66.0401 42.2003C66.4325 42.3158 66.7629 42.4138 67.0314 42.4946C67.2998 42.5755 67.5464 42.6735 67.7714 42.789C67.9735 42.8988 68.1319 43.0285 68.2474 43.1784C68.3629 43.3286 68.4205 43.5189 68.4205 43.7497C68.4205 44.1768 68.2922 44.4927 68.0352 44.6976C67.7785 44.9024 67.3875 45.0048 66.8623 45.0048C66.4642 45.0048 66.0906 44.9155 65.7413 44.7363C65.3921 44.5575 65.0821 44.3382 64.8107 44.0785C64.551 43.8188 64.3202 43.526 64.1182 43.2C63.9161 42.8739 63.7719 42.5809 63.6853 42.3215H63.0534L63.1659 45.5504H63.8413L64.101 44.9616C64.3953 45.1465 64.8093 45.321 65.3432 45.4854C65.8768 45.6498 66.4238 45.7322 66.9836 45.7322C68.178 45.7317 69.1463 45.472 69.8877 44.9526ZM62.1706 44.8054C61.9974 44.7882 61.8429 44.7593 61.7074 44.7188C61.5717 44.6784 61.4578 44.638 61.3655 44.5976C61.1924 44.5228 61.0742 44.4217 61.0105 44.2948C60.9469 44.1678 60.9152 43.9977 60.9152 43.7841V39.5424C60.9152 38.6595 60.6801 37.9512 60.2096 37.4173C59.7391 36.8837 59.0337 36.6166 58.0932 36.6166C57.7008 36.6166 57.3314 36.6658 56.9851 36.7638C56.6388 36.8621 56.3589 36.9804 56.1454 37.1188C55.9493 37.2458 55.7355 37.4102 55.5047 37.6123C55.274 37.8143 55.0776 37.9875 54.916 38.1317H54.8813V36.8766L54.7516 36.7466L50.6224 36.9716V37.6035C50.8127 37.6207 50.9872 37.6527 51.1461 37.6988C51.3048 37.745 51.4361 37.8026 51.5399 37.872C51.6898 37.9817 51.8111 38.1229 51.9034 38.2961C51.9957 38.4692 52.0418 38.6453 52.0418 38.8242V43.8622C52.0418 44.0758 52.0072 44.2489 51.9381 44.3816C51.8687 44.5143 51.7417 44.6126 51.5571 44.676C51.4534 44.7107 51.3277 44.738 51.1805 44.7582C51.0334 44.7784 50.8875 44.7942 50.7434 44.8057V45.4376H56.0064V44.8057C55.8737 44.7885 55.7379 44.7595 55.5995 44.7191C55.461 44.6787 55.3455 44.6326 55.2532 44.5807C55.1205 44.5113 55.0252 44.4089 54.9676 44.2735C54.91 44.138 54.881 43.9693 54.881 43.7672V39.118C54.9504 39.0257 55.0359 38.9189 55.1372 38.7977C55.2382 38.6765 55.3728 38.5582 55.5408 38.4427C55.7317 38.31 55.9272 38.2089 56.1268 38.1396C56.3264 38.0702 56.5419 38.0358 56.7735 38.0358C57.1959 38.0358 57.5157 38.1844 57.7325 38.4815C57.9496 38.7789 58.058 39.2215 58.058 39.8103V43.8614C58.058 44.0981 58.0321 44.277 57.9802 44.398C57.9283 44.5192 57.8417 44.6115 57.7205 44.6749C57.6397 44.7153 57.5214 44.7442 57.3655 44.7615C57.2098 44.7787 57.0768 44.7931 56.9673 44.8049V45.4368H62.1697V44.8054H62.1706ZM48.1816 32.5046C47.8468 32.193 47.4459 32.0371 46.9784 32.0371C46.5109 32.0371 46.1084 32.193 45.7709 32.5046C45.4333 32.8162 45.2646 33.1914 45.2646 33.63C45.2646 34.0685 45.4333 34.4424 45.7709 34.751C46.1084 35.0598 46.5109 35.2141 46.9784 35.2141C47.4402 35.2141 47.8397 35.0598 48.1772 34.751C48.5148 34.4424 48.6835 34.0685 48.6835 33.63C48.6838 33.1914 48.5164 32.8162 48.1816 32.5046ZM49.9476 44.8054C49.7974 44.7882 49.6532 44.7593 49.5148 44.7188C49.3763 44.6784 49.2493 44.6323 49.1338 44.5804C48.9722 44.511 48.8482 44.4059 48.7616 44.2645C48.6751 44.123 48.6316 43.9515 48.6316 43.7494V36.8761L48.5019 36.7461L44.2602 36.9711V37.603C44.4333 37.6202 44.625 37.6609 44.8358 37.7242C45.0464 37.7879 45.2037 37.8542 45.3077 37.9233C45.4462 38.0156 45.5617 38.1385 45.654 38.2911C45.7463 38.4441 45.7924 38.6216 45.7924 38.8236V43.8617C45.7924 44.0752 45.7548 44.247 45.6799 44.3767C45.6048 44.5064 45.4751 44.6061 45.2905 44.6754C45.1868 44.7158 45.0625 44.7448 44.9183 44.762C44.7741 44.7792 44.6269 44.7937 44.4768 44.8054V45.4373H49.9476V44.8054ZM44.3814 44.8054C44.1163 44.7825 43.8511 44.7246 43.586 44.6323C43.3208 44.54 43.0991 44.3584 42.9205 44.0872C42.3962 43.3084 41.8951 42.5703 41.4169 41.8723C40.9388 41.1743 40.4174 40.416 39.853 39.5967C40.1405 39.3419 40.3953 39.1292 40.6168 38.9585C40.8385 38.7879 41.0671 38.6246 41.3036 38.4686C41.6608 38.2322 41.9907 38.0432 42.2932 37.9017C42.5955 37.7603 43.0352 37.609 43.6114 37.4473V36.8501H39.214V37.4648C39.5802 37.5167 39.8544 37.5773 40.0365 37.6467C40.2187 37.716 40.3099 37.8026 40.3099 37.9064C40.3099 37.9296 40.2998 37.9916 40.2795 38.0923C40.2593 38.1931 40.1539 38.3419 39.9636 38.538C39.6408 38.8671 39.2129 39.2824 38.6796 39.7843C38.1465 40.2865 37.6667 40.7278 37.2402 41.1088V32.1756L37.1099 32.0371L32.7994 32.2621V32.894C32.9783 32.9058 33.1773 32.9344 33.3966 32.9806C33.6159 33.0267 33.7803 33.0844 33.8901 33.1537C34.0515 33.2575 34.1743 33.4121 34.2579 33.6169C34.3415 33.8217 34.3835 34.0194 34.3835 34.2097V43.8617C34.3835 44.0752 34.3502 44.2483 34.2833 44.3811C34.2164 44.5138 34.09 44.6121 33.904 44.6754C33.7937 44.7101 33.6659 44.7374 33.5206 44.7576C33.3753 44.7778 33.23 44.7937 33.0848 44.8051V45.437H38.4603V44.8051C38.3218 44.7937 38.1834 44.7705 38.0447 44.7358C37.9059 44.7011 37.785 44.661 37.6812 44.6145C37.5081 44.5512 37.3912 44.4531 37.3306 44.3202C37.27 44.1874 37.2396 44.017 37.2396 43.8095V41.9223L37.7498 41.4911C38.1187 42.0148 38.5108 42.5834 38.9262 43.1964C39.3413 43.8095 39.7997 44.5564 40.3014 45.437H44.3814V44.8054ZM32.4703 44.8054C32.2972 44.7882 32.1426 44.7593 32.0072 44.7188C31.8715 44.6784 31.7576 44.638 31.6653 44.5976C31.4922 44.5228 31.3739 44.4217 31.3103 44.2948C31.2467 44.1678 31.215 43.9977 31.215 43.7841V39.5424C31.215 38.6595 30.9799 37.9512 30.5094 37.4173C30.0388 36.8837 29.3335 36.6166 28.3927 36.6166C28.0003 36.6166 27.6311 36.6658 27.2849 36.7638C26.9386 36.8621 26.6587 36.9804 26.4451 37.1188C26.2491 37.2458 26.0353 37.4102 25.8045 37.6123C25.5738 37.8143 25.3774 37.9875 25.2157 38.1317H25.1811V36.8766L25.0511 36.7466L20.9219 36.9716V37.6035C21.1122 37.6207 21.2867 37.6527 21.4456 37.6988C21.6043 37.745 21.7356 37.8026 21.8394 37.872C21.9893 37.9817 22.1106 38.1229 22.2029 38.2961C22.2952 38.4692 22.3413 38.6453 22.3413 38.8242V43.8622C22.3413 44.0758 22.3066 44.2489 22.2376 44.3816C22.1682 44.5143 22.0412 44.6126 21.8566 44.676C21.7528 44.7107 21.6272 44.738 21.48 44.7582C21.3328 44.7784 21.187 44.7942 21.0428 44.8057V45.4376H26.3059V44.8057C26.1732 44.7885 26.0374 44.7595 25.899 44.7191C25.7605 44.6787 25.645 44.6326 25.5527 44.5807C25.42 44.5113 25.3247 44.4089 25.2671 44.2735C25.2095 44.138 25.1805 43.9693 25.1805 43.7672V39.118C25.2499 39.0257 25.3354 38.9189 25.4367 38.7977C25.5377 38.6765 25.6723 38.5582 25.8403 38.4427C26.0314 38.31 26.2267 38.2089 26.4263 38.1396C26.6259 38.0702 26.8414 38.0358 27.0729 38.0358C27.4954 38.0358 27.8152 38.1844 28.032 38.4815C28.2491 38.7789 28.3575 39.2215 28.3575 39.8103V43.8614C28.3575 44.0981 28.3316 44.277 28.2797 44.398C28.2278 44.5192 28.1412 44.6115 28.02 44.6749C27.9392 44.7153 27.8209 44.7442 27.665 44.7615C27.5091 44.7787 27.3763 44.7931 27.2668 44.8049V45.4368H32.4692V44.8054H32.4703ZM14.1274 40.1137C14.1504 39.1385 14.2948 38.4258 14.5602 37.9755C14.8257 37.5254 15.1804 37.3001 15.625 37.3001C15.8847 37.3001 16.0996 37.3695 16.27 37.508C16.4401 37.6464 16.5742 37.8515 16.6725 38.1227C16.7591 38.3537 16.8197 38.6508 16.8544 39.0143C16.8891 39.3777 16.9063 39.7327 16.9063 40.079L14.1274 40.1137ZM19.5548 42.8922C19.249 43.3483 18.8795 43.7248 18.4467 44.022C18.0139 44.3193 17.5261 44.4679 16.9838 44.4679C15.9912 44.4679 15.267 44.1593 14.8112 43.5416C14.3552 42.9242 14.1274 42.0238 14.1274 40.8409H19.9792V40.2783C19.9792 39.7879 19.9041 39.319 19.7542 38.8717C19.604 38.4244 19.3648 38.0364 19.0357 37.7073C18.6952 37.361 18.2654 37.0899 17.746 36.8935C17.2266 36.6975 16.563 36.5992 15.755 36.5992C15.0163 36.5992 14.3483 36.7261 13.7511 36.9801C13.1539 37.2341 12.6588 37.5658 12.2664 37.9755C11.8682 38.3968 11.561 38.8772 11.3445 39.4168C11.1282 39.9564 11.0198 40.5205 11.0198 41.109C11.0198 41.7611 11.1192 42.3657 11.3185 42.9225C11.5176 43.4796 11.8191 43.9627 12.2232 44.3726C12.6271 44.7825 13.1394 45.1083 13.7599 45.3508C14.38 45.5932 15.1176 45.7142 15.9715 45.7142C16.4852 45.7142 16.9396 45.658 17.335 45.5455C17.7301 45.433 18.1212 45.2672 18.5079 45.0476C18.8713 44.8398 19.196 44.5902 19.4817 44.2989C19.7673 44.0075 20.0112 43.6973 20.2132 43.3682L19.5548 42.8922ZM9.94632 33.154H3.3848V33.829C3.54701 33.8523 3.75154 33.8899 3.99813 33.9418C4.24445 33.9937 4.45472 34.0573 4.62867 34.1324C4.87226 34.2365 5.02573 34.3577 5.08963 34.4962C5.15353 34.6349 5.18548 34.808 5.18548 35.0161V41.9553C5.18548 42.9602 4.98722 43.7112 4.59071 44.2076C4.1942 44.7044 3.64887 44.9526 2.95443 44.9526C2.77502 44.9526 2.59861 44.9122 2.42493 44.8314C2.25125 44.7505 2.13847 44.6525 2.08632 44.537V44.4245C2.41537 44.159 2.70811 43.869 2.96508 43.5544C3.22177 43.2401 3.35039 42.898 3.35039 42.5288C3.35039 42.0959 3.20184 41.7325 2.90473 41.4381C2.60735 41.1437 2.20784 40.9965 1.70592 40.9965C1.17478 40.9965 0.758064 41.1727 0.454948 41.5247C0.151558 41.8767 0 42.321 0 42.8578C0 43.7639 0.330424 44.4766 0.991273 44.996C1.65212 45.5154 2.52215 45.7751 3.60108 45.7751C4.22424 45.7751 4.81 45.6869 5.35834 45.511C5.90668 45.3349 6.40286 45.0736 6.84716 44.727C7.28572 44.3748 7.63062 43.9389 7.88158 43.419C8.13253 42.8993 8.25815 42.3275 8.25815 41.7038V34.9296C8.25815 34.7217 8.29147 34.5369 8.35782 34.3752C8.42418 34.2135 8.57547 34.101 8.81223 34.0374C9.0143 33.9855 9.1959 33.9451 9.35756 33.9162C9.51895 33.8872 9.71529 33.8583 9.94605 33.8293L9.94632 33.154Z" fill="black"/>
</svg>
