<svg width="65" height="48" viewBox="0 0 65 48" fill="none" xmlns="http://www.w3.org/2000/svg">
<g clip-path="url(#clip0_1_2302)">
<path d="M1.7985 42.0542C1.97616 41.8543 2.15374 41.6544 2.35364 41.4545C2.55354 41.2324 2.73138 41.0326 2.90878 40.8329C3.08644 40.6106 3.26401 40.4107 3.4197 40.2331C3.57539 40.0556 3.73054 39.8779 3.84148 39.7447H5.99557C5.57361 40.2331 5.15166 40.7218 4.72988 41.1658C4.33016 41.61 3.88605 42.0764 3.39746 42.5649C3.66525 42.8157 3.9174 43.0827 4.1525 43.3643C4.41886 43.6752 4.66315 43.9859 4.90754 44.2968C5.14969 44.6084 5.3721 44.9348 5.57361 45.2741C5.77352 45.6072 5.95136 45.8957 6.08454 46.1623H3.99717C3.86381 45.9402 3.70839 45.7181 3.55297 45.4739C3.39049 45.2047 3.21247 44.9452 3.0198 44.6968C2.83928 44.4304 2.63893 44.1781 2.42045 43.9418C2.2435 43.7203 2.04235 43.5191 1.82083 43.3422V46.1401H0V36.969L1.82083 36.6802V42.0542" fill="black"/>
<path d="M12.413 45.9401C12.0196 46.0498 11.6189 46.1314 11.214 46.1844C10.7076 46.2671 10.1947 46.3042 9.68154 46.2953C9.21251 46.3124 8.74482 46.237 8.30491 46.0734C7.63133 45.819 7.14184 45.2281 7.01697 44.519C6.92631 44.1257 6.88156 43.7233 6.88361 43.3197V39.7446H8.70462V43.0977C8.70462 43.675 8.77135 44.097 8.92677 44.3635C9.08219 44.6301 9.37079 44.7633 9.79275 44.7633C9.93379 44.7664 10.0748 44.759 10.2147 44.741C10.3701 44.7188 10.4812 44.7188 10.6144 44.6965V39.7445H12.4353L12.413 45.9401Z" fill="black"/>
<path d="M18.2539 42.8979C18.2539 41.7211 17.8319 41.1438 16.9658 41.1438C16.7787 41.1439 16.5924 41.1663 16.4106 41.2102C16.2549 41.2479 16.1054 41.3077 15.9666 41.3879V44.6967C16.0553 44.719 16.1665 44.719 16.2997 44.7412C16.4329 44.7412 16.5883 44.7634 16.7439 44.7634C17.1812 44.7832 17.6017 44.5935 17.8764 44.2525C18.142 43.852 18.2742 43.3779 18.2539 42.8979ZM20.097 42.9423C20.1063 43.4181 20.0311 43.8917 19.8748 44.3413C19.7411 44.7396 19.5213 45.1035 19.231 45.4071C18.9284 45.6989 18.5745 45.9323 18.1872 46.0956C17.7304 46.2535 17.249 46.3286 16.7659 46.3175C16.544 46.3175 16.3218 46.2952 16.0775 46.2733C15.8333 46.2513 15.6113 46.2288 15.367 46.2064C15.1448 46.1844 14.9228 46.1399 14.7006 46.0954C14.5107 46.0628 14.3247 46.0107 14.1455 45.94V36.9687L15.9665 36.6801V39.8777C16.1732 39.7878 16.3891 39.7208 16.6104 39.6778C16.8446 39.6326 17.0826 39.6104 17.3211 39.6113C17.7338 39.6037 18.1432 39.6871 18.5201 39.8555C18.8641 40.0053 19.1684 40.2334 19.4085 40.5218C19.6639 40.8326 19.846 41.1968 19.9414 41.5876C20.0421 42.0322 20.0943 42.4864 20.097 42.9423Z" fill="black"/>
<path d="M21.1849 43.009C21.1728 42.5002 21.2635 41.9942 21.4513 41.5213C21.6118 41.1258 21.8453 40.7642 22.1398 40.4552C22.412 40.1688 22.7462 39.9486 23.1167 39.8114C23.4829 39.6609 23.8756 39.5854 24.2714 39.589C25.0767 39.5522 25.8597 39.859 26.4255 40.433C26.9584 40.9881 27.2248 41.81 27.2248 42.8756C27.2279 42.9945 27.2205 43.1135 27.2028 43.2312C27.2028 43.3421 27.1806 43.453 27.1806 43.5642H23.0498C23.0864 43.9249 23.2818 44.2505 23.5829 44.4525C23.9527 44.6901 24.3874 44.8065 24.8264 44.7855C25.1543 44.7901 25.4817 44.7603 25.8035 44.6968C26.077 44.6508 26.345 44.5764 26.603 44.4747L26.8471 45.9624C26.7584 46.0069 26.6252 46.0514 26.4476 46.1179C26.268 46.1782 26.0813 46.2157 25.8923 46.229C25.6798 46.2725 25.4648 46.302 25.2484 46.3177C25.0263 46.3399 24.7823 46.3622 24.5599 46.3622C24.0439 46.374 23.5307 46.2836 23.0499 46.0958C22.6531 45.9381 22.2911 45.7042 21.9842 45.4073C21.7098 45.0957 21.4988 44.7336 21.3626 44.3415C21.2461 43.907 21.1862 43.4591 21.1847 43.0091M25.4704 42.2985C25.4644 42.1466 25.4344 41.9967 25.3814 41.8542C25.3375 41.7108 25.27 41.5757 25.1815 41.4545C24.9678 41.1852 24.6367 41.0362 24.2933 41.0548C24.1098 41.055 23.9284 41.0927 23.7601 41.1658C23.6211 41.2229 23.4988 41.3147 23.4051 41.4323C23.3053 41.5496 23.2298 41.6854 23.1828 41.832C23.1353 41.9772 23.0983 42.1257 23.0718 42.2762H25.4702" fill="black"/>
<path d="M32.4877 41.3435C32.2989 41.2896 32.1057 41.2523 31.9103 41.2324C31.6762 41.1872 31.4383 41.1649 31.1998 41.1657C31.0584 41.1728 30.9175 41.1877 30.7778 41.2102C30.6583 41.2262 30.5398 41.2485 30.4226 41.2769V46.1844H28.6016V40.0776C28.9795 39.9497 29.3652 39.8459 29.7563 39.7668C30.2442 39.6556 30.7438 39.6034 31.2441 39.6114C31.3629 39.609 31.4818 39.6163 31.5993 39.6334C31.7408 39.6383 31.8818 39.6532 32.0213 39.6778C32.1546 39.7001 32.2878 39.7223 32.4432 39.7446C32.5764 39.7668 32.7098 39.8113 32.7985 39.8333L32.4877 41.3435Z" fill="black"/>
<path d="M33.7754 39.9667C34.6668 39.7315 35.5849 39.6121 36.5069 39.6115C36.9688 39.5922 37.4298 39.6677 37.8615 39.8333C38.2009 39.9477 38.501 40.1555 38.7275 40.433C38.9366 40.7109 39.0876 41.0281 39.1717 41.3656C39.2648 41.7584 39.3095 42.1611 39.3049 42.5648V46.1844H37.4839V42.7871C37.4839 42.2098 37.4174 41.7878 37.262 41.5435C37.1066 41.2992 36.8178 41.1883 36.3958 41.1883C36.2548 41.1851 36.1138 41.1926 35.9739 41.2105C35.8396 41.2131 35.7059 41.228 35.5743 41.255V46.207H33.7755V39.9671" fill="black"/>
<path d="M40.6593 43.009C40.6472 42.5002 40.7378 41.9942 40.9256 41.5213C41.0861 41.1258 41.3197 40.7642 41.6141 40.4552C41.8864 40.1688 42.2206 39.9486 42.5912 39.8114C42.9574 39.6609 43.3501 39.5854 43.746 39.589C44.5512 39.5522 45.3342 39.859 45.9001 40.433C46.4328 40.9881 46.6993 41.81 46.6993 42.8756C46.7024 42.9945 46.6949 43.1135 46.6771 43.2312C46.6771 43.3421 46.6548 43.453 46.6548 43.5642H42.5245C42.5611 43.9249 42.7565 44.2505 43.0577 44.4525C43.4274 44.6901 43.8619 44.8065 44.3009 44.7855C44.6289 44.7901 44.9565 44.7603 45.2783 44.6968C45.5517 44.6508 45.8196 44.5763 46.0775 44.4747L46.3218 45.9624C46.2332 46.0069 46.0997 46.0514 45.9221 46.1179C45.7425 46.1782 45.556 46.2156 45.367 46.229C45.1544 46.2725 44.9393 46.302 44.7229 46.3177C44.501 46.3399 44.2567 46.3622 44.0346 46.3622C43.5186 46.374 43.0053 46.2836 42.5246 46.0958C42.1277 45.9381 41.7657 45.7042 41.4588 45.4073C41.1844 45.0957 40.9732 44.7336 40.8369 44.3415C40.7205 43.9068 40.6608 43.4589 40.6593 43.009ZM44.945 42.2985C44.9391 42.1466 44.9092 41.9967 44.8563 41.8542C44.8124 41.7108 44.7449 41.5757 44.6564 41.4545C44.4426 41.1851 44.1115 41.0361 43.768 41.0548C43.5847 41.055 43.4033 41.0928 43.2351 41.1658C43.096 41.2229 42.9737 41.3147 42.8799 41.4323C42.7802 41.5496 42.7047 41.6854 42.6579 41.832C42.6104 41.9772 42.5734 42.1257 42.5469 42.2762H44.9451" fill="black"/>
<path d="M48.0547 38.1457L49.8755 37.8571V39.7446H52.0519V41.2546H49.8755V43.5196C49.8603 43.8355 49.9293 44.1496 50.0754 44.4301C50.2088 44.6524 50.4974 44.7634 50.8971 44.7634C51.0976 44.7596 51.2978 44.7448 51.4967 44.7189C51.6931 44.6831 51.8863 44.6312 52.0741 44.5635L52.3405 45.9846C52.1049 46.0849 51.8593 46.1594 51.6077 46.2067C51.2792 46.2755 50.9437 46.3052 50.6083 46.2954C50.1851 46.307 49.7634 46.2393 49.365 46.0958C49.0659 45.9743 48.7996 45.784 48.5876 45.5404C48.3818 45.2799 48.2375 44.9763 48.1656 44.6521C48.0913 44.2792 48.0542 43.8999 48.0547 43.5196V38.1457Z" fill="black"/>
<path d="M52.9842 43.009C52.9722 42.5002 53.0629 41.9942 53.2507 41.5213C53.4113 41.1258 53.6447 40.7642 53.9391 40.4552C54.2113 40.1688 54.5456 39.9486 54.9161 39.8114C55.2824 39.6609 55.675 39.5854 56.0709 39.589C56.8761 39.5522 57.6591 39.859 58.225 40.433C58.7579 40.9881 59.0243 41.81 59.0243 42.8756C59.0273 42.9945 59.0198 43.1135 59.002 43.2312C59.002 43.3421 58.9798 43.453 58.9798 43.5642H54.8494C54.8861 43.9249 55.0815 44.2505 55.3826 44.4525C55.7523 44.6901 56.1869 44.8065 56.6259 44.7855C56.9539 44.7901 57.2814 44.7603 57.6032 44.6968C57.8766 44.6508 58.1445 44.5763 58.4025 44.4747L58.6468 45.9624C58.5581 46.0069 58.4247 46.0514 58.2471 46.1179C58.0674 46.1782 57.8809 46.2156 57.6919 46.229C57.4794 46.2725 57.2643 46.302 57.0481 46.3177C56.8258 46.3399 56.5818 46.3622 56.3596 46.3622C55.8436 46.374 55.3303 46.2836 54.8496 46.0958C54.4527 45.9381 54.0907 45.7042 53.7838 45.4073C53.5095 45.0957 53.2984 44.7336 53.1622 44.3415C53.0347 43.909 52.9747 43.4596 52.9842 43.009ZM57.2479 42.2985C57.2419 42.1466 57.2119 41.9967 57.1589 41.8542C57.115 41.7108 57.0475 41.5757 56.959 41.4545C56.7453 41.1852 56.4142 41.0362 56.0708 41.0548C55.8873 41.055 55.7059 41.0927 55.5377 41.1658C55.3985 41.2229 55.2762 41.3147 55.1824 41.4323C55.0827 41.5496 55.0073 41.6854 54.9605 41.832C54.9131 41.9772 54.876 42.1257 54.8493 42.2762H57.2477" fill="black"/>
<path d="M62.2445 44.8521C62.485 44.8698 62.7266 44.8396 62.9553 44.7634C63.0912 44.6886 63.1696 44.5401 63.1549 44.3857C63.1549 44.2303 63.0662 44.1193 62.8885 44.0084C62.629 43.8533 62.3535 43.7268 62.0669 43.6307C61.7783 43.5197 61.5117 43.4088 61.2898 43.2976C61.0773 43.1958 60.8824 43.0609 60.7123 42.8979C60.5491 42.7326 60.4207 42.5363 60.3348 42.3205C60.2402 42.0649 60.195 41.7937 60.2016 41.5212C60.1768 40.9668 60.4257 40.4355 60.8677 40.0999C61.3119 39.7447 61.9338 39.5668 62.711 39.5668C63.091 39.5697 63.4701 39.6069 63.8435 39.6779C64.1319 39.7218 64.4148 39.7963 64.6874 39.9002L64.3764 41.3213C64.1542 41.2546 63.9322 41.188 63.6879 41.1214C63.4192 41.0553 63.1429 41.0254 62.8664 41.0325C62.289 41.0325 62.0225 41.1879 62.0225 41.4986C62.0266 41.5672 62.0416 41.6348 62.0669 41.6987C62.0981 41.7732 62.1527 41.8356 62.2224 41.8764C62.2891 41.9209 62.4 41.9873 62.5111 42.054C62.6443 42.1205 62.7997 42.165 62.9996 42.2539C63.3433 42.3768 63.6773 42.5252 63.9989 42.698C64.2322 42.805 64.4375 42.9646 64.5985 43.1644C64.7518 43.3169 64.8595 43.5092 64.9094 43.7195C64.9758 43.9503 65.0058 44.1901 64.9982 44.4301C65.0268 45.0018 64.758 45.5477 64.2875 45.8736C63.8213 46.2067 63.155 46.362 62.2668 46.362C61.7882 46.3768 61.3098 46.3244 60.8456 46.2066C60.579 46.1515 60.3186 46.0696 60.0684 45.9623L60.3792 44.4746C60.69 44.5941 61.0091 44.6906 61.3341 44.7632C61.6333 44.827 61.9387 44.8567 62.2445 44.8521Z" fill="black"/>
<path d="M35.6971 20.4442C35.6503 20.4349 35.6025 20.4312 35.5548 20.4333C35.4724 20.4376 35.3918 20.4585 35.3177 20.4948C35.0188 20.639 34.8866 20.9929 35.0176 21.2977L35.0132 21.3039L36.4323 24.732C37.7898 23.8657 38.8199 22.5716 39.3597 21.0545L35.7032 20.4366L35.6971 20.4442ZM30.0075 20.93C29.9442 20.6519 29.699 20.4531 29.4139 20.4485C29.373 20.448 29.3321 20.4517 29.2919 20.4594L29.2857 20.4518L25.661 21.0673C26.2053 22.5725 27.2312 23.856 28.5794 24.7188L29.9839 21.3247L29.973 21.3113C30.025 21.1911 30.0371 21.0575 30.0075 20.93ZM33.0432 22.2611C32.8817 21.96 32.5067 21.8469 32.2055 22.0084C32.0978 22.0662 32.0097 22.1546 31.9521 22.2625H31.9493L30.1669 25.4857C31.4431 25.9202 32.8152 25.9908 34.1293 25.6895C34.373 25.6341 34.6111 25.5675 34.8435 25.4901L33.0567 22.2611H33.0432ZM38.6861 14.7739L35.9436 17.2282L35.945 17.2362C35.6873 17.4614 35.6612 17.8529 35.8864 18.1106C35.9662 18.2019 36.0711 18.2677 36.188 18.3001L36.1912 18.3149L39.7438 19.3383C39.8973 17.7423 39.5259 16.1397 38.6861 14.7739ZM33.5909 15.0487C33.6067 15.3906 33.8967 15.655 34.2386 15.6392C34.3598 15.6335 34.4767 15.5925 34.5749 15.5211L34.5858 15.5258L37.5868 13.398C36.4444 12.2791 34.9661 11.5665 33.3793 11.3698L33.5878 15.0476L33.5909 15.0487ZM30.4129 15.5348C30.6895 15.7359 31.0766 15.6747 31.2777 15.3982C31.3493 15.2997 31.3902 15.1823 31.3954 15.0606L31.4106 15.0534L31.6191 11.3698C31.3673 11.3999 31.1174 11.4429 30.8701 11.4986C29.5546 11.7944 28.3482 12.4519 27.3866 13.3969L30.4071 15.5381L30.4129 15.5348ZM28.8028 18.3182C29.1326 18.2282 29.3271 17.8879 29.237 17.5581C29.2048 17.4401 29.1383 17.3342 29.046 17.2539L29.0489 17.2395L26.2913 14.7728C25.4499 16.1421 25.0888 17.7528 25.265 19.3502L28.8 18.3301L28.8028 18.3182ZM31.4812 19.4017L32.4984 19.8907L33.5128 19.4028L33.7648 18.3078L33.0629 17.4299H31.9331L31.2291 18.3063L31.4812 19.4017Z" fill="#326CE5"/>
<path d="M49.3161 21.5591L46.4172 8.96776C46.2594 8.30821 45.814 7.75423 45.2038 7.45822L33.4701 1.85602C32.8542 1.56215 32.1385 1.56215 31.5225 1.85602L19.7913 7.46108C19.1809 7.75682 18.7354 8.31089 18.5775 8.97062L15.6834 21.5616C15.612 21.8797 15.6117 22.2098 15.6826 22.5281C15.7035 22.6251 15.7309 22.7207 15.7645 22.8141C15.8211 22.9735 15.896 23.1257 15.9878 23.2677C16.0276 23.3285 16.0696 23.3875 16.1152 23.4447L24.2355 33.5408C24.271 33.5846 24.3101 33.6248 24.3488 33.6657C24.4761 33.8013 24.62 33.9205 24.777 34.0205C24.9755 34.1455 25.192 34.2396 25.4188 34.2996C25.6047 34.3505 25.7965 34.377 25.9893 34.3781H26.1156L39.0113 34.3753C39.0897 34.3749 39.1679 34.3704 39.2458 34.3615C39.3576 34.3488 39.4682 34.3278 39.5767 34.2985C39.6546 34.2781 39.7313 34.2535 39.8065 34.225C39.8652 34.2026 39.9238 34.1801 39.9802 34.153C40.065 34.1125 40.1472 34.0668 40.2264 34.0162C40.4308 33.8878 40.6127 33.7267 40.765 33.5395L41.0126 33.2318L48.8824 23.4416C49.0333 23.2524 49.1518 23.0396 49.2332 22.8117C49.2672 22.7181 49.295 22.6223 49.3165 22.525C49.3876 22.2067 49.3873 21.8766 49.3157 21.5584V21.5591H49.3161ZM37.1455 26.4562C37.1785 26.553 37.2175 26.6477 37.2624 26.7396C37.1907 26.8652 37.1712 27.0139 37.2081 27.1537C37.3789 27.5447 37.5874 27.9182 37.8308 28.2686C37.967 28.4477 38.0927 28.6345 38.2073 28.8282C38.2355 28.8807 38.2724 28.9617 38.2992 29.0172C38.4995 29.3514 38.3909 29.7847 38.0568 29.9851C37.7226 30.1854 37.2892 30.0768 37.0889 29.7426C37.0651 29.7029 37.0453 29.6609 37.0297 29.6174C37.0029 29.5623 36.9656 29.4892 36.9427 29.4375C36.8625 29.227 36.7945 29.0121 36.7389 28.7938C36.6172 28.3854 36.4558 27.9899 36.2571 27.613C36.1707 27.4964 36.042 27.4182 35.8987 27.3954C35.8763 27.3566 35.7931 27.2042 35.7485 27.1254C33.6597 27.9164 31.3528 27.9105 29.2681 27.1087L29.1092 27.3969C28.9958 27.4145 28.8904 27.4658 28.8066 27.5442C28.5671 27.9371 28.3841 28.3618 28.2629 28.8058C28.2078 29.0241 28.1401 29.239 28.0601 29.4494C28.0377 29.5008 28 29.5732 27.9732 29.6279V29.6293L27.9721 29.6308C27.8413 29.9976 27.4378 30.1888 27.071 30.058C26.7042 29.9271 26.513 29.5237 26.6438 29.1569C26.6597 29.1124 26.68 29.0696 26.7045 29.0292C26.7309 28.9734 26.7664 28.8927 26.7942 28.8402C26.9088 28.6461 27.0345 28.4587 27.1707 28.279C27.4185 27.9193 27.6314 27.5368 27.8064 27.1366C27.825 27.0009 27.8032 26.8628 27.7438 26.7395L27.8716 26.4332C25.9497 25.2989 24.5092 23.5005 23.8219 21.3772L23.5161 21.4294C23.3974 21.3451 23.2574 21.2958 23.1121 21.2871C22.6934 21.3672 22.2835 21.4878 21.8882 21.6472C21.6829 21.7396 21.4725 21.8202 21.258 21.8887C21.2073 21.9024 21.1342 21.9165 21.0763 21.9292C21.0715 21.9306 21.0676 21.9329 21.0629 21.9339C21.0593 21.9345 21.0556 21.9348 21.052 21.935C20.6823 22.0567 20.2839 21.8556 20.1621 21.4858C20.0405 21.1161 20.2416 20.7176 20.6113 20.596C20.6533 20.5821 20.6965 20.5723 20.7403 20.5666L20.7504 20.5641L20.7566 20.5623C20.8153 20.5486 20.8905 20.529 20.9441 20.5189C21.1674 20.4879 21.3923 20.4698 21.6177 20.4646C22.043 20.4368 22.4646 20.3676 22.8764 20.2579C22.9985 20.1802 23.1016 20.0761 23.1783 19.9535L23.4722 19.8677C23.1532 17.6517 23.6636 15.3958 24.9054 13.5328L24.6802 13.3323C24.672 13.1866 24.6231 13.0461 24.539 12.9269C24.2156 12.6489 23.8658 12.4031 23.4947 12.1931C23.2943 12.0909 23.1 11.9773 22.9126 11.8528C22.8699 11.8209 22.8134 11.7731 22.767 11.7355L22.7565 11.7283C22.424 11.4894 22.3468 11.0268 22.5839 10.6929C22.7202 10.5259 22.9282 10.434 23.1435 10.4453C23.3221 10.453 23.4937 10.5177 23.6328 10.63C23.6806 10.6676 23.7461 10.7176 23.7885 10.7541C23.952 10.9087 24.1065 11.0726 24.2511 11.2449C24.5381 11.5602 24.8551 11.8467 25.1978 12.1004C25.3261 12.1679 25.4758 12.1825 25.6148 12.1409C25.655 12.1706 25.7908 12.2676 25.8682 12.3208C27.1022 11.0092 28.7 10.0964 30.4565 9.69958C30.8746 9.6049 31.2988 9.53969 31.7261 9.5045L31.7427 9.20768C31.8517 9.11077 31.9309 8.98465 31.9707 8.84423C31.9861 8.41816 31.9598 7.99165 31.8926 7.57077C31.8479 7.35014 31.8158 7.12719 31.7966 6.9029C31.7948 6.8519 31.7977 6.78125 31.7984 6.72301C31.7984 6.71649 31.7966 6.70997 31.7966 6.70345C31.757 6.31561 32.0392 5.96913 32.4271 5.92947C32.8149 5.88981 33.1614 6.17216 33.201 6.55991C33.2059 6.60734 33.206 6.65521 33.2011 6.70273C33.2011 6.76428 33.2048 6.84609 33.2026 6.90255C33.1834 7.12674 33.1512 7.3496 33.1063 7.57005C33.0385 7.99112 33.0119 8.41772 33.0266 8.84387C33.0544 8.98634 33.1367 9.11238 33.2561 9.195C33.2586 9.24564 33.267 9.41509 33.273 9.50852C35.493 9.71039 37.5642 10.7112 39.1019 12.3248L39.3691 12.1341C39.5126 12.1587 39.6603 12.1426 39.7952 12.0877C40.1377 11.8336 40.4547 11.5468 40.7418 11.2312C40.8868 11.0587 41.0416 10.8948 41.2055 10.7404C41.2485 10.7035 41.3137 10.6538 41.3612 10.6162C41.6388 10.3424 42.0856 10.3456 42.3594 10.6232C42.6332 10.9008 42.6301 11.3477 42.3525 11.6214C42.317 11.6564 42.278 11.6874 42.2361 11.7142C42.189 11.7522 42.1267 11.8054 42.0814 11.839C41.8937 11.9636 41.6988 12.0772 41.4979 12.1793C41.1268 12.3894 40.7771 12.6352 40.4536 12.9131C40.3593 13.0234 40.3121 13.1663 40.3218 13.311C40.2827 13.3468 40.1455 13.4684 40.0728 13.5344C41.318 15.3907 41.8386 17.6394 41.5356 19.8541L41.819 19.9366C41.8899 20.0643 41.9948 20.1697 42.122 20.2414C42.534 20.3511 42.9556 20.4205 43.381 20.4484C43.6063 20.4536 43.8311 20.4716 44.0543 20.5024C44.1133 20.5133 44.1987 20.5368 44.2589 20.5505C44.6447 20.6016 44.9161 20.9559 44.865 21.3417C44.8139 21.7276 44.4597 21.999 44.0738 21.9479C44.0305 21.9422 43.9879 21.9324 43.9465 21.9189L43.9364 21.9174C43.9317 21.9164 43.9274 21.9138 43.9226 21.9127C43.8648 21.9 43.792 21.8873 43.7413 21.8739C43.5269 21.8051 43.3165 21.7238 43.1114 21.6307C42.7157 21.4712 42.3055 21.3505 41.8865 21.2706C41.7414 21.2659 41.6003 21.3183 41.4934 21.4164C41.3937 21.3974 41.2936 21.3799 41.1932 21.3639C40.5143 23.5004 39.0737 25.3127 37.1455 26.4562Z" fill="#326CE5"/>
<path d="M44.2589 20.5506C44.1988 20.5368 44.1134 20.5133 44.0547 20.5024C43.8315 20.4715 43.6067 20.4534 43.3814 20.4481C42.9559 20.4202 42.5341 20.351 42.1221 20.2414C41.9949 20.1698 41.8899 20.0643 41.8191 19.9366L41.5357 19.8541C41.8387 17.6396 41.3183 15.3907 40.0732 13.5344C40.1456 13.4685 40.2832 13.3469 40.3219 13.311C40.3121 13.1663 40.3595 13.0235 40.4536 12.9132C40.7771 12.6353 41.1268 12.3896 41.498 12.1794C41.6989 12.0773 41.8938 11.9637 42.0815 11.8391C42.1268 11.8054 42.1887 11.7521 42.2361 11.7142C42.5653 11.5053 42.6627 11.0691 42.4539 10.7399C42.245 10.4108 41.8088 10.3133 41.4797 10.5222C41.437 10.5492 41.3975 10.5808 41.3616 10.6162C41.3138 10.6538 41.2487 10.7035 41.2059 10.7404C41.0418 10.8949 40.8869 11.0588 40.7419 11.2312C40.4549 11.5467 40.1378 11.8336 39.7952 12.0877C39.6603 12.1427 39.5127 12.1587 39.3692 12.1341L39.102 12.3249C37.5642 10.7112 35.493 9.71042 33.2731 9.50855C33.2666 9.41512 33.2586 9.24613 33.2561 9.19503C33.1369 9.11232 33.0546 8.98638 33.027 8.84391C33.0122 8.41775 33.0389 7.99106 33.1067 7.57008C33.1513 7.34964 33.1832 7.12669 33.2023 6.90258C33.2044 6.84613 33.2012 6.76395 33.2012 6.70277C33.2404 6.31493 32.9578 5.96863 32.5699 5.92942C32.1821 5.8902 31.8358 6.17282 31.7966 6.56065C31.7918 6.60817 31.7918 6.65596 31.7967 6.70348C31.7967 6.71 31.7981 6.71652 31.7985 6.72304C31.7978 6.78128 31.7948 6.85193 31.7967 6.90294C31.8159 7.12723 31.848 7.35017 31.8926 7.5708C31.96 7.99177 31.9861 8.41829 31.9708 8.84427C31.9308 8.9845 31.8518 9.11053 31.7427 9.20736L31.7261 9.50453C31.2989 9.53982 30.8747 9.60502 30.4566 9.69961C28.7002 10.0966 27.1025 11.0093 25.8686 12.3209C25.7833 12.262 25.6987 12.202 25.6149 12.141C25.4759 12.1825 25.3262 12.1679 25.1978 12.1004C24.8552 11.8467 24.5382 11.5603 24.2512 11.245C24.1067 11.0726 23.9523 10.9088 23.789 10.7542C23.7463 10.7176 23.6807 10.6676 23.6329 10.6296C23.4937 10.5174 23.3222 10.4527 23.1435 10.445C22.9282 10.4337 22.7203 10.5256 22.5839 10.6926C22.3469 11.0265 22.424 11.4891 22.7566 11.7279L22.7675 11.7355C22.8135 11.7731 22.8699 11.8213 22.9126 11.8525C23.0999 11.9771 23.2943 12.0908 23.4947 12.1931C23.866 12.4032 24.2157 12.6491 24.5391 12.9273C24.623 13.0464 24.672 13.1868 24.6803 13.3323L24.9051 13.5332C23.6634 15.3962 23.1532 17.6521 23.4723 19.8681L23.1783 19.9535C23.1016 20.0761 22.9985 20.18 22.8764 20.2576C22.4647 20.3674 22.0431 20.4369 21.6178 20.465C21.3924 20.4702 21.1674 20.4883 20.9441 20.5193C20.8902 20.529 20.8152 20.5482 20.7566 20.5627L20.7505 20.5641L20.7404 20.567C20.3544 20.6178 20.0828 20.9718 20.1335 21.3578C20.1844 21.7437 20.5383 22.0154 20.9243 21.9646C20.9678 21.9589 21.0108 21.9491 21.0524 21.9354L21.0629 21.934C21.0677 21.9329 21.0716 21.9303 21.0763 21.9296C21.1342 21.9166 21.207 21.9025 21.258 21.8887C21.4724 21.8203 21.6826 21.7396 21.8879 21.6473C22.2833 21.4878 22.6934 21.3671 23.1122 21.2871C23.2574 21.296 23.3972 21.3454 23.5158 21.4298L23.8221 21.3772C24.5093 23.5005 25.9497 25.2989 27.8718 26.4332L27.744 26.7395C27.8034 26.8629 27.8252 27.001 27.8066 27.1366C27.6315 27.5367 27.4186 27.9191 27.1709 28.2787C27.0347 28.4583 26.909 28.6456 26.7944 28.8398C26.7665 28.8927 26.731 28.9738 26.7043 29.0292C26.5036 29.363 26.6116 29.7962 26.9455 29.9968C27.2793 30.1974 27.7125 30.0895 27.9131 29.7556C27.9369 29.716 27.9567 29.6742 27.9724 29.6308L27.9734 29.6294V29.6279C28.0002 29.5729 28.0378 29.5009 28.0603 29.4495C28.1404 29.239 28.208 29.0241 28.2631 28.8058C28.3843 28.3619 28.5673 27.9372 28.8068 27.5442C28.8905 27.4657 28.996 27.4142 29.1094 27.3966L29.2687 27.1088C31.3533 27.9103 33.6601 27.9162 35.7487 27.125C35.7933 27.2047 35.8766 27.3567 35.8986 27.395C36.042 27.418 36.1706 27.4963 36.257 27.613C36.4558 27.9899 36.6173 28.3855 36.7391 28.7938C36.7947 29.0121 36.8627 29.227 36.943 29.4375C36.9658 29.4893 37.0031 29.5624 37.0299 29.6174C37.161 29.9843 37.5648 30.1754 37.9317 30.0443C38.2986 29.9131 38.4897 29.5093 38.3586 29.1425C38.343 29.0989 38.3232 29.0569 38.2993 29.0172C38.2725 28.9618 38.2357 28.8807 38.2078 28.8282C38.0932 28.6346 37.9675 28.4477 37.8313 28.2686C37.5879 27.9181 37.3794 27.5448 37.2086 27.1537C37.1716 27.0139 37.1909 26.8652 37.2626 26.7396C37.2176 26.6477 37.1786 26.553 37.1457 26.4562C39.0739 25.3128 40.5145 23.5004 41.1935 21.364C41.2843 21.3785 41.4425 21.406 41.4939 21.4165C41.6008 21.3185 41.7417 21.2661 41.8867 21.2707C42.3056 21.3507 42.7158 21.4713 43.1113 21.6308C43.3165 21.724 43.5269 21.8052 43.7416 21.874C43.7922 21.8874 43.8646 21.9001 43.9229 21.9128C43.9276 21.9142 43.9319 21.9165 43.9366 21.9175L43.9467 21.919C44.3165 22.0404 44.7148 21.839 44.8362 21.4691C44.9576 21.0994 44.7563 20.7011 44.3864 20.5797C44.3448 20.566 44.3021 20.5563 44.2589 20.5506ZM37.5866 13.3983L34.5857 15.5257L34.5751 15.521C34.3074 15.7164 33.9332 15.6662 33.7262 15.4073C33.644 15.3052 33.5967 15.1795 33.5912 15.0486L33.588 15.0472L33.3795 11.3693C34.9663 11.5663 36.4445 12.2791 37.5866 13.3983ZM31.9333 17.4295H33.0627L33.765 18.3073L33.513 19.4023L32.4987 19.8903L31.4815 19.4013L31.2291 18.3059L31.9333 17.4295ZM30.8705 11.4981C31.1179 11.4424 31.368 11.3994 31.6198 11.3692L31.411 15.0525L31.3958 15.0597C31.3814 15.4013 31.0928 15.6665 30.7513 15.6521C30.6295 15.647 30.512 15.606 30.4134 15.5343L30.4075 15.5375L27.387 13.3959C28.3486 12.4511 29.5551 11.7938 30.8705 11.4981ZM26.2916 14.7728L29.0492 17.239L29.0464 17.2542C29.3042 17.4788 29.3311 17.8697 29.1067 18.1275C29.0265 18.2196 28.9209 18.2859 28.8031 18.318L28.8003 18.33L25.2654 19.3501C25.0892 17.7527 25.4503 16.1421 26.2916 14.7728ZM29.984 21.3249L28.5795 24.7186C27.2314 23.8557 26.2058 22.572 25.6618 21.0668L29.2861 20.4513L29.2923 20.4593C29.3324 20.4516 29.3731 20.4479 29.4139 20.4484C29.7558 20.4536 30.0286 20.7348 30.0235 21.0767C30.0222 21.1572 30.0053 21.2369 29.9735 21.311L29.984 21.3249ZM34.1295 25.6894C32.8154 25.9907 31.4433 25.9202 30.1671 25.4856L31.9495 22.2624H31.9524C32.1145 21.961 32.4903 21.8481 32.7917 22.0101C32.8984 22.0674 32.9859 22.1548 33.0434 22.2613H33.0568L34.8436 25.4899C34.6119 25.5674 34.3738 25.634 34.1295 25.6894ZM36.4326 24.7324L35.0135 21.3039L35.0179 21.2977C34.8871 20.9931 35.0193 20.6393 35.318 20.4952C35.3921 20.4589 35.4727 20.438 35.5551 20.4336C35.6028 20.4314 35.6505 20.435 35.6974 20.4442L35.7035 20.4366L39.36 21.0545C38.8203 22.5717 37.7901 23.8659 36.4326 24.7324ZM39.7441 19.3382L36.1915 18.3148L36.1883 18.3C35.8583 18.2091 35.6646 17.8678 35.7555 17.5378C35.7879 17.4207 35.8539 17.3157 35.9453 17.2357L35.9439 17.2285L38.6864 14.7742C39.5262 16.1399 39.8975 17.7423 39.7441 19.3382Z" fill="white"/>
</g>
<defs>
<clipPath id="clip0_1_2302">
<rect width="65" height="48" fill="white"/>
</clipPath>
</defs>
</svg>
