<svg width="19" height="22" viewBox="0 0 19 22" fill="none" xmlns="http://www.w3.org/2000/svg">
<path d="M9.62293 12.4299C10.0327 12.4299 10.4384 12.3492 10.8169 12.1924C11.1954 12.0357 11.5394 11.8058 11.8291 11.5161C12.1188 11.2264 12.3486 10.8824 12.5054 10.5039C12.6622 10.1254 12.7429 9.71967 12.7429 9.30994C12.7429 8.90022 12.6622 8.49451 12.5054 8.11597C12.3486 7.73743 12.1188 7.39349 11.8291 7.10377C11.5394 6.81405 11.1954 6.58423 10.8169 6.42744C10.4384 6.27064 10.0327 6.18994 9.62293 6.18994C8.79545 6.18994 8.00187 6.51865 7.41676 7.10377C6.83164 7.68888 6.50293 8.48247 6.50293 9.30994C6.50293 10.1374 6.83164 10.931 7.41676 11.5161C8.00187 12.1012 8.79545 12.4299 9.62293 12.4299V12.4299Z" stroke="#091071" stroke-width="1.5"/>
<path d="M1.24276 7.49C3.21276 -1.17 16.0428 -1.16 18.0028 7.5C19.1528 12.58 15.9928 16.88 13.2228 19.54C12.2548 20.4735 10.9625 20.9952 9.61776 20.9952C8.273 20.9952 6.98068 20.4735 6.01276 19.54C3.25276 16.88 0.0927559 12.57 1.24276 7.49V7.49Z" stroke="#091071" stroke-width="1.5"/>
</svg>
