<svg width="63" height="60" viewBox="0 0 63 60" fill="none" xmlns="http://www.w3.org/2000/svg">
<g clip-path="url(#clip0_1_1968)">
<path d="M52.7142 31.4768C52.7142 31.3713 52.6853 31.2958 52.6257 31.2465C52.5598 31.1934 52.4457 31.1651 52.2869 31.1651H52.0586V31.7926H52.3341C52.5886 31.7926 52.7142 31.687 52.7142 31.4768ZM53.0702 32.7852H52.7565L52.5564 32.3437C52.4548 32.1225 52.3462 32.0118 52.2275 32.0118H52.0586V32.7852H51.8001V30.9448H52.318C52.5483 30.9448 52.7212 30.9947 52.84 31.0987C52.9406 31.1882 52.9908 31.3029 52.9908 31.4457C52.9908 31.5724 52.9498 31.679 52.8671 31.7674C52.7866 31.857 52.671 31.9173 52.5232 31.9485V31.9565C52.6257 31.9806 52.7283 32.0933 52.8278 32.2964L53.0702 32.7862V32.7852ZM53.6434 31.8831C53.6434 31.5211 53.5198 31.2154 53.2734 30.973C53.026 30.7306 52.7243 30.609 52.3683 30.609C52.0012 30.609 51.6956 30.7306 51.4532 30.9751C51.2108 31.2204 51.0902 31.524 51.0902 31.8831C51.0902 32.2502 51.2158 32.5569 51.4652 32.8013C51.7117 33.0456 52.0133 33.1663 52.3683 33.1663C52.7212 33.1663 53.0229 33.0447 53.2714 32.7972C53.5198 32.5538 53.6434 32.2482 53.6434 31.8831ZM53.8174 31.8751C53.8174 32.2815 53.6777 32.6224 53.3971 32.8969C53.1165 33.1735 52.7726 33.3112 52.3612 33.3112C51.947 33.3112 51.603 33.1755 51.3294 32.9089C51.056 32.6385 50.9202 32.2986 50.9202 31.8863C50.9202 31.4829 51.0589 31.1441 51.3365 30.8656C51.6141 30.588 51.96 30.4492 52.3734 30.4492C52.7786 30.4492 53.1185 30.582 53.3941 30.8464C53.6766 31.1179 53.8174 31.4599 53.8174 31.8751Z" fill="black"/>
<path d="M14.4835 37.0069H13.5915V31.9022C13.5915 31.499 13.6181 31.0083 13.6656 30.429H13.6455C13.5619 30.7679 13.4855 31.0133 13.4182 31.1652L10.8256 37.0069H10.3912L7.79355 31.2074C7.72033 31.0454 7.64374 30.785 7.56627 30.429H7.54697C7.57432 30.7337 7.58961 31.2275 7.58961 31.9123V37.0069H6.72974V29.4053H7.90634L10.2385 34.706C10.4144 35.1053 10.5281 35.409 10.5834 35.6161H10.6204C10.7722 35.2008 10.8929 34.889 10.9844 34.6839L13.3668 29.4053H14.483V37.0069H14.4835Z" fill="black"/>
<path d="M17.2271 37.0066H16.3603V31.5781H17.2271V37.0066ZM17.3769 29.6321C17.3769 29.7921 17.3206 29.9258 17.2089 30.0354C17.0994 30.145 16.9637 30.2004 16.8047 30.2004C16.6498 30.2004 16.5151 30.1472 16.4045 30.0415C16.2939 29.9349 16.2395 29.7991 16.2395 29.6321C16.2395 29.4752 16.2942 29.3415 16.4045 29.2329C16.5151 29.1243 16.6498 29.072 16.8047 29.072C16.9636 29.072 17.0994 29.1243 17.2089 29.2329C17.3206 29.3415 17.3769 29.4752 17.3769 29.6321Z" fill="black"/>
<path d="M22.6443 36.7556C22.2279 37.0111 21.7311 37.1378 21.1569 37.1378C20.3786 37.1378 19.752 36.8794 19.2734 36.3634C18.8087 35.8626 18.5745 35.216 18.5745 34.4236C18.5745 33.5345 18.8289 32.8145 19.3417 32.2674C19.8516 31.7193 20.5375 31.4458 21.4003 31.4458C21.872 31.4458 22.2903 31.5383 22.6563 31.7214V32.6134C22.2511 32.3288 21.8227 32.188 21.3631 32.188C20.81 32.188 20.3605 32.3811 20.0115 32.7663C19.6484 33.1605 19.4644 33.6874 19.4644 34.3451C19.4644 34.9767 19.6324 35.4764 19.9663 35.8455C20.3011 36.2126 20.7467 36.3966 21.3088 36.3966C21.7834 36.3966 22.2279 36.2407 22.6443 35.93V36.7556Z" fill="black"/>
<path d="M26.7911 32.4589C26.6382 32.3413 26.418 32.2839 26.1273 32.2839C25.7744 32.2839 25.4777 32.4418 25.2374 32.7606C24.9648 33.1166 24.8291 33.6093 24.8291 34.2389V37.0064H23.9602V31.5779H24.8291V32.6973H24.85C24.9778 32.301 25.1749 31.9963 25.4384 31.7801C25.6847 31.583 25.9633 31.4834 26.27 31.4834C26.5013 31.4834 26.6733 31.5083 26.7909 31.5574V32.4585L26.7911 32.4589Z" fill="black"/>
<path d="M31.6336 34.3022C31.6336 33.6074 31.4767 33.0764 31.163 32.7123C30.8583 32.3624 30.4329 32.1874 29.8848 32.1874C29.3447 32.1874 28.9114 32.3644 28.5875 32.7184C28.2446 33.0965 28.0736 33.6305 28.0736 34.3234C28.0736 34.9731 28.2365 35.4829 28.5654 35.8469C28.8922 36.213 29.3327 36.396 29.8848 36.396C30.456 36.396 30.8934 36.21 31.1931 35.8399C31.4868 35.4779 31.6336 34.966 31.6336 34.3022ZM32.5246 34.2717C32.5246 35.1365 32.2803 35.8315 31.7935 36.3524C31.3048 36.8753 30.6471 37.1368 29.8205 37.1368C29.0059 37.1368 28.3572 36.8753 27.8816 36.3524C27.4159 35.8485 27.1816 35.1828 27.1816 34.3552C27.1816 33.4108 27.4461 32.6827 27.9771 32.1659C28.4678 31.6862 29.1245 31.4448 29.9472 31.4448C30.7567 31.4448 31.3893 31.6972 31.8448 32.1971C32.2964 32.6999 32.5246 33.3918 32.5246 34.2717Z" fill="black"/>
<path d="M36.834 35.5544C36.834 35.9989 36.6681 36.367 36.3352 36.6606C35.9722 36.9784 35.4734 37.1373 34.8459 37.1373C34.332 37.1373 33.8814 37.0297 33.4993 36.8105V35.8762C33.9247 36.2221 34.3943 36.3962 34.9102 36.3962C35.5981 36.3962 35.943 36.1427 35.943 35.6379C35.943 35.4257 35.8674 35.2497 35.7148 35.1139C35.5619 34.9751 35.2652 34.8092 34.8237 34.6151C34.3692 34.416 34.0454 34.2119 33.8543 33.9997C33.625 33.7482 33.5093 33.4215 33.5093 33.0192C33.5093 32.5686 33.6894 32.1935 34.0454 31.8949C34.4023 31.5952 34.8609 31.4453 35.4241 31.4453C35.8555 31.4453 36.2417 31.5298 36.5846 31.6998V32.5747C36.2266 32.3162 35.8173 32.1875 35.3527 32.1875C35.0651 32.1875 34.8338 32.2591 34.6618 32.3987C34.4879 32.5415 34.4003 32.7235 34.4003 32.9457C34.4003 33.1861 34.4735 33.3732 34.6186 33.5069C34.7473 33.6306 35.0208 33.7815 35.4332 33.9574C35.8967 34.1515 36.2317 34.3527 36.4358 34.5588C36.7003 34.8193 36.834 35.1512 36.834 35.5544Z" fill="black"/>
<path d="M42.1439 34.3022C42.1439 33.6074 41.987 33.0764 41.6723 32.7123C41.3686 32.3624 40.9422 32.1874 40.3951 32.1874C39.855 32.1874 39.4216 32.3644 39.0958 32.7184C38.7539 33.0965 38.5839 33.6305 38.5839 34.3234C38.5839 34.9731 38.7468 35.4829 39.0726 35.8469C39.4035 36.213 39.844 36.396 40.3951 36.396C40.9673 36.396 41.4037 36.21 41.7034 35.8399C41.997 35.4779 42.1439 34.966 42.1439 34.3022ZM43.0369 34.2717C43.0369 35.1365 42.7905 35.8315 42.3028 36.3524C41.816 36.8753 41.1583 37.1368 40.3317 37.1368C39.5162 37.1368 38.8675 36.8753 38.3918 36.3524C37.9262 35.8485 37.6919 35.1828 37.6919 34.3552C37.6919 33.4108 37.9584 32.6827 38.4864 32.1659C38.9771 31.6862 39.6348 31.4448 40.4584 31.4448C41.268 31.4448 41.8995 31.6972 42.3541 32.1971C42.8066 32.6999 43.0369 33.3918 43.0369 34.2717Z" fill="black"/>
<path d="M46.8656 29.7337C46.6947 29.6392 46.5047 29.5909 46.2884 29.5909C45.6799 29.5909 45.3782 29.974 45.3782 30.7413V31.578H46.6504V32.3142H45.3782V37.0065H44.5084V32.3142H43.5852V31.578H44.5084V30.6981C44.5084 30.1007 44.6914 29.6321 45.0635 29.2942C45.3823 29.0005 45.7724 28.8547 46.2361 28.8547C46.5046 28.8547 46.7138 28.8869 46.8656 28.9493V29.7337Z" fill="black"/>
<path d="M50.295 36.9521C50.0898 37.0698 49.8163 37.1281 49.4784 37.1281C48.5311 37.1281 48.0575 36.5941 48.0575 35.5261V32.3151H47.1262V31.5779H48.0575V30.2535C48.335 30.166 48.6236 30.0705 48.9283 29.9719V31.5779H50.295V32.3151H48.9283V35.3783C48.9283 35.7423 48.9879 36.0028 49.1123 36.1536C49.2381 36.3095 49.4432 36.386 49.7329 36.386C49.949 36.386 50.1361 36.328 50.295 36.211V36.9521Z" fill="black"/>
<path d="M3.32329 58.1931C3.32329 58.6185 3.17147 58.9866 2.86471 59.2973C2.55899 59.6071 2.18787 59.763 1.75246 59.763C1.32703 59.763 0.964999 59.6071 0.668374 59.2973C0.371668 58.9866 0.223877 58.6185 0.223877 58.1931C0.223877 57.7557 0.371668 57.3866 0.668374 57.0809C0.964999 56.7741 1.32703 56.6223 1.75246 56.6223C2.18787 56.6223 2.55899 56.7762 2.86471 57.0869C3.17147 57.3977 3.32329 57.7667 3.32329 58.1931Z" fill="black"/>
<path d="M22.7783 59.4434H19.9444L9.65764 43.5572C9.41725 43.175 9.21008 42.7597 9.03414 42.3061H8.94958C9.02279 42.7315 9.06028 43.6446 9.06028 45.0435V59.4434H6.72412V39.5125H9.75619L19.7352 55.1483C20.1325 55.7687 20.4039 56.2132 20.5417 56.4807H20.5972C20.5047 55.9075 20.4565 54.93 20.4565 53.5503V39.5125H22.7785V59.4434H22.7783Z" fill="black"/>
<path d="M37.7548 59.4434H27.1914V39.5125H37.2962V41.6243H29.5256V48.2545H36.726V50.3674H29.5256V57.3305H37.7548V59.4434Z" fill="black"/>
<path d="M53.7771 41.6245H48.0359V59.4437H45.7008V41.6245H39.9485V39.5117H53.7771V41.6245Z" fill="black"/>
<path d="M21.9856 5.08736C24.2392 11.979 25.093 24.2731 31.6831 24.2731C32.1849 24.2731 32.6917 24.224 33.2006 24.1273C27.2099 22.7304 26.4999 10.5701 22.8444 4.27271C22.5578 4.53319 22.2732 4.80472 21.9856 5.08736Z" fill="url(#paint0_linear_1_1968)"/>
<path d="M22.844 4.27263C26.4995 10.57 27.2095 22.7304 33.2002 24.1272C33.6708 24.0407 34.1425 23.91 34.6151 23.745C29.2379 21.1102 27.7515 9.3019 23.6002 3.61694C23.3488 3.8262 23.0964 4.04543 22.844 4.27263Z" fill="url(#paint1_linear_1_1968)"/>
<path d="M28.1113 0.527588C27.6105 0.527588 27.1026 0.576654 26.5928 0.673451C25.2593 0.924855 23.9047 1.49904 22.5391 2.36792C22.9121 2.73599 23.2671 3.15732 23.601 3.61694C24.9898 2.46446 26.3695 1.61271 27.7443 1.1008C28.2602 0.909735 28.7741 0.765964 29.2899 0.671438C28.9179 0.576813 28.5256 0.527588 28.1113 0.527588Z" fill="#14559A"/>
<path d="M38.8128 21.3163C39.3629 20.8789 39.914 20.3951 40.4661 19.8672C38.1762 13.0076 37.3566 0.537598 30.7203 0.537598C30.2457 0.537598 29.767 0.581843 29.2893 0.670332C35.3343 2.17382 36.1086 15.3257 38.8128 21.3163Z" fill="url(#paint2_linear_1_1968)"/>
<path d="M29.2902 0.670851C28.9181 0.576325 28.5259 0.5271 28.1116 0.5271L30.7212 0.536662C30.2466 0.536662 29.7679 0.580907 29.2902 0.670452" fill="#3092C4"/>
<path d="M38.6971 22.7736C38.4377 22.5262 38.1913 22.2547 37.9489 21.9651C36.8326 22.7555 35.7204 23.3549 34.6152 23.7451C35.0084 23.9372 35.4207 24.08 35.8582 24.1685C36.1971 24.2377 36.5481 24.2731 36.9171 24.2731C38.1571 24.2731 39.1376 24.1263 39.9723 23.726C39.5127 23.4776 39.0913 23.1558 38.6971 22.7736Z" fill="#1969BC"/>
<path d="M27.7444 1.10188C33.1588 3.93377 33.6294 16.7578 37.9497 21.9651C38.2393 21.7609 38.5259 21.5447 38.8126 21.3164C36.1084 15.3258 35.335 2.17284 29.2911 0.67041C28.7752 0.766948 28.2603 0.909842 27.7444 1.10188Z" fill="url(#paint3_linear_1_1968)"/>
<path d="M23.6006 3.61689C27.7519 9.30185 29.2383 21.1102 34.6154 23.745C35.7207 23.3548 36.8329 22.7554 37.9492 21.965C33.6289 16.7577 33.1583 3.9337 27.7438 1.10181C26.3691 1.61266 24.9894 2.46441 23.6006 3.61689Z" fill="url(#paint4_linear_1_1968)"/>
<path d="M19.3291 4.92126C18.6785 6.39257 18.0137 8.32638 17.2102 10.8506C18.8082 8.59888 20.4011 6.65902 21.985 5.08724C21.7668 4.41644 21.5325 3.79798 21.2801 3.24683C20.6324 3.74264 19.9798 4.30081 19.3291 4.92126Z" fill="url(#paint5_linear_1_1968)"/>
<path d="M21.8574 2.82275C21.6664 2.95951 21.4743 3.09934 21.2812 3.24713C21.5336 3.79823 21.7669 4.41674 21.9852 5.08747C22.2727 4.80588 22.5583 4.53338 22.8439 4.27289C22.5373 3.74592 22.2114 3.25919 21.8574 2.82275Z" fill="#2B74B1"/>
<path d="M22.5395 2.36792C22.3122 2.51177 22.086 2.66357 21.8577 2.82246C22.2116 3.25891 22.5375 3.74565 22.8452 4.27366C23.0977 4.04534 23.35 3.82513 23.6015 3.61694C23.2676 3.15739 22.9126 2.73598 22.5395 2.36792Z" fill="#125A9E"/>
<path d="M59.4702 0.00276904C56.4079 11.8121 50.012 21.2973 44.6499 23.6888H44.6397C44.5422 23.733 44.4456 23.7733 44.3501 23.8124C44.337 23.8204 44.325 23.8214 44.3149 23.8262C44.2867 23.8375 44.2606 23.8463 44.2324 23.8575C44.2193 23.8655 44.2073 23.8681 44.1952 23.8729C44.15 23.889 44.1057 23.9027 44.0615 23.9204C44.0424 23.9283 44.0243 23.9333 44.0061 23.9397C43.986 23.9476 43.9628 23.955 43.9398 23.9614C43.9197 23.9694 43.8986 23.9752 43.8754 23.9839C43.8563 23.9919 43.8361 23.9953 43.8181 24.0032C43.7789 24.0146 43.7427 24.0242 43.7035 24.0378C43.6873 24.0378 43.6723 24.0466 43.6552 24.0508C43.6311 24.0587 43.6039 24.0645 43.5777 24.0717C43.5596 24.0797 43.5446 24.0823 43.5254 24.0862C43.4982 24.0942 43.4681 24.1016 43.441 24.108C43.4048 24.1159 43.3726 24.1233 43.3384 24.1305C43.5807 24.22 43.8332 24.2652 44.1057 24.2652C49.1903 24.2652 54.317 15.1531 62.7996 0H59.469L59.4702 0.00276904Z" fill="url(#paint6_linear_1_1968)"/>
<path d="M16.1065 1.00674C16.1096 1.00674 16.1136 0.998775 16.1156 0.998775C16.1196 0.998775 16.1258 0.998776 16.1278 0.990807H16.1342C16.1623 0.981245 16.1885 0.96989 16.2166 0.959431C16.2238 0.959431 16.2276 0.959431 16.2327 0.951463C16.2399 0.951463 16.2469 0.943494 16.2539 0.942498C16.2841 0.932936 16.3142 0.921581 16.3424 0.911122H16.3472C16.4146 0.891022 16.4769 0.866081 16.5423 0.842753C16.5514 0.842753 16.5604 0.834785 16.5714 0.834785C16.5986 0.826019 16.6268 0.816258 16.6549 0.809843C16.668 0.801875 16.681 0.801875 16.6931 0.797691C16.7222 0.788926 16.7505 0.779165 16.7776 0.77275C16.7897 0.77275 16.8007 0.764782 16.8097 0.763985C16.9033 0.738247 16.9958 0.714102 17.0893 0.691572C17.1025 0.691572 17.1135 0.683603 17.1275 0.682806C17.1546 0.674838 17.1798 0.670654 17.209 0.66667C17.2211 0.658702 17.2351 0.658702 17.2492 0.654518C17.2763 0.64655 17.3025 0.645753 17.3317 0.639179H17.3508C17.4071 0.627824 17.4644 0.618262 17.5208 0.607803H17.5549C17.5821 0.599835 17.6062 0.599038 17.6334 0.594058C17.6483 0.594058 17.6636 0.586089 17.6776 0.586089C17.7027 0.586089 17.7279 0.578121 17.753 0.574734C17.7662 0.574734 17.7792 0.574734 17.7943 0.566766C17.8536 0.558797 17.915 0.55561 17.9773 0.550629C17.8013 0.533696 17.6203 0.522461 17.4363 0.522461C11.7101 0.522461 3.82081 11.1471 0.266846 24.9064H0.951693C2.08908 22.878 3.11082 20.9592 4.04507 19.1581C6.53405 9.41239 11.6035 2.76602 16.1068 1.00517" fill="url(#paint7_linear_1_1968)"/>
<path d="M19.3293 4.92131C19.98 4.30087 20.6327 3.7427 21.2803 3.24696C21.1325 2.92314 20.9797 2.62345 20.8157 2.34888C20.2918 2.98444 19.8131 3.82316 19.3293 4.92131Z" fill="#0D82CA"/>
<path d="M19.8 1.08747C20.1741 1.40122 20.5089 1.83268 20.8157 2.34959C20.9122 2.23092 21.0098 2.12127 21.1113 2.0187C20.686 1.62149 20.2263 1.29566 19.7275 1.05029C19.7477 1.06145 19.7678 1.07041 19.7887 1.07926C19.7887 1.07926 19.7966 1.08723 19.8 1.08723" fill="#0D82CA"/>
<path d="M4.04517 19.1594C9.26649 9.0978 11.7404 2.73002 16.1069 1.00635C11.6046 2.76831 6.53415 9.4146 4.04517 19.1594Z" fill="url(#paint8_linear_1_1968)"/>
<path d="M21.1113 2.01831C21.0098 2.12194 20.9133 2.23055 20.8157 2.34922C20.9796 2.62371 21.1324 2.92243 21.2813 3.24723C21.4744 3.09943 21.6664 2.9596 21.8575 2.82285C21.6212 2.5312 21.3718 2.26071 21.1113 2.01831Z" fill="#127BCA"/>
<path d="M6.41473 24.8624C6.38255 24.8703 6.35037 24.8703 6.3202 24.8737H6.30209C6.2749 24.8737 6.24674 24.8817 6.22164 24.8817H6.20853C6.1432 24.8897 6.0788 24.8897 6.01645 24.8946H5.99634C11.281 24.7468 13.6966 22.1009 14.8953 18.2633C15.8064 15.354 16.5546 12.9032 17.2103 10.8467C14.9969 13.9622 12.7734 17.676 10.5378 21.8364C9.45979 23.8417 7.82058 24.6793 6.41469 24.8584" fill="url(#paint9_linear_1_1968)"/>
<path d="M6.41504 24.8605C7.82094 24.6814 9.46014 23.8447 10.5382 21.8385C12.7737 17.6791 14.9982 13.9643 17.2097 10.8487C18.0142 8.32352 18.6779 6.39075 19.3296 4.91943C14.9218 9.11501 10.497 16.0912 6.41504 24.8585" fill="url(#paint10_linear_1_1968)"/>
<path d="M4.04455 19.1597C3.11034 20.9608 2.0886 22.8796 0.951172 24.908H2.9434C3.20688 22.8936 3.58098 20.9728 4.04455 19.1606" fill="#05A1E6"/>
<path d="M17.7941 0.571869C17.778 0.571869 17.7659 0.579838 17.7519 0.579838C17.7277 0.587806 17.7025 0.587806 17.6774 0.590396C17.6625 0.590396 17.6483 0.590396 17.6332 0.598364C17.606 0.606333 17.5809 0.60713 17.5547 0.61211C17.5426 0.61211 17.5306 0.61211 17.5206 0.620078C17.4632 0.629641 17.4069 0.640199 17.3506 0.649841H17.3315C17.3023 0.657809 17.2761 0.661993 17.249 0.665977C17.2349 0.673945 17.2208 0.673945 17.2077 0.677133C17.1806 0.685101 17.1534 0.688488 17.1273 0.693269C17.1132 0.701237 17.1022 0.701237 17.0891 0.702034C16.9956 0.724565 16.903 0.748709 16.8095 0.774447C16.7995 0.774447 16.7894 0.782416 16.7773 0.78401C16.7492 0.791978 16.722 0.800146 16.6929 0.808951C16.6807 0.816919 16.6667 0.816919 16.6546 0.820107C16.6265 0.828075 16.5983 0.836243 16.5712 0.845048C16.5602 0.845048 16.5511 0.853016 16.541 0.853016C16.4766 0.877141 16.4133 0.901285 16.3469 0.921406C16.3188 0.930171 16.2886 0.941506 16.2584 0.951965C16.2463 0.959933 16.2352 0.961726 16.2212 0.967304C16.1931 0.976069 16.1649 0.987424 16.1388 0.997883C16.1288 1.00585 16.1187 1.00665 16.1117 1.01083C11.7451 2.73451 9.27124 9.10228 4.04992 19.1638C3.58631 20.976 3.2112 22.8968 2.94873 24.9111H3.2283C4.01572 24.9111 4.23797 24.9031 5.14406 24.9031H5.19032H5.32508H5.37134H5.38444H5.4307H5.45685H5.47496H5.51116H5.6238H5.73643H5.83096H5.85606H6.02199C6.08434 24.8952 6.1487 24.8952 6.21407 24.8902H6.22614C6.25334 24.8902 6.28045 24.8822 6.3066 24.8822H6.32566C6.35478 24.8822 6.38801 24.8742 6.42019 24.8708C10.5021 16.1036 14.927 9.12738 19.3347 4.93181C19.8194 3.83366 20.2971 2.99494 20.8201 2.36041C20.5143 1.84352 20.1795 1.41109 19.8054 1.09725C19.8054 1.09725 19.7952 1.09725 19.7944 1.08928C19.7733 1.08052 19.7532 1.06996 19.7321 1.05952C19.7109 1.04816 19.6928 1.0394 19.6708 1.02814C19.6516 1.02017 19.6295 1.00962 19.6104 0.999178C19.5843 0.991209 19.5631 0.979854 19.54 0.969396C19.5209 0.961427 19.5038 0.95326 19.4847 0.945271C19.4454 0.929932 19.4063 0.913895 19.369 0.897002C19.3519 0.889034 19.3359 0.88485 19.3197 0.878476C19.2926 0.868714 19.2614 0.855945 19.2332 0.843873C19.2191 0.835904 19.2031 0.83431 19.187 0.828533C19.1458 0.814788 19.1055 0.800385 19.0673 0.787496H19.0573C19.0111 0.772156 18.9658 0.760961 18.9185 0.748072C18.9076 0.740103 18.8984 0.740103 18.8874 0.73851C18.8461 0.727155 18.8099 0.715979 18.7708 0.70552C18.7608 0.70552 18.7516 0.697552 18.7436 0.697552C18.6491 0.672611 18.5516 0.65251 18.453 0.634003C18.4428 0.634003 18.4329 0.626035 18.4228 0.626035C18.3806 0.618066 18.3394 0.610696 18.2971 0.605915C18.287 0.597946 18.281 0.597946 18.272 0.597946C18.2218 0.589978 18.1725 0.5842 18.1232 0.578623H18.0971C18.0568 0.570654 18.0197 0.569857 17.9824 0.565674C17.919 0.573642 17.8587 0.577029 17.7994 0.582607" fill="url(#paint11_linear_1_1968)"/>
<path d="M47.5088 6.54037C46.5042 9.75845 45.6906 12.4134 44.9827 14.5976C47.7391 10.8043 50.4544 6.03248 53.04 0.525635C50.024 1.47287 48.4149 3.64112 47.5088 6.54037Z" fill="url(#paint12_linear_1_1968)"/>
<path d="M45.0703 23.4876C44.9295 23.5592 44.7887 23.6273 44.6499 23.6887C50.012 21.2973 56.4079 11.812 59.4702 0.00268555H58.8497C51.8141 12.5702 49.5514 20.9835 45.0703 23.4876Z" fill="url(#paint13_linear_1_1968)"/>
<path d="M41.5692 22.4319C42.7358 21.0079 43.6861 18.5873 44.9834 14.5979C43.4869 16.6534 41.9806 18.4204 40.4731 19.8615C40.4731 19.8694 40.4731 19.8694 40.4651 19.8744C40.794 20.86 41.155 21.7298 41.5663 22.4317" fill="#079AE1"/>
<path d="M41.5689 22.4319C41.1716 22.9166 40.7513 23.2857 40.2837 23.5593C40.1811 23.6188 40.0776 23.6749 39.9719 23.7262C40.4657 23.9927 41.0047 24.1707 41.6081 24.2421C41.6965 24.2508 41.784 24.259 41.8756 24.2654H41.8917C41.9328 24.2654 41.9762 24.2654 42.0205 24.2734H42.0382H42.17H42.3118H42.3561H42.4566C42.4728 24.2734 42.4896 24.2734 42.5057 24.2654C42.5371 24.2654 42.5701 24.2654 42.6022 24.2574H42.6136H42.6498C42.6828 24.2574 42.719 24.2495 42.7544 24.2461H42.7623C42.7729 24.2461 42.7841 24.2381 42.7945 24.2381C42.8315 24.2301 42.8702 24.2267 42.9062 24.2212H42.9392C42.9802 24.2132 43.0226 24.2082 43.0648 24.2002H43.0728H43.085C43.1694 24.1841 43.2519 24.1681 43.3353 24.1472C42.6434 23.8937 42.0642 23.2964 41.5654 22.4456" fill="#1969BC"/>
<path d="M31.6829 24.2734C32.1847 24.2734 32.6916 24.2243 33.2004 24.1266C33.6711 24.0411 34.1427 23.9103 34.6153 23.7454C35.0086 23.9375 35.4209 24.0803 35.8573 24.1688C36.1962 24.238 36.5482 24.2734 36.9173 24.2734H31.6829Z" fill="#1E5CB3"/>
<path d="M36.9176 24.2731C38.1566 24.2731 39.1381 24.1263 39.9718 23.7261C40.4655 23.9925 41.0046 24.1706 41.6079 24.242C41.6965 24.2508 41.784 24.2589 41.8755 24.2653H41.8916C41.9326 24.2653 41.9761 24.2653 42.0203 24.2733H42.0389H42.1706H36.9141L36.9176 24.2731Z" fill="#1E5CB3"/>
<path d="M42.1738 24.2733H42.3166H42.3609H42.4605C42.4774 24.2733 42.4935 24.2733 42.5096 24.2653C42.5409 24.2653 42.5739 24.2653 42.6072 24.2574H42.6177H42.6547C42.6877 24.2574 42.7239 24.2494 42.7583 24.2462H42.7671C42.7777 24.2462 42.788 24.2383 42.7985 24.2383C42.8355 24.2303 42.8741 24.2271 42.9101 24.2213C42.9222 24.2213 42.9318 24.2213 42.9447 24.2133C42.9857 24.2054 43.0282 24.2012 43.0704 24.1932H43.0784H43.0905C43.175 24.1771 43.2575 24.1611 43.3409 24.1401C43.5832 24.2296 43.8357 24.2749 44.1082 24.2749L42.1753 24.2829L42.1738 24.2733Z" fill="#1D60B5"/>
<path d="M40.4675 19.8744V19.8665C39.9155 20.3944 39.3644 20.8781 38.8142 21.3156C38.5266 21.5439 38.2401 21.7601 37.9504 21.9643C38.1928 22.2539 38.4392 22.5254 38.6986 22.7728C39.0929 23.1549 39.5142 23.4767 39.9738 23.7251C40.0784 23.6736 40.183 23.6174 40.2845 23.5582C40.7531 23.2846 41.1735 22.9156 41.5708 22.4309C41.1594 21.7289 40.7984 20.859 40.4696 19.8735" fill="#175FAB"/>
<path d="M56.8843 0.00268555H54.2756H54.0161H53.7708H53.7612C53.5922 0.010654 53.4284 0.0164311 53.2664 0.02683C53.19 0.190801 53.1116 0.354752 53.0361 0.519679C50.4506 6.02652 47.7354 10.7984 44.9789 14.5917C43.6826 18.581 42.7313 21.0017 41.5647 22.4257C42.0635 23.2765 42.6438 23.8748 43.3336 24.1282C43.3538 24.1202 43.3698 24.1202 43.3879 24.1161H43.3991C43.4112 24.1161 43.4242 24.1081 43.4373 24.1081C43.4655 24.1001 43.4957 24.0951 43.5238 24.0864C43.5419 24.0784 43.557 24.0776 43.5751 24.0718C43.6013 24.0639 43.6284 24.0581 43.6525 24.0517C43.6687 24.0437 43.6847 24.0412 43.7008 24.038C43.741 24.025 43.7772 24.0154 43.8155 24.0034C43.8336 23.9954 43.8527 23.9888 43.8728 23.984C43.8949 23.9761 43.917 23.9703 43.9372 23.9607C43.9603 23.9527 43.9834 23.9486 44.0035 23.9398C44.0217 23.9318 44.0407 23.9268 44.0578 23.9197C44.103 23.9035 44.1474 23.8899 44.1926 23.8722C44.2047 23.8722 44.2167 23.861 44.2298 23.8585C44.257 23.8471 44.2851 23.8383 44.3123 23.8263C44.3223 23.8183 44.3344 23.8175 44.3475 23.8133C44.442 23.7739 44.5395 23.7337 44.6371 23.6897H44.6473C44.786 23.6285 44.9268 23.5599 45.0666 23.4885C49.5488 20.9845 51.8115 12.5712 58.847 0.00366168H56.882L56.8843 0.00268555Z" fill="url(#paint14_linear_1_1968)"/>
<path d="M17.9768 0.554899C17.988 0.554899 17.998 0.554899 18.009 0.562867C18.0361 0.562867 18.0633 0.562867 18.0904 0.571633H18.1176C18.1669 0.579601 18.2162 0.583785 18.2665 0.590956C18.2756 0.590956 18.2836 0.590956 18.2916 0.598925C18.3328 0.606893 18.375 0.613467 18.4173 0.619842C18.4264 0.619842 18.4384 0.62781 18.4485 0.62781C18.545 0.647134 18.6436 0.667234 18.7381 0.692176C18.7471 0.692176 18.7562 0.700144 18.7643 0.700144C18.8045 0.709706 18.8407 0.721858 18.8809 0.733114C18.8931 0.733114 18.902 0.741082 18.9131 0.742875C18.9604 0.755027 19.0046 0.767019 19.0509 0.782299C19.0529 0.782299 19.0557 0.782299 19.061 0.790267C19.1002 0.80222 19.1404 0.817619 19.1817 0.831285C19.1978 0.839253 19.2128 0.84264 19.228 0.846624C19.2561 0.858776 19.2873 0.870749 19.3145 0.882024C19.3306 0.882024 19.3466 0.89318 19.3637 0.898957C19.4008 0.91589 19.4401 0.93113 19.4783 0.947226C19.4984 0.955195 19.5155 0.964159 19.5346 0.971351C19.5568 0.982706 19.5799 0.993085 19.604 1.00113C19.6241 1.01069 19.6462 1.02123 19.6653 1.03008C19.6865 1.04143 19.7065 1.0502 19.7267 1.06145C20.2255 1.30684 20.6851 1.63371 21.1105 2.02994C21.2673 1.86501 21.4313 1.71714 21.6012 1.5844C20.671 0.924695 19.6171 0.548584 18.4012 0.548584C18.2604 0.548584 18.1197 0.556552 17.9769 0.567111" fill="#7DCBEC"/>
<path d="M21.1106 2.01829C21.3711 2.26061 21.6205 2.53118 21.8568 2.82283C22.0851 2.66393 22.3113 2.51106 22.5386 2.36827C22.2409 2.07058 21.9272 1.80308 21.6003 1.57275C21.4304 1.70453 21.2675 1.85336 21.1106 2.01829Z" fill="#5EC5ED"/>
<path d="M17.9771 0.554793C18.1199 0.542726 18.2607 0.537697 18.4015 0.537697C19.6173 0.537697 20.6712 0.91381 21.6014 1.57251C22.5829 0.79816 23.7696 0.527641 25.4179 0.527641H17.436C17.6201 0.527641 17.8001 0.538703 17.9771 0.554793Z" fill="url(#paint15_linear_1_1968)"/>
<path d="M25.4182 0.527583C23.77 0.527583 22.5833 0.798103 21.6018 1.57245C21.9276 1.80275 22.2414 2.07025 22.5391 2.36792C23.9057 1.49904 25.2594 0.923809 26.5938 0.672397C27.1027 0.57686 27.6106 0.527583 28.1114 0.527583H25.4182Z" fill="url(#paint16_linear_1_1968)"/>
<path d="M44.9832 14.5998C45.6922 12.4135 46.5037 9.75968 47.5104 6.54054C48.4175 3.64026 50.0235 1.47208 53.0394 0.525808C53.1191 0.363849 53.1943 0.19691 53.2718 0.032959C48.3551 0.327653 46.0572 2.82865 44.9007 6.53251C42.8784 12.9988 41.6535 17.1904 40.4739 19.8614C41.9803 18.4213 43.4868 16.6534 44.9832 14.5998Z" fill="url(#paint17_linear_1_1968)"/>
<path d="M52.1963 22.5506H51.6392V24.2823H51.4119V22.5506H50.8528V22.3445H52.1963V22.5506Z" fill="black"/>
<path d="M54.4774 24.2821H54.2512V22.9808C54.2512 22.8782 54.2592 22.7525 54.2697 22.6046C54.2464 22.6932 54.2271 22.7545 54.2094 22.7937L53.5497 24.2821H53.439L52.7773 22.8048C52.758 22.7638 52.7387 22.6972 52.7178 22.6046H52.7098C52.7178 22.6827 52.7204 22.8088 52.7204 22.9838V24.2821H52.5032V22.3442H52.8028L53.3972 23.6968C53.4422 23.7984 53.4704 23.8768 53.4847 23.9291H53.4935C53.5329 23.8225 53.5651 23.743 53.587 23.6907L54.1934 22.3442H54.479V24.2821H54.4774Z" fill="black"/>
</g>
<defs>
<linearGradient id="paint0_linear_1_1968" x1="27.5928" y1="0.369416" x2="27.5928" y2="30.1983" gradientUnits="userSpaceOnUse">
<stop stop-color="#0994DC"/>
<stop offset="0.350006" stop-color="#66CEF5"/>
<stop offset="0.846161" stop-color="#127BCA"/>
<stop offset="1" stop-color="#127BCA"/>
</linearGradient>
<linearGradient id="paint1_linear_1_1968" x1="28.7296" y1="-0.385872" x2="28.7296" y2="30.2032" gradientUnits="userSpaceOnUse">
<stop stop-color="#0E76BC"/>
<stop offset="0.360001" stop-color="#36AEE8"/>
<stop offset="0.846161" stop-color="#00ADEF"/>
<stop offset="1" stop-color="#00ADEF"/>
</linearGradient>
<linearGradient id="paint2_linear_1_1968" x1="34.8776" y1="23.5857" x2="34.8776" y2="-0.753581" gradientUnits="userSpaceOnUse">
<stop stop-color="#1C63B7"/>
<stop offset="0.5" stop-color="#33BDF2"/>
<stop offset="1" stop-color="#33BDF2" stop-opacity="0.419608"/>
</linearGradient>
<linearGradient id="paint3_linear_1_1968" x1="33.2786" y1="-3.48524" x2="33.2786" y2="28.2741" gradientUnits="userSpaceOnUse">
<stop stop-color="#166AB8"/>
<stop offset="0.399994" stop-color="#36AEE8"/>
<stop offset="0.846161" stop-color="#0798DD"/>
<stop offset="1" stop-color="#0798DD"/>
</linearGradient>
<linearGradient id="paint4_linear_1_1968" x1="30.7747" y1="-3.3184" x2="30.7747" y2="30.4534" gradientUnits="userSpaceOnUse">
<stop stop-color="#124379"/>
<stop offset="0.389999" stop-color="#1487CB"/>
<stop offset="0.780228" stop-color="#165197"/>
<stop offset="1" stop-color="#165197"/>
</linearGradient>
<linearGradient id="paint5_linear_1_1968" x1="17.2102" y1="7.04874" x2="21.985" y2="7.04874" gradientUnits="userSpaceOnUse">
<stop stop-color="#33BDF2" stop-opacity="0.698039"/>
<stop offset="1" stop-color="#1DACD8"/>
</linearGradient>
<linearGradient id="paint6_linear_1_1968" x1="53.0709" y1="22.9759" x2="53.0709" y2="-0.733922" gradientUnits="userSpaceOnUse">
<stop stop-color="#136AB4"/>
<stop offset="0.6" stop-color="#59CAF5" stop-opacity="0.54902"/>
<stop offset="1" stop-color="#59CAF5" stop-opacity="0.235294"/>
</linearGradient>
<linearGradient id="paint7_linear_1_1968" x1="0.266711" y1="12.7144" x2="17.9772" y2="12.7144" gradientUnits="userSpaceOnUse">
<stop stop-color="#05A1E6" stop-opacity="0.247059"/>
<stop offset="1" stop-color="#05A1E6"/>
</linearGradient>
<linearGradient id="paint8_linear_1_1968" x1="10.0758" y1="23.573" x2="10.0758" y2="-0.703915" gradientUnits="userSpaceOnUse">
<stop stop-color="#318ED5"/>
<stop offset="1" stop-color="#38A7E4"/>
</linearGradient>
<linearGradient id="paint9_linear_1_1968" x1="11.6032" y1="23.6584" x2="11.6032" y2="0.0599015" gradientUnits="userSpaceOnUse">
<stop stop-color="#05A1E6"/>
<stop offset="1" stop-color="#05A1E6" stop-opacity="0.54902"/>
</linearGradient>
<linearGradient id="paint10_linear_1_1968" x1="12.8723" y1="24.8626" x2="12.8723" y2="4.92147" gradientUnits="userSpaceOnUse">
<stop stop-color="#1959A6"/>
<stop offset="0.5" stop-color="#05A1E6"/>
<stop offset="0.917587" stop-color="#7EC5EA"/>
<stop offset="1" stop-color="#7EC5EA"/>
</linearGradient>
<linearGradient id="paint11_linear_1_1968" x1="13.6365" y1="23.5886" x2="6.87701" y2="2.9311" gradientUnits="userSpaceOnUse">
<stop stop-color="#165096"/>
<stop offset="1" stop-color="#0D82CA"/>
</linearGradient>
<linearGradient id="paint12_linear_1_1968" x1="49.0109" y1="11.3608" x2="49.0109" y2="0.0614084" gradientUnits="userSpaceOnUse">
<stop stop-color="#05A1E6"/>
<stop offset="0.873627" stop-color="#0495D6"/>
<stop offset="1" stop-color="#0495D6"/>
</linearGradient>
<linearGradient id="paint13_linear_1_1968" x1="54.3221" y1="-0.982993" x2="43.791" y2="22.399" gradientUnits="userSpaceOnUse">
<stop stop-color="#38A7E4" stop-opacity="0.329412"/>
<stop offset="0.961533" stop-color="#0E88D3"/>
<stop offset="1" stop-color="#0E88D3"/>
</linearGradient>
<linearGradient id="paint14_linear_1_1968" x1="50.2088" y1="-0.068672" x2="50.2088" y2="24.5822" gradientUnits="userSpaceOnUse">
<stop stop-color="#168CD4"/>
<stop offset="0.5" stop-color="#1C87CC"/>
<stop offset="1" stop-color="#154B8D"/>
</linearGradient>
<linearGradient id="paint15_linear_1_1968" x1="18.7669" y1="-0.575374" x2="18.8737" y2="2.00995" gradientUnits="userSpaceOnUse">
<stop stop-color="#97D6EE"/>
<stop offset="0.703293" stop-color="#55C1EA"/>
<stop offset="1" stop-color="#55C1EA"/>
</linearGradient>
<linearGradient id="paint16_linear_1_1968" x1="22.0503" y1="2.25197" x2="22.5332" y2="-0.486602" gradientUnits="userSpaceOnUse">
<stop stop-color="#7ACCEC"/>
<stop offset="1" stop-color="#3FB7ED"/>
</linearGradient>
<linearGradient id="paint17_linear_1_1968" x1="46.8724" y1="1.29461" x2="46.8724" y2="25.4057" gradientUnits="userSpaceOnUse">
<stop stop-color="#1DA7E7"/>
<stop offset="1" stop-color="#37ABE7" stop-opacity="0"/>
</linearGradient>
<clipPath id="clip0_1_1968">
<rect width="63" height="60" fill="white"/>
</clipPath>
</defs>
</svg>
