<svg width="85" height="52" viewBox="0 0 85 52" fill="none" xmlns="http://www.w3.org/2000/svg">
<g clip-path="url(#clip0_1_2031)">
<path d="M42.0397 51.9999C41.7517 51.9999 41.483 51.9232 41.2335 51.7889L38.6805 50.2725C38.2965 50.0614 38.4885 49.9845 38.6038 49.9461C39.1221 49.7734 39.2179 49.7351 39.7556 49.4278C39.8132 49.3894 39.8899 49.4085 39.9475 49.4471L41.9055 50.618C41.9822 50.6563 42.0782 50.6563 42.1359 50.618L49.7949 46.1838C49.8716 46.1455 49.9099 46.0687 49.9099 45.9727V37.1238C49.9099 37.0278 49.8716 36.951 49.7949 36.9127L42.1359 32.4978C42.0591 32.4595 41.9631 32.4595 41.9055 32.4978L34.2465 36.9127C34.1698 36.951 34.1314 37.047 34.1314 37.1238V45.9727C34.1314 46.0495 34.1698 46.1455 34.2465 46.1838L36.3389 47.3931C37.4714 47.9689 38.1816 47.2971 38.1816 46.6253V37.8914C38.1816 37.7763 38.2776 37.6611 38.4119 37.6611H39.3908C39.5059 37.6611 39.6212 37.7571 39.6212 37.8914V46.6253C39.6212 48.1416 38.7958 49.0247 37.3561 49.0247C36.9147 49.0247 36.5691 49.0247 35.5902 48.5449L33.5747 47.3931C33.0756 47.1051 32.7686 46.5677 32.7686 45.9918V37.1429C32.7686 36.5671 33.0756 36.0296 33.5747 35.7416L41.2337 31.3075C41.7135 31.0388 42.3662 31.0388 42.8461 31.3075L50.505 35.7416C51.0041 36.0296 51.3112 36.5671 51.3112 37.1429V45.9918C51.3112 46.5677 51.0041 47.1051 50.505 47.3931L42.8461 51.8272C42.5964 51.9425 42.3086 51.9999 42.0397 51.9999ZM44.4008 45.9151C41.0415 45.9151 40.3506 44.3795 40.3506 43.0742C40.3506 42.9591 40.4466 42.8439 40.581 42.8439H41.5792C41.6943 42.8439 41.7903 42.9206 41.7903 43.0359C41.9439 44.0533 42.3853 44.5522 44.42 44.5522C46.0324 44.5522 46.7235 44.1875 46.7235 43.3237C46.7235 42.8246 46.5315 42.4599 44.0169 42.2104C41.9246 41.9993 40.6194 41.5386 40.6194 39.8686C40.6194 38.3138 41.9246 37.3925 44.1129 37.3925C46.57 37.3925 47.7793 38.237 47.9329 40.0799C47.9329 40.1375 47.9136 40.195 47.8753 40.2526C47.8369 40.291 47.7793 40.3294 47.7216 40.3294H46.7235C46.6275 40.3294 46.5315 40.2526 46.5124 40.1566C46.282 39.1008 45.6869 38.7554 44.1129 38.7554C42.347 38.7554 42.1359 39.3696 42.1359 39.8303C42.1359 40.387 42.3853 40.5597 44.7657 40.8668C47.1267 41.1739 48.24 41.6154 48.24 43.2662C48.2207 44.9553 46.8386 45.9151 44.4008 45.9151Z" fill="#539E43"/>
<path d="M18.2756 17.391C18.2756 17.0455 18.0836 16.7192 17.7765 16.5465L9.63772 11.8629C9.50336 11.7861 9.34973 11.7478 9.19627 11.7285H9.11954C8.96591 11.7285 8.81245 11.7861 8.67808 11.8629L0.539288 16.5465C0.232033 16.719 0.0400391 17.0454 0.0400391 17.391L0.0593048 29.9832C0.0593048 30.1559 0.155302 30.3286 0.308763 30.4055C0.462391 30.5015 0.654219 30.5015 0.788581 30.4055L5.62579 27.6414C5.93288 27.4687 6.12487 27.1423 6.12487 26.7968V20.9038C6.12487 20.5584 6.31686 20.232 6.62395 20.0593L8.67792 18.8691C8.83155 18.7731 9.00427 18.7348 9.177 18.7348C9.34973 18.7348 9.52246 18.7731 9.65682 18.8691L11.7108 20.0593C12.0179 20.232 12.2099 20.5584 12.2099 20.9038V26.7968C12.2099 27.1423 12.4019 27.4687 12.709 27.6414L17.5462 30.4055C17.6998 30.5015 17.8916 30.5015 18.0452 30.4055C18.1989 30.3288 18.2947 30.1561 18.2947 29.9832L18.2756 17.391Z" fill="#333333"/>
<path d="M57.396 0.0575482C57.2424 -0.0191827 57.0506 -0.0191827 56.9162 0.0575482C56.7626 0.153545 56.6667 0.307007 56.6667 0.479901V12.9568C56.6667 13.0719 56.6091 13.1872 56.494 13.2639C56.3789 13.3215 56.2636 13.3215 56.1486 13.2639L54.1139 12.093C53.8068 11.9203 53.442 11.9203 53.1349 12.093L44.9962 16.7959C44.6891 16.9686 44.4971 17.2949 44.4971 17.6404V27.0268C44.4971 27.3723 44.6891 27.6986 44.9962 27.8714L53.1349 32.5742C53.442 32.7469 53.8068 32.7469 54.1139 32.5742L62.2526 27.8714C62.5597 27.6986 62.7517 27.3723 62.7517 27.0268V3.62786C62.7517 3.26314 62.5597 2.93679 62.2526 2.76406L57.396 0.0575482ZM56.6475 23.9365C56.6475 24.0325 56.6091 24.1092 56.5324 24.1476L53.7491 25.7599C53.6724 25.7983 53.5764 25.7983 53.4997 25.7599L50.7164 24.1476C50.6397 24.1092 50.6013 24.0132 50.6013 23.9365V20.7116C50.6013 20.6156 50.6397 20.5389 50.7164 20.5005L53.4997 18.8882C53.5764 18.8498 53.6724 18.8498 53.7491 18.8882L56.5324 20.5005C56.6091 20.5389 56.6475 20.6349 56.6475 20.7116V23.9365Z" fill="#333333"/>
<path d="M84.4801 20.6349C84.7872 20.4622 84.9599 20.1358 84.9599 19.7904V17.5061C84.9599 17.1606 84.7679 16.8342 84.4801 16.6615L76.3989 11.9779C76.0918 11.8052 75.7271 11.8052 75.42 11.9779L67.2811 16.6806C66.974 16.8533 66.782 17.1797 66.782 17.5252V26.9116C66.782 27.257 66.974 27.5834 67.2811 27.7561L75.3622 32.363C75.6693 32.5357 76.034 32.5357 76.322 32.363L81.2169 29.6372C81.3705 29.5604 81.4663 29.3877 81.4663 29.2148C81.4663 29.0421 81.3703 28.8694 81.2169 28.7925L73.0397 24.09C72.8861 23.994 72.7902 23.8405 72.7902 23.6676V20.7309C72.7902 20.5582 72.8862 20.3855 73.0397 20.3086L75.5928 18.8497C75.7464 18.7537 75.9382 18.7537 76.0918 18.8497L78.6449 20.3086C78.7985 20.4046 78.8943 20.558 78.8943 20.7309V23.0343C78.8943 23.2071 78.9903 23.3798 79.1438 23.4567C79.2974 23.5527 79.4893 23.5527 79.6429 23.4567L84.4801 20.6349Z" fill="#333333"/>
<path d="M75.7847 20.1933C75.8423 20.155 75.919 20.155 75.9767 20.1933L77.5315 21.0955C77.5892 21.1339 77.6275 21.1915 77.6275 21.2682V23.0726C77.6275 23.1493 77.5892 23.2069 77.5315 23.2453L75.9767 24.1475C75.919 24.1858 75.8423 24.1858 75.7847 24.1475L74.2298 23.2453C74.1722 23.2069 74.1338 23.1493 74.1338 23.0726V21.2684C74.1338 21.1917 74.1722 21.134 74.2298 21.0957L75.7847 20.1933Z" fill="#539E43"/>
<path d="M31.8846 12.0163C31.5775 11.8435 31.2128 11.8435 30.9057 12.0163L22.8245 16.6807C22.5175 16.8535 22.3447 17.1798 22.3447 17.5253V26.8733C22.3447 27.2188 22.5367 27.5451 22.8245 27.7179L30.9057 32.3824C31.2128 32.5551 31.5775 32.5551 31.8846 32.3824L39.9659 27.718C40.273 27.5453 40.4458 27.219 40.4458 26.8735V17.5253C40.4458 17.1798 40.2538 16.8535 39.9659 16.6807L31.8846 12.0163Z" fill="url(#paint0_linear_1_2031)"/>
<mask id="mask0_1_2031" style="mask-type:alpha" maskUnits="userSpaceOnUse" x="22" y="11" width="19" height="22">
<path d="M31.8846 12.0163C31.5775 11.8435 31.2128 11.8435 30.9057 12.0163L22.8245 16.6807C22.5175 16.8535 22.3447 17.1798 22.3447 17.5253V26.8733C22.3447 27.2188 22.5367 27.5451 22.8245 27.7179L30.9057 32.3824C31.2128 32.5551 31.5775 32.5551 31.8846 32.3824L39.9659 27.718C40.273 27.5453 40.4458 27.219 40.4458 26.8735V17.5253C40.4458 17.1798 40.2538 16.8535 39.9659 16.6807L31.8846 12.0163Z" fill="white"/>
</mask>
<g mask="url(#mask0_1_2031)">
<path d="M39.9853 16.6809L31.8658 12.0164C31.7891 11.978 31.6931 11.9397 31.6163 11.9204L22.5176 27.5071C22.5943 27.6031 22.6903 27.6798 22.7863 27.7374L30.9058 32.4019C31.1362 32.5363 31.4049 32.5747 31.6544 32.4979L40.1963 16.8729C40.139 16.7961 40.0621 16.7385 39.9853 16.6809Z" fill="url(#paint1_linear_1_2031)"/>
</g>
<mask id="mask1_1_2031" style="mask-type:alpha" maskUnits="userSpaceOnUse" x="22" y="11" width="19" height="22">
<path d="M31.8846 12.0163C31.5775 11.8435 31.2128 11.8435 30.9057 12.0163L22.8245 16.6807C22.5175 16.8535 22.3447 17.1798 22.3447 17.5253V26.8733C22.3447 27.2188 22.5367 27.5451 22.8245 27.7179L30.9057 32.3824C31.2128 32.5551 31.5775 32.5551 31.8846 32.3824L39.9659 27.718C40.273 27.5453 40.4458 27.219 40.4458 26.8735V17.5253C40.4458 17.1798 40.2538 16.8535 39.9659 16.6807L31.8846 12.0163Z" fill="white"/>
</mask>
<g mask="url(#mask1_1_2031)">
<path fill-rule="evenodd" clip-rule="evenodd" d="M40.0042 27.7179C40.2346 27.5835 40.4073 27.3532 40.484 27.1037L31.5774 11.901C31.3471 11.8626 31.0976 11.8817 30.8864 12.0161L22.8245 16.6615L31.52 32.5167C31.6351 32.4975 31.7694 32.4591 31.8847 32.4016L40.0042 27.7179Z" fill="url(#paint2_linear_1_2031)"/>
<path fill-rule="evenodd" clip-rule="evenodd" d="M40.0042 27.7179L31.9038 32.3824C31.7887 32.44 31.6734 32.4784 31.5391 32.4975L31.6927 32.7855L40.676 27.5836V27.4685L40.4457 27.0845C40.4073 27.3532 40.2346 27.5836 40.0042 27.7179Z" fill="url(#paint3_linear_1_2031)"/>
<path fill-rule="evenodd" clip-rule="evenodd" d="M40.0042 27.7179L31.9038 32.3824C31.7887 32.44 31.6734 32.4784 31.5391 32.4975L31.6927 32.7855L40.676 27.5836V27.4685L40.4457 27.0845C40.4073 27.3532 40.2346 27.5836 40.0042 27.7179Z" fill="url(#paint4_linear_1_2031)"/>
</g>
</g>
<defs>
<linearGradient id="paint0_linear_1_2031" x1="34.6848" y1="15.4908" x2="25.8258" y2="29.4092" gradientUnits="userSpaceOnUse">
<stop stop-color="#41873F"/>
<stop offset="0.3288" stop-color="#418B3D"/>
<stop offset="0.6352" stop-color="#419637"/>
<stop offset="0.9319" stop-color="#3FA92D"/>
<stop offset="1" stop-color="#3FAE2A"/>
</linearGradient>
<linearGradient id="paint1_linear_1_2031" x1="30.167" y1="23.2919" x2="52.3508" y2="11.2404" gradientUnits="userSpaceOnUse">
<stop offset="0.1376" stop-color="#41873F"/>
<stop offset="0.4032" stop-color="#54A044"/>
<stop offset="0.7136" stop-color="#66B848"/>
<stop offset="0.9081" stop-color="#6CC04A"/>
</linearGradient>
<linearGradient id="paint2_linear_1_2031" x1="22.0486" y1="22.1992" x2="40.7484" y2="22.1992" gradientUnits="userSpaceOnUse">
<stop offset="0.0919" stop-color="#6CC04A"/>
<stop offset="0.2864" stop-color="#66B848"/>
<stop offset="0.5968" stop-color="#54A044"/>
<stop offset="0.8624" stop-color="#41873F"/>
</linearGradient>
<linearGradient id="paint3_linear_1_2031" x1="22.0496" y1="29.9333" x2="40.7484" y2="29.9333" gradientUnits="userSpaceOnUse">
<stop offset="0.0919" stop-color="#6CC04A"/>
<stop offset="0.2864" stop-color="#66B848"/>
<stop offset="0.5968" stop-color="#54A044"/>
<stop offset="0.8624" stop-color="#41873F"/>
</linearGradient>
<linearGradient id="paint4_linear_1_2031" x1="43.4566" y1="15.0463" x2="38.7193" y2="39.87" gradientUnits="userSpaceOnUse">
<stop stop-color="#41873F"/>
<stop offset="0.3288" stop-color="#418B3D"/>
<stop offset="0.6352" stop-color="#419637"/>
<stop offset="0.9319" stop-color="#3FA92D"/>
<stop offset="1" stop-color="#3FAE2A"/>
</linearGradient>
<clipPath id="clip0_1_2031">
<rect width="85" height="52" fill="white"/>
</clipPath>
</defs>
</svg>
