<svg width="129" height="15" viewBox="0 0 129 15" fill="none" xmlns="http://www.w3.org/2000/svg">
<g clip-path="url(#clip0_1_2130)">
<path d="M54.4795 9.75894H62.104L58.0725 3.27268L50.6732 15H47.3056L56.3057 0.913032C56.6969 0.343798 57.3493 0 58.0725 0C58.7721 0 59.4242 0.331975 59.8036 0.889393L68.8393 15.0002H65.4718L63.8828 12.3797H56.1633L54.4795 9.75894ZM89.46 12.3795V0.142167H86.6022V13.577C86.6022 13.9446 86.7446 14.3004 87.0173 14.5731C87.29 14.8458 87.6576 15 88.0607 15H101.092L102.776 12.3795H89.46ZM42.1831 10.1858C44.9578 10.1858 47.2109 7.9447 47.2109 5.16999C47.2109 2.39528 44.958 0.142361 42.1831 0.142361H29.6813V15.0002H32.538V2.76289H41.9935C43.3215 2.76289 44.3887 3.8419 44.3887 5.16999C44.3887 6.49808 43.3215 7.57708 41.9935 7.57708L33.9374 7.56527L42.4678 15.0002H46.618L40.8788 10.186H42.1831V10.1858ZM12.0962 15C7.99457 15 4.66602 11.6799 4.66602 7.57708C4.66602 3.47429 7.99457 0.142167 12.0962 0.142167H20.7323C24.8351 0.142167 28.1612 3.47429 28.1612 7.57708C28.1612 11.6799 24.8351 15 20.7323 15H12.0962ZM20.5402 12.3795C23.1975 12.3795 25.3497 10.2333 25.3497 7.57708C25.3497 4.92091 23.1975 2.76289 20.5402 2.76289H12.2872C9.631 2.76289 7.47767 4.92091 7.47767 7.57708C7.47767 10.2333 9.631 12.3795 12.2872 12.3795H20.5402ZM74.8036 15C70.7008 15 67.3689 11.6799 67.3689 7.57708C67.3689 3.47429 70.7008 0.142167 74.8036 0.142167H85.0607L83.3888 2.76271H74.9934C72.3372 2.76271 70.1792 4.92073 70.1792 7.5769C70.1792 10.2331 72.3372 12.3793 74.9934 12.3793H85.2978L83.6141 14.9998H74.8036V15ZM109.749 12.3795C107.555 12.3795 105.693 10.909 105.124 8.88136H117.337L119.021 6.26082H105.124C105.693 4.24497 107.555 2.76271 109.749 2.76271H118.132L119.828 0.142167H109.559C105.456 0.142167 102.124 3.47429 102.124 7.57708C102.124 11.6799 105.456 15 109.559 15H118.369L120.053 12.3795H109.749Z" fill="#F80000"/>
<path d="M121.358 1.71944C121.358 0.996034 121.939 0.415176 122.662 0.415176C123.397 0.415176 123.978 0.996222 123.978 1.71944C123.978 2.45466 123.397 3.03571 122.662 3.03571C121.939 3.03571 121.358 2.45466 121.358 1.71944ZM122.662 3.40332C123.587 3.40332 124.334 2.65629 124.334 1.73145C124.334 0.806607 123.587 0.0595703 122.662 0.0595703C121.749 0.0595703 121.002 0.806607 121.002 1.73145C121.002 2.65629 121.749 3.40332 122.662 3.40332ZM122.508 0.735146C122.769 0.735146 122.875 0.746958 122.994 0.79441C123.326 0.901129 123.362 1.19766 123.362 1.3162C123.362 1.33983 123.362 1.39928 123.338 1.47036C123.326 1.54145 123.279 1.68381 123.113 1.79053C123.089 1.80234 123.077 1.81416 123.03 1.83798L123.457 2.60865H123.042L122.662 1.89724H122.401V2.60865H122.034V0.735146H122.508ZM122.638 1.5889C122.757 1.57709 122.875 1.57708 122.947 1.47036C122.982 1.42291 122.994 1.37547 122.994 1.30439C122.994 1.20948 122.935 1.12657 122.852 1.07912C122.769 1.04349 122.686 1.04349 122.508 1.04349H122.401V1.5889H122.638Z" fill="#F80000"/>
</g>
<defs>
<clipPath id="clip0_1_2130">
<rect width="129" height="15" fill="white"/>
</clipPath>
</defs>
</svg>
