<svg width="81" height="59" viewBox="0 0 81 59" fill="none" xmlns="http://www.w3.org/2000/svg">
<g clip-path="url(#clip0_1_2069)">
<path d="M41.7933 0.981057C39.8572 0.714978 37.8686 0.535276 35.9356 0.927444C34.7988 1.11211 33.7613 1.62242 32.7238 2.08905C29.5149 1.0863 26.0658 0.429044 22.721 1.10913C20.361 1.5708 18.153 2.95579 16.8941 5.02882C15.3274 7.56054 15.0673 10.6661 15.3016 13.5691C15.7196 16.8346 16.494 20.0454 17.4054 23.2055C18.2314 25.9418 19.1677 28.681 20.6599 31.1333C21.5197 32.4984 22.6654 33.8566 24.2837 34.2974C25.5555 34.6568 26.9256 34.2329 27.9204 33.4069C28.4357 33.9023 29.0354 34.3143 29.7135 34.5506C31.6455 35.2148 33.8139 35.2168 35.7181 34.4503C35.8313 37.0823 35.736 39.8076 36.6961 42.3066C37.0853 43.502 37.7634 44.6606 38.8455 45.3486C40.0171 46.129 41.5053 46.262 42.8625 46.0178C44.1036 45.7815 45.3625 45.4618 46.4457 44.7867C47.5775 44.0917 48.4412 43.0194 48.9893 41.8171C50.2154 39.1216 50.274 36.1024 50.4428 33.1974C53.2565 33.3592 56.2439 32.7258 58.3963 30.8096C59.2422 30.0968 59.964 28.9838 59.6433 27.8351C59.3872 26.7559 58.2504 26.1016 57.1861 26.1711C56.1009 26.2426 55.0475 26.5911 53.9524 26.5911C56.3859 22.3646 58.2861 17.7887 59.1638 12.9774C59.4974 10.9719 59.7178 8.86809 59.1638 6.88045C58.854 5.7238 58.0181 4.82331 57.196 3.99827C55.3345 2.15359 52.8891 0.946308 50.3177 0.482656C47.4871 -0.0544644 44.5603 0.255298 41.7933 0.981057Z" fill="white"/>
<path d="M41.7831 2.28373C44.7973 1.35246 48.0865 1.10425 51.1514 1.93525C53.6057 2.59449 55.8316 4.06983 57.3665 6.09521C57.987 6.93613 58.128 8.01633 58.1737 9.03199C58.2323 10.8459 57.9175 12.6479 57.5095 14.4102C56.3886 19.0467 54.3831 23.4399 51.8335 27.4619C53.2622 28.0745 54.8646 27.7677 56.3379 27.5056C56.9515 27.3844 57.7438 27.2365 58.2084 27.7746C58.6602 28.3614 58.2263 29.108 57.7676 29.5389C55.6241 31.6338 52.3795 32.1828 49.5112 31.6983C49.2213 34.2608 48.9165 36.8253 48.5164 39.3749C48.294 40.7986 47.8195 42.2828 46.7055 43.2638C45.6571 44.1801 44.277 44.5842 42.9357 44.8384C41.5686 45.0767 40.0327 44.8801 38.9555 43.9409C37.8137 42.9302 37.1634 41.433 37.0195 39.9298C36.7296 37.3644 36.7167 34.7771 36.7246 32.1967C35.4915 33.259 33.8523 33.8051 32.2291 33.682C31.0833 33.5867 29.8155 33.4069 28.9557 32.571C28.4791 32.1351 28.505 31.3091 29.0351 30.9298C29.9535 30.2368 31.1747 30.2905 32.2162 29.8884C32.9886 29.662 33.3887 28.9104 33.8752 28.3336C32.9777 28.2671 32.1 28.0387 31.2918 27.6416C30.0538 28.9601 28.8604 30.3222 27.7008 31.7122C27.0306 32.5154 26.0408 33.1945 24.9457 33.0614C23.7146 32.9105 22.7992 31.9455 22.1111 30.9884C20.7549 29.0395 19.918 26.7917 19.1545 24.5589C17.9978 20.9787 17.0894 17.3082 16.5622 13.5792C16.3011 10.7704 16.5235 7.71054 18.1597 5.31484C19.4543 3.39372 21.719 2.34727 23.9737 2.11197C27.0058 1.79427 30.0697 2.4128 32.9171 3.43839C35.29 1.85384 38.3082 1.63541 41.0444 2.1914C41.2896 2.22218 41.5339 2.33337 41.7831 2.28373ZM44.011 3.06112C44.6007 3.46917 45.2629 3.75312 45.8547 4.15919C48.2811 5.78346 50.1735 8.15036 51.3619 10.8092C51.6905 11.5766 52.0291 12.3858 51.9615 13.2406C51.9764 14.987 51.3788 16.6897 51.5565 18.44C51.7262 20.2947 52.1264 22.1919 51.6538 24.0356C51.5207 24.6889 51.1792 25.2687 50.9439 25.8843C50.9618 25.9736 50.9955 26.1514 51.0134 26.2387C51.2368 25.9508 51.4393 25.646 51.626 25.3313C53.5114 22.1364 55.0115 18.7061 55.9994 15.126C56.5157 13.192 56.9207 11.2043 56.8969 9.19383C56.8612 8.34992 56.7917 7.42858 56.2436 6.74154C55.0949 5.30293 53.566 4.16713 51.8444 3.51484C49.3583 2.57761 46.5913 2.50712 44.011 3.06112ZM36.8408 3.30337C34.9166 3.55455 33.1137 4.59405 31.9521 6.15279C30.3715 8.24766 29.6805 10.8876 29.4799 13.468C31.0694 12.7263 32.8595 12.0313 34.6347 12.4781C35.7884 12.7551 36.6551 13.7628 36.9073 14.9016C37.4255 17.1841 37.7055 19.5897 37.1992 21.9011C36.809 23.7686 35.6702 25.3839 35.2929 27.2544C35.7745 27.2931 36.2758 27.3259 36.7057 27.5671C37.5913 28.0496 38.1016 29.0852 38.047 30.08C37.9805 32.6266 37.9835 35.1742 38.1185 37.7178C38.198 38.7712 38.2267 39.8395 38.5057 40.8641C38.886 42.0853 39.7339 43.3372 41.0781 43.5745C42.4939 43.7919 43.9564 43.3899 45.2153 42.7505C46.4444 42.1022 46.9974 40.7191 47.2079 39.4185C47.6537 36.7031 47.9614 33.9679 48.2742 31.2346C48.4082 30.2597 48.2176 29.1884 48.7617 28.3108C49.0724 27.7468 49.683 27.4827 50.231 27.2057C49.7724 26.618 49.2879 26.0461 48.9285 25.3899C47.5742 22.594 45.7405 19.9501 45.1756 16.8396C44.9323 15.5311 45.0723 13.9743 46.1535 13.0619C47.3459 12.0363 49.0188 12.0969 50.4951 12.1485C49.6075 9.63961 47.9604 7.40673 45.8755 5.75963C43.3517 3.77397 40.0158 2.90028 36.8408 3.30337ZM23.3105 3.51782C21.5452 3.84843 19.8634 4.85913 18.9629 6.44468C17.7596 8.53955 17.6285 11.0613 17.839 13.4134C18.2619 16.504 18.9976 19.5451 19.8683 22.5365C20.6457 25.0652 21.4966 27.6118 22.9054 29.8665C23.4266 30.634 24.0233 31.4898 24.9596 31.7598C25.7598 31.9247 26.3952 31.2654 26.8648 30.7114C27.9291 29.3979 29.0937 28.1728 30.1918 26.888C28.5784 25.4216 27.7067 23.1878 27.9996 21.0154C28.2329 19.3515 28.2766 17.6666 28.1743 15.9907C27.9976 13.6109 28.3362 11.2003 29.0768 8.93569C29.6209 7.23994 30.5522 5.69112 31.7495 4.37562C29.0361 3.54959 26.1371 2.97375 23.3105 3.51782ZM47.0659 13.9773C46.2458 14.6186 46.2885 15.7862 46.4553 16.7105C47.0451 19.6116 48.7378 22.0986 50.0464 24.7028C51.0233 22.74 50.4227 20.5141 50.2717 18.443C50.105 16.7701 50.6173 15.1399 50.6689 13.4779C49.4666 13.4034 48.1054 13.2386 47.0659 13.9773ZM29.4352 15.0485C29.463 16.4435 29.5613 17.8394 29.466 19.2343C29.4243 20.4674 29.0629 21.7045 29.3399 22.9346C29.745 25.1099 31.689 27.0409 33.9745 27.0181C34.31 25.921 34.6982 24.8388 35.1778 23.7964C36.5518 21.0909 36.3294 17.9129 35.6116 15.0555C35.416 14.2503 34.6605 13.6725 33.8424 13.6367C32.2628 13.5444 30.7388 14.2056 29.4352 15.0485ZM50.0315 28.7784C49.6056 29.1735 49.6344 29.804 49.6294 30.3371C50.5706 30.6598 51.5833 30.625 52.5582 30.5089C54.0306 30.35 55.5288 29.8576 56.61 28.8062C54.8408 29.0196 52.9067 29.4475 51.2437 28.5709C50.8516 28.2988 50.37 28.5292 50.0315 28.7784ZM33.2775 30.8167C32.2906 31.3995 31.0943 31.3627 30.0697 31.8373C32.1447 32.8947 35.0169 32.5243 36.4526 30.5804C37.1882 29.8963 36.4764 28.4517 35.5054 28.5897C34.6119 29.1705 34.2326 30.3024 33.2775 30.8167Z" fill="white"/>
<path d="M47.4505 14.3664C48.0402 13.9455 48.8583 13.9147 49.5096 14.2175C49.4858 15.0416 48.4969 15.6353 47.7761 15.2103C47.4773 15.0753 47.103 14.6514 47.4505 14.3664Z" fill="white"/>
<path d="M33.099 14.415C33.7146 14.2502 34.4513 14.3297 34.9586 14.7407C35.313 15.0286 34.9894 15.5072 34.6816 15.6799C33.9836 16.1952 32.8737 15.6908 32.7317 14.8638C32.691 14.6206 32.9005 14.4845 33.099 14.415Z" fill="white"/>
<path d="M51.7748 47.0195C52.7756 46.4655 53.962 46.4278 55.0789 46.4089C56.2872 46.4238 57.6126 46.5221 58.6005 47.2995C59.219 47.7771 59.4821 48.5683 59.4831 49.3279C59.0989 49.3298 58.7167 49.3279 58.3344 49.3279C58.1954 48.5822 57.8678 47.781 57.0924 47.505C55.7948 47.0126 54.3045 47.0434 52.9831 47.4286C51.9237 47.7215 51.5365 49.2544 52.3526 49.994C52.9374 50.4607 53.7168 50.5242 54.4217 50.6811C55.8662 50.9889 57.3992 51.0395 58.7454 51.6987C60.1811 52.4175 60.1255 54.713 58.8606 55.5747C57.8112 56.2955 56.4758 56.375 55.2418 56.3849C53.8975 56.364 52.4311 56.238 51.3379 55.3692C50.638 54.8152 50.4216 53.8939 50.3809 53.043C50.773 53.0232 51.1652 53.0172 51.5584 53.0152C51.6437 53.9187 52.0687 54.8589 52.9692 55.2024C54.378 55.7495 56.0082 55.7435 57.4468 55.3077C58.4526 55.0237 58.8427 53.743 58.386 52.8653C58.1686 52.4682 57.7427 52.2527 57.3247 52.1376C55.5674 51.663 53.7058 51.6372 51.9892 51.0038C50.3689 50.41 50.3153 47.8287 51.7748 47.0195Z" fill="#326690"/>
<path d="M62.7038 47.1216C64.0452 46.4375 65.5989 46.3313 67.0763 46.4524C68.4791 46.5686 69.9078 47.0878 70.857 48.1631C72.0345 49.4319 72.2449 51.3491 71.8031 52.9674C71.5639 53.8748 70.9265 54.5906 70.2434 55.1992C70.7825 55.5914 71.3434 55.9528 71.8826 56.348C71.6413 56.5813 71.3931 56.8066 71.1389 57.0251C70.569 56.6587 70.0458 56.2219 69.4561 55.8893C69.0014 55.8893 68.5844 56.1643 68.1307 56.2278C66.8668 56.4512 65.5533 56.4671 64.2914 56.2199C62.9163 55.9449 61.5939 55.1734 60.8522 53.9582C60.1185 52.7708 60.0232 51.2726 60.3598 49.9422C60.6715 48.7121 61.58 47.6855 62.7038 47.1216ZM64.5366 47.34C63.2261 47.6448 62.0049 48.5582 61.58 49.8707C61.1312 51.2835 61.2871 52.9862 62.3107 54.12C63.2112 55.1407 64.5982 55.6004 65.9315 55.6212C67.4059 55.6698 69.0192 55.2469 69.9892 54.0694C71.3147 52.3657 71.1618 49.5252 69.3886 48.1809C68.0482 47.0908 66.1629 46.9925 64.5366 47.34Z" fill="#326690"/>
<path d="M72.7911 46.6521C73.1634 46.6441 73.5367 46.6342 73.91 46.6233C73.9408 49.5293 73.917 52.4353 73.9209 55.3413C76.2799 55.382 78.6399 55.3235 80.9978 55.3701C80.9958 55.6273 80.9949 55.8864 80.9929 56.1465C78.2586 56.1485 75.5224 56.1574 72.7861 56.1396C72.7931 52.9774 72.7871 49.8142 72.7911 46.6521Z" fill="#326690"/>
<path d="M44.0117 3.06092C46.5921 2.50692 49.3591 2.57841 51.8451 3.51465C53.5667 4.16793 55.0967 5.30273 56.2444 6.74134C56.7914 7.42838 56.8619 8.34973 56.8977 9.19363C56.9215 11.2041 56.5174 13.1918 56.0001 15.1258C55.0123 18.7059 53.5121 22.1371 51.6267 25.3311C51.4401 25.6458 51.2375 25.9496 51.0141 26.2385C50.9963 26.1512 50.9625 25.9725 50.9446 25.8841C51.18 25.2685 51.5215 24.6887 51.6545 24.0354C52.1271 22.1918 51.727 20.2955 51.5572 18.4399C51.3795 16.6885 51.9772 14.9858 51.9623 13.2404C52.0308 12.3856 51.6923 11.5764 51.3626 10.809C50.1732 8.15116 48.2819 5.78426 45.8554 4.15899C45.2637 3.75193 44.6015 3.46898 44.0117 3.06092Z" fill="#326690"/>
<path d="M36.8413 3.3032C40.0164 2.90011 43.3513 3.77281 45.8741 5.75946C47.959 7.40656 49.6062 9.63943 50.4937 12.1483C49.0184 12.0967 47.3445 12.0361 46.1521 13.0617C45.0699 13.9741 44.9309 15.5309 45.1742 16.8394C45.7391 19.95 47.5728 22.5929 48.9271 25.3897C49.2865 26.0459 49.771 26.6178 50.2296 27.2056C49.6826 27.4826 49.071 27.7467 48.7603 28.3106C48.2162 29.1882 48.4068 30.2595 48.2728 31.2345C47.96 33.9677 47.6523 36.703 47.2065 39.4184C46.996 40.719 46.444 42.103 45.2139 42.7503C43.955 43.3897 42.4925 43.7918 41.0768 43.5743C39.7325 43.3381 38.8846 42.0861 38.5043 40.8639C38.2253 39.8403 38.1966 38.771 38.1171 37.7176C37.9831 35.174 37.9791 32.6264 38.0456 30.0798C38.1002 29.085 37.5909 28.0505 36.7043 27.567C36.2754 27.3257 35.7731 27.2929 35.2915 27.2542C35.6688 25.3827 36.8076 23.7684 37.1978 21.9009C37.7051 19.5896 37.4241 17.1839 36.9059 14.9014C36.6527 13.7627 35.787 12.7549 34.6333 12.4779C32.8581 12.0312 31.068 12.7261 29.4785 13.4678C29.6791 10.8874 30.3691 8.2465 31.9507 6.15262C33.1143 4.59487 34.9172 3.55438 36.8413 3.3032Z" fill="#326690"/>
<path d="M23.3108 3.51763C26.1373 2.97356 29.0374 3.55039 31.7508 4.37742C30.5535 5.69292 29.6222 7.24173 29.0781 8.93749C28.3375 11.2021 27.9989 13.6127 28.1756 15.9925C28.2779 17.6694 28.2342 19.3543 28.0009 21.0172C27.708 23.1896 28.5787 25.4234 30.1931 26.8898C29.095 28.1745 27.9304 29.3987 26.8661 30.7132C26.3965 31.2672 25.7611 31.9265 24.9608 31.7616C24.0246 31.4916 23.4289 30.6358 22.9067 29.8683C21.4979 27.6136 20.647 25.067 19.8696 22.5383C18.9979 19.5459 18.2622 16.5058 17.8403 13.4151C17.6298 11.0631 17.7608 8.54135 18.9642 6.44648C19.8627 4.85894 21.5445 3.84824 23.3108 3.51763Z" fill="#326690"/>
<path d="M47.0661 13.9771C48.1056 13.2384 49.4668 13.4032 50.6691 13.4777C50.6174 15.1397 50.1051 16.7689 50.2719 18.4428C50.4228 20.5129 51.0235 22.7388 50.0466 24.7026C48.738 22.0974 47.0452 19.6114 46.4555 16.7103C46.2887 15.787 46.246 14.6185 47.0661 13.9771ZM47.4503 14.3663C47.1038 14.6512 47.4781 15.0762 47.776 15.2102C48.4968 15.6341 49.4846 15.0414 49.5094 14.2174C48.8581 13.9135 48.0401 13.9443 47.4503 14.3663Z" fill="#326690"/>
<path d="M29.4352 15.0483C30.7388 14.2063 32.2638 13.5451 33.8434 13.6355C34.6615 13.6712 35.416 14.249 35.6126 15.0542C36.3304 17.9116 36.5518 21.0896 35.1788 23.7951C34.6992 24.8386 34.31 25.9207 33.9755 27.0168C31.69 27.0397 29.746 25.1086 29.3409 22.9333C29.0639 21.7042 29.4253 20.4661 29.467 19.233C29.5613 17.8391 29.4621 16.4422 29.4352 15.0483ZM33.0988 14.4148C32.8992 14.4843 32.6907 14.6204 32.7314 14.8636C32.8744 15.6916 33.9834 16.195 34.6814 15.6797C34.9891 15.506 35.3128 15.0284 34.9584 14.7405C34.452 14.3285 33.7143 14.249 33.0988 14.4148Z" fill="#326690"/>
<path d="M50.0318 28.7782C50.3703 28.529 50.8518 28.2986 51.243 28.5707C52.907 29.4473 54.841 29.0194 56.6092 28.806C55.5291 29.8574 54.0299 30.3498 52.5575 30.5087C51.5826 30.6248 50.5699 30.6596 49.6287 30.3369C49.6356 29.8038 49.6058 29.1733 50.0318 28.7782Z" fill="#326690"/>
<path d="M33.2782 30.8165C34.2343 30.3032 34.6125 29.1704 35.5051 28.5895C36.4771 28.4515 37.1879 29.8971 36.4522 30.5802C35.0166 32.5241 32.1453 32.8954 30.0693 31.8371C31.0939 31.3615 32.2913 31.3993 33.2782 30.8165Z" fill="#326690"/>
<path d="M0.00794264 46.652C1.79007 46.6589 3.5722 46.6371 5.35532 46.6262C6.18136 46.6163 7.07093 46.7691 7.70932 47.3341C8.57408 48.0827 8.72499 49.4011 8.35367 50.4347C7.91484 51.5526 6.65593 52.0758 5.5251 52.1036C4.0011 52.1235 2.47512 52.0957 0.950138 52.1145C0.934253 53.4608 0.972973 54.8051 0.958081 56.1514C0.640375 56.1494 0.32267 56.1494 0.00694981 56.1514C-0.00198566 52.9843 -0.00297849 49.8191 0.00794264 46.652ZM0.964038 47.4115C0.962052 48.73 0.957088 50.0485 0.967016 51.3669C2.37485 51.364 3.78268 51.3878 5.19051 51.356C5.97584 51.3322 6.89619 51.0612 7.22482 50.2709C7.48395 49.563 7.44324 48.6833 6.96371 48.0757C6.49708 47.5167 5.71671 47.4135 5.03166 47.4095C3.67545 47.4085 2.31925 47.4085 0.964038 47.4115Z" fill="black"/>
<path d="M25.4016 47.8723C25.7272 47.8723 26.0529 47.8723 26.3795 47.8723C26.3795 48.5514 26.3776 49.2285 26.3845 49.9066C26.9405 49.9136 27.4955 49.9136 28.0515 49.9066C28.0594 50.127 28.0673 50.3455 28.0773 50.5659C27.5153 50.5768 26.9534 50.5768 26.3915 50.5639C26.3686 51.8972 26.3865 53.2286 26.3785 54.56C26.3885 54.8628 26.3587 55.2649 26.6685 55.4377C27.1013 55.6551 27.6017 55.5757 28.0644 55.5499C28.0644 55.7603 28.0664 55.9728 28.0673 56.1853C27.3525 56.2667 26.5831 56.3193 25.9209 55.9907C25.5207 55.7822 25.3877 55.3036 25.3956 54.8827C25.3877 53.4411 25.3986 52.0005 25.3927 50.5589C24.9727 50.5609 24.5547 50.5589 24.1357 50.5539C24.1387 50.3385 24.1407 50.1231 24.1437 49.9096C24.5587 49.9146 24.9717 49.9116 25.3857 49.8937C25.3917 49.2196 25.3937 48.5455 25.4016 47.8723Z" fill="black"/>
<path d="M11.0899 49.7993C12.3289 49.6167 13.6832 49.6584 14.7981 50.2888C16.473 51.232 16.7083 53.7617 15.5417 55.1874C14.541 56.2984 12.9008 56.4493 11.497 56.3312C10.3562 56.2617 9.18862 55.6958 8.64952 54.6493C8.16005 53.6823 8.1541 52.479 8.6108 51.4991C9.06948 50.545 10.0722 49.9701 11.0899 49.7993ZM11.5674 50.4318C10.6521 50.539 9.75156 51.1158 9.45172 52.0173C9.11615 53.0201 9.25911 54.2711 10.0742 55.0107C10.7186 55.6024 11.6409 55.7394 12.4828 55.6987C13.2473 55.668 14.0594 55.4654 14.6045 54.8936C15.2022 54.3068 15.3015 53.4053 15.223 52.611C15.1635 51.924 14.8329 51.228 14.2272 50.8617C13.4389 50.3811 12.465 50.3275 11.5674 50.4318Z" fill="black"/>
<path d="M17.5791 50.2559C18.2234 49.8449 19.0177 49.7794 19.7623 49.7277C20.8137 49.7039 21.9634 49.697 22.8739 50.3016C23.3812 50.6193 23.5639 51.22 23.6354 51.7809C23.2938 51.7938 22.9503 51.7968 22.6088 51.7968C22.5373 51.3322 22.3477 50.8397 21.881 50.6451C21.0421 50.2599 20.0721 50.3016 19.1775 50.4297C18.6216 50.5091 17.9435 50.8248 17.9266 51.4712C17.8779 51.9298 18.2979 52.2515 18.698 52.3508C19.8775 52.6477 21.1096 52.6179 22.297 52.872C22.8272 52.9971 23.3981 53.2086 23.6999 53.6931C24.1109 54.396 23.8558 55.4057 23.1429 55.8118C22.2782 56.3241 21.2317 56.3499 20.2528 56.3549C19.3007 56.3172 18.2632 56.3013 17.45 55.7344C16.9506 55.3889 16.7799 54.7723 16.6855 54.2054C17.04 54.2004 17.3954 54.2054 17.7499 54.2124C17.7677 54.9848 18.417 55.5328 19.1458 55.6251C20.2051 55.7771 21.3767 55.8644 22.3625 55.372C23.0466 55.0285 22.9801 53.9224 22.2573 53.6663C20.7909 53.2384 19.1944 53.3794 17.7489 52.8552C16.7094 52.4402 16.6925 50.8407 17.5791 50.2559Z" fill="black"/>
<path d="M31.0031 49.8808C32.0118 49.6554 33.093 49.6395 34.0888 49.9403C34.6577 50.0942 35.0539 50.548 35.4838 50.9173C35.5036 50.5857 35.5115 50.2531 35.5294 49.9225C35.8422 49.9245 36.1549 49.9205 36.4686 49.9145C36.553 51.8337 36.4796 53.7598 36.5064 55.6829C36.5302 56.4781 36.3753 57.3528 35.7548 57.9088C34.9397 58.6475 33.7781 58.7676 32.7277 58.7884C31.7934 58.7686 30.8085 58.7477 29.9626 58.3039C29.3709 57.9981 29.0879 57.3498 28.9708 56.7273C29.2895 56.7204 29.6092 56.7174 29.9299 56.7075C30.1324 57.1205 30.2883 57.6209 30.7331 57.8383C31.4002 58.159 32.1647 58.1689 32.8905 58.1639C33.6986 58.1361 34.625 57.9813 35.1343 57.2793C35.6247 56.6092 35.5135 55.7325 35.5135 54.9531C34.5008 55.9787 32.9699 56.1694 31.6018 56.0045C30.743 55.9053 29.8455 55.5995 29.2855 54.9075C28.6054 54.0665 28.521 52.8791 28.7732 51.8625C29.0363 50.825 29.9924 50.1091 31.0031 49.8808ZM31.8232 50.4586C31.1183 50.5688 30.4124 50.9123 30.0202 51.5289C29.5655 52.2626 29.5585 53.2216 29.8643 54.0139C30.19 54.835 31.0756 55.255 31.9106 55.3403C32.9699 55.4922 34.206 55.3552 34.9625 54.5193C35.8094 53.4887 35.7171 51.7006 34.5833 50.9074C33.783 50.3653 32.7515 50.3325 31.8232 50.4586Z" fill="black"/>
<path d="M39.4832 49.9761C40.1931 49.6654 40.9863 49.7229 41.7429 49.7249C41.7429 49.989 41.7449 50.2531 41.7478 50.5172C40.9704 50.5063 40.1037 50.402 39.4345 50.8885C38.7813 51.3353 38.5569 52.1683 38.545 52.9218C38.534 53.9971 38.5519 55.0743 38.54 56.1515C38.2193 56.1495 37.8986 56.1485 37.5789 56.1485C37.5482 54.0735 37.5432 51.9985 37.571 49.9235C37.8917 49.9255 38.2143 49.9255 38.535 49.9205C38.542 50.2789 38.543 50.6383 38.5529 50.9957C38.7922 50.6016 39.0434 50.1707 39.4832 49.9761Z" fill="black"/>
<path d="M42.0805 51.2668C42.7338 50.2134 44.0096 49.7656 45.197 49.7279C46.4122 49.6683 47.7823 49.8331 48.6699 50.7535C49.3272 51.3919 49.5426 52.3281 49.5784 53.2137C47.2591 53.2346 44.9389 53.1978 42.6206 53.2336C42.6742 53.86 42.8639 54.5103 43.3513 54.9412C44.2518 55.7693 45.611 55.8437 46.7528 55.5876C47.5113 55.4237 48.0941 54.834 48.3731 54.1281C48.7265 54.1261 49.079 54.1281 49.4344 54.1311C49.1316 55.1845 48.2033 55.947 47.1539 56.1833C45.7312 56.5139 44.092 56.4573 42.8658 55.5836C41.5265 54.6434 41.2733 52.6299 42.0805 51.2668ZM43.8348 50.7574C43.1299 51.1218 42.7993 51.8962 42.6315 52.6319C44.6033 52.6468 46.576 52.6448 48.5488 52.6319C48.4823 52.1832 48.3512 51.7284 48.0405 51.3849C47.0437 50.1766 45.1583 50.0506 43.8348 50.7574Z" fill="black"/>
<path d="M41.7931 0.980782C44.5602 0.255023 47.487 -0.0547395 50.3186 0.483374C52.889 0.947025 55.3353 2.15331 57.1969 3.99898C58.0199 4.82303 58.8559 5.72452 59.1647 6.88117C59.7187 8.86881 59.4983 10.9726 59.1647 12.9781C58.287 17.7894 56.3867 22.3653 53.9533 26.5918C55.0484 26.5918 56.1018 26.2433 57.187 26.1718C58.2513 26.1023 59.3881 26.7566 59.6442 27.8358C59.9649 28.9845 59.2421 30.0975 58.3972 30.8103C56.2448 32.7265 53.2573 33.3599 50.4437 33.1981C50.2749 36.1021 50.2173 39.1223 48.9902 41.8178C48.4431 43.0202 47.5793 44.0924 46.4465 44.7874C45.3624 45.4625 44.1044 45.7822 42.8634 46.0185C41.5062 46.2627 40.017 46.1307 38.8464 45.3493C37.7642 44.6613 37.0851 43.5027 36.6969 42.3073C35.7359 39.8074 35.8322 37.083 35.719 34.451C33.8138 35.2175 31.6464 35.2155 29.7144 34.5513C29.0353 34.315 28.4366 33.903 27.9213 33.4076C26.9265 34.2336 25.5564 34.6586 24.2846 34.2982C22.6663 33.8573 21.5205 32.5001 20.6608 31.134C19.1685 28.6817 18.2323 25.9425 17.4063 23.2063C16.4938 20.0461 15.7204 16.8353 15.3025 13.5699C15.0672 10.6668 15.3283 7.56126 16.895 5.02954C18.1539 2.95651 20.3619 1.57152 22.7219 1.10985C26.0667 0.429761 29.5158 1.08701 32.7246 2.08977C33.7631 1.62314 34.7996 1.11283 35.9364 0.928162C37.8685 0.535001 39.8571 0.714703 41.7931 0.980782ZM41.7832 2.28337C41.534 2.33401 41.2888 2.22182 41.0445 2.19104C38.3083 1.63506 35.2911 1.85447 32.9172 3.43804C30.0698 2.41244 27.0059 1.79391 23.9738 2.11161C21.7191 2.34692 19.4545 3.39336 18.1598 5.31448C16.5236 7.71018 16.3022 10.7701 16.5624 13.5788C17.0886 17.3079 17.998 20.9784 19.1546 24.5585C19.9171 26.7904 20.7551 29.0391 22.1113 30.9881C22.7993 31.9452 23.7147 32.9112 24.9458 33.0611C26.0409 33.1941 27.0307 32.515 27.7009 31.7118C28.8605 30.3219 30.0549 28.9597 31.292 27.6412C32.1001 28.0384 32.9778 28.2667 33.8753 28.3332C33.3898 28.9101 32.9897 29.6616 32.2163 29.888C31.1748 30.2901 29.9536 30.2365 29.0353 30.9295C28.5051 31.3087 28.4793 32.1348 28.9558 32.5706C29.8156 33.4066 31.0845 33.5863 32.2292 33.6816C33.8525 33.8047 35.4916 33.2587 36.7247 32.1963C36.7168 34.7767 36.7297 37.364 37.0196 39.9295C37.1636 41.4326 37.8129 42.9298 38.9556 43.9405C40.0328 44.8797 41.5688 45.0763 42.9359 44.838C44.2772 44.5839 45.6572 44.1808 46.7057 43.2634C47.8206 42.2815 48.2952 40.7982 48.5166 39.3745C48.9167 36.8249 49.2215 34.2604 49.5114 31.6979C52.3807 32.1824 55.6252 31.6334 57.7678 29.5385C58.2264 29.1076 58.6603 28.361 58.2086 27.7743C57.7439 27.2362 56.9517 27.3841 56.3381 27.5052C54.8637 27.7673 53.2623 28.0741 51.8336 27.4615C54.3832 23.4396 56.3887 19.0463 57.5096 14.4098C57.9177 12.6475 58.2324 10.8455 58.1738 9.03164C58.1282 8.01597 57.9872 6.93577 57.3667 6.09485C55.8307 4.06947 53.6048 2.59413 51.1515 1.93489C48.0867 1.10389 44.7984 1.35111 41.7832 2.28337Z" fill="black"/>
</g>
<defs>
<clipPath id="clip0_1_2069">
<rect width="81" height="59" fill="white"/>
</clipPath>
</defs>
</svg>
