<svg width="142" height="40" viewBox="0 0 142 40" fill="none" xmlns="http://www.w3.org/2000/svg">
<g clip-path="url(#clip0_1_2320)">
<path d="M45.2752 25.9594V17.0829C45.2785 16.9833 45.32 16.8887 45.3913 16.8174C45.4842 16.7411 45.602 16.6996 45.7231 16.7013H48.2119C48.9535 16.6681 49.6803 16.9103 50.2527 17.3815C50.7919 17.9456 51.069 18.7105 51.0159 19.4886V19.6048C51.0806 20.4078 50.7969 21.1992 50.2361 21.7783C49.6603 22.2578 48.927 22.5067 48.1787 22.4751H46.3868V25.9594C46.3918 26.0788 46.3271 26.1883 46.2209 26.2414C45.982 26.3924 45.68 26.3924 45.4411 26.2414C45.3382 26.185 45.2735 26.0772 45.2752 25.9594ZM46.3868 21.6124H48.1787C48.6516 21.6472 49.1161 21.478 49.4563 21.1478C49.7864 20.7546 49.954 20.2502 49.9208 19.7375V19.5716C49.9524 19.0639 49.7864 18.5645 49.4563 18.1779C49.1161 17.8477 48.6516 17.6785 48.1787 17.7133H46.3868V21.6124Z" fill="white"/>
<path d="M54.8818 23.5536V19.5716C54.8171 18.7686 55.1008 17.9771 55.6616 17.3981C56.8828 16.4723 58.5718 16.4723 59.7929 17.3981C60.3604 17.9722 60.6457 18.7669 60.5727 19.5716V23.5536C60.6491 24.3633 60.3637 25.1646 59.7929 25.7437C58.5718 26.6695 56.8828 26.6695 55.6616 25.7437C55.0992 25.1597 54.8154 24.3616 54.8818 23.5536ZM55.9935 23.5536C55.9935 24.798 56.5742 25.4284 57.6526 25.4284C58.1305 25.4683 58.6033 25.299 58.9468 24.9639C59.2803 24.574 59.4412 24.0646 59.3947 23.5536V19.5716C59.4429 19.0656 59.2803 18.5612 58.9468 18.1779C58.6033 17.8428 58.1305 17.6735 57.6526 17.7133C56.5078 17.7133 55.9935 18.3272 55.9935 19.5716V23.5536Z" fill="white"/>
<path d="M64.5547 24.9971C64.5531 24.8461 64.6062 24.6984 64.7041 24.5823C64.7721 24.4695 64.8882 24.3965 65.0193 24.3832C65.1387 24.4048 65.2499 24.4628 65.3345 24.5491L65.7161 24.9141C65.8904 25.085 66.0994 25.2144 66.33 25.2957C66.6436 25.4086 66.9754 25.465 67.3089 25.4616C67.7934 25.4799 68.2696 25.3273 68.6529 25.0303C68.9897 24.7217 69.1672 24.2753 69.134 23.8191C69.1589 23.3811 68.9963 22.9513 68.686 22.6411C68.3841 22.3308 68.0157 22.0919 67.6076 21.9442L66.2139 21.4299C65.7908 21.2474 65.4208 20.962 65.1354 20.6003C64.8185 20.1888 64.6592 19.6762 64.6875 19.1568C64.6758 18.7371 64.7671 18.3223 64.9529 17.9456C65.1072 17.6287 65.3495 17.3649 65.6498 17.1824C65.9318 17.0082 66.2404 16.8788 66.5623 16.8008C66.8991 16.7145 67.2442 16.6697 67.591 16.6681C68.1203 16.6681 68.6479 16.751 69.1506 16.917C69.6484 17.0663 69.8972 17.2986 69.8972 17.5474C69.8956 17.6901 69.8491 17.8295 69.7645 17.9456C69.6998 18.0784 69.5637 18.163 69.4161 18.1613C69.2153 18.1016 69.0212 18.0236 68.8354 17.9291C68.4471 17.7665 68.029 17.6818 67.6076 17.6802C67.1546 17.6553 66.705 17.7648 66.3134 17.9954C65.9766 18.2327 65.7875 18.6292 65.8157 19.0407C65.8024 19.4206 65.96 19.7857 66.2471 20.0362C66.5739 20.2983 66.9439 20.5008 67.3421 20.6335C67.7735 20.7828 68.1883 20.9653 68.6363 21.1478C69.6069 21.619 70.2009 22.6261 70.1461 23.7029C70.2009 24.4695 69.9155 25.2227 69.3663 25.7603C68.7723 26.2415 68.0224 26.4887 67.2592 26.4571C66.5673 26.4787 65.8837 26.3062 65.2848 25.9594C64.7704 25.6442 64.5547 25.3123 64.5547 24.9971Z" fill="white"/>
<path d="M73.4975 17.199C73.4925 17.0729 73.534 16.9484 73.6136 16.8506C73.6767 16.756 73.7829 16.6996 73.8957 16.7012H79.2714C79.3892 16.6963 79.502 16.7527 79.57 16.8506C79.638 16.9534 79.6729 17.0762 79.6696 17.199C79.6696 17.3218 79.6364 17.4429 79.57 17.5474C79.5036 17.6486 79.3925 17.7117 79.2714 17.7133H77.1642V26.0091C77.1659 26.1269 77.1012 26.2348 76.9983 26.2912C76.7594 26.4422 76.4574 26.4422 76.2185 26.2912C76.1156 26.2348 76.0509 26.1269 76.0526 26.0091V17.7133H73.9123C73.7994 17.715 73.6933 17.6586 73.6302 17.564C73.5472 17.4595 73.5008 17.3317 73.4975 17.199Z" fill="white"/>
<path d="M83.4363 25.9593V17.2652C83.3865 17.0048 83.5591 16.7526 83.8212 16.7028C83.8262 16.7011 83.8312 16.7011 83.8345 16.7011H84.0004C84.3488 16.7011 84.6475 16.9334 84.8798 17.398L86.9537 21.38L89.0443 17.398C89.2931 16.9334 89.5918 16.7011 89.9236 16.7011C90.1841 16.6613 90.428 16.8388 90.4711 17.0993C90.4877 17.1425 90.4877 17.1889 90.4711 17.2321V25.9261C90.4828 26.0455 90.4247 26.1617 90.3218 26.2247C90.0796 26.3575 89.7842 26.3575 89.542 26.2247C89.4292 26.17 89.3628 26.0505 89.3761 25.9261V19.024L87.3851 22.8068C87.3154 22.9943 87.1379 23.1204 86.9371 23.1221C86.7496 23.1138 86.5887 22.9877 86.5389 22.8068L84.465 18.9576V25.9593C84.4782 26.0754 84.4185 26.1866 84.3156 26.2413C84.2012 26.3176 84.0701 26.3624 83.934 26.3741C83.798 26.3757 83.6636 26.3359 83.5524 26.2579C83.4562 26.1915 83.4097 26.0737 83.4363 25.9593Z" fill="white"/>
<path d="M94.2706 25.8929C94.264 25.8597 94.264 25.8266 94.2706 25.7934L96.9584 17.0994C97.0414 16.8339 97.2571 16.7012 97.6387 16.7012C98.0203 16.7012 98.236 16.8339 98.319 17.0994L101.057 25.8266C101.043 25.9659 100.962 26.0887 100.841 26.1584C100.695 26.243 100.529 26.2878 100.36 26.2911C100.184 26.316 100.016 26.2115 99.9615 26.0423L99.3974 24.184H95.9132L95.3325 26.1252C95.2844 26.2978 95.1118 26.4073 94.9343 26.3741C94.775 26.3708 94.6207 26.326 94.4863 26.2414C94.3536 26.1766 94.2689 26.0406 94.2706 25.8929ZM96.1786 23.2549H99.1319L97.6553 18.2774L96.1786 23.2549Z" fill="white"/>
<path d="M104.889 25.9593V17.0828C104.889 16.8339 105.071 16.7012 105.436 16.7012C105.606 16.6979 105.771 16.7576 105.901 16.8671C106.062 17.0164 106.191 17.1973 106.282 17.398L109.601 23.8356V17.0828C109.599 16.965 109.664 16.8571 109.767 16.8007C110.009 16.668 110.304 16.668 110.547 16.8007C110.649 16.8571 110.714 16.965 110.712 17.0828V25.9593C110.714 26.0771 110.649 26.185 110.547 26.2414C110.435 26.3193 110.301 26.3592 110.165 26.3575C109.846 26.3409 109.568 26.1402 109.451 25.8432L106.017 19.2065V25.9593C106.03 26.0754 105.971 26.1866 105.868 26.2414C105.629 26.3923 105.327 26.3923 105.088 26.2414C104.962 26.2098 104.877 26.0887 104.889 25.9593Z" fill="white"/>
<path d="M35.6686 7.83074C28.9474 -0.871563 16.4439 -2.47929 7.74163 4.24197C-0.960675 10.9632 -2.5684 23.4667 4.15286 32.169C10.8741 40.8713 23.3776 42.479 32.0799 35.7578C32.0815 35.7561 32.0832 35.7561 32.0849 35.7544C40.7838 29.0315 42.3883 16.5314 35.6686 7.83074Z" fill="#FF6C37"/>
<path d="M26.6261 12.7751L18.2308 21.2368L15.8582 18.7978C24.1208 10.5352 24.9504 11.2818 26.6261 12.7751Z" fill="white"/>
<path d="M18.2312 21.469C18.1566 21.4674 18.0852 21.4375 18.0321 21.3861L15.6429 18.9969C15.5318 18.8807 15.5318 18.6982 15.6429 18.5821C23.7894 10.4356 24.9011 10.8172 26.8257 12.5593C26.8904 12.6108 26.9286 12.6921 26.9252 12.775C26.9385 12.8563 26.907 12.9393 26.8423 12.9907L18.4469 21.3861C18.3889 21.4392 18.3109 21.469 18.2312 21.469ZM16.2734 18.7978L18.2312 20.7556L26.1952 12.7916C25.6261 12.0782 24.6107 11.9073 23.8392 12.3934C22.3957 13.0405 20.0729 15.0149 16.2734 18.7978Z" fill="#FF6C37"/>
<path d="M20.6363 23.5761L18.3467 21.2367L26.742 12.9409C28.9985 15.1476 25.647 18.8309 20.6363 23.5761Z" fill="white"/>
<path d="M20.6369 23.8748C20.5639 23.8681 20.4942 23.8399 20.4378 23.7918L18.0984 21.5022C18.0636 21.4176 18.0636 21.3213 18.0984 21.2367C18.0735 21.167 18.0735 21.0907 18.0984 21.021L26.4938 12.6257C26.6149 12.5112 26.804 12.5112 26.9251 12.6257C27.476 13.1317 27.7779 13.8534 27.7547 14.6001C27.7547 16.8399 25.1996 19.6605 20.8526 23.7752C20.7945 23.8333 20.7182 23.8681 20.6369 23.8748ZM18.7787 21.2367L20.6535 23.1116C23.9718 19.9757 27.1408 16.7404 27.1574 14.5503C27.1757 14.0857 27.0214 13.6311 26.726 13.2727L18.7787 21.2367Z" fill="#FF6C37"/>
<path d="M15.9246 18.8476L17.5837 20.5068C17.6252 20.5433 17.6285 20.6063 17.592 20.6478C17.5887 20.6511 17.587 20.6545 17.5837 20.6561L14.0829 21.4027C13.9037 21.4409 13.7278 21.3264 13.6897 21.1472C13.6664 21.0344 13.7013 20.9183 13.7842 20.8386L15.825 18.8145C15.825 18.8145 15.8914 18.8145 15.9246 18.8476Z" fill="white"/>
<path d="M14 21.7346C13.7743 21.7312 13.5686 21.6118 13.4525 21.4193C13.3214 21.1721 13.3678 20.8685 13.5686 20.6727L15.5928 18.6319C15.7438 18.4975 15.9727 18.4975 16.1237 18.6319L17.7829 20.2911C17.8808 20.384 17.9206 20.525 17.8824 20.6561C17.8443 20.7888 17.7364 20.8917 17.6004 20.9216L14.0995 21.6682L14 21.7346ZM15.8582 19.2126L13.9834 21.0875L17.086 20.4238L15.8582 19.2126Z" fill="#FF6C37"/>
<path d="M31.0893 8.11281C29.8101 6.87839 27.7726 6.91489 26.5382 8.19411C25.3038 9.47332 25.3403 11.5108 26.6195 12.7452C27.6665 13.7556 29.2609 13.9381 30.5086 13.1898L28.2521 10.9334L31.0893 8.11281Z" fill="white"/>
<path d="M28.8492 13.953C26.9063 13.9281 25.3533 12.332 25.3782 10.3891C25.3898 9.47993 25.7549 8.61053 26.3936 7.96345C27.7757 6.60626 29.989 6.60626 31.3711 7.96345C31.4906 8.063 31.5055 8.24219 31.4043 8.36165C31.3943 8.37327 31.3827 8.38488 31.3711 8.39483L28.6833 10.9334L30.724 12.9409C30.7904 13.0056 30.8219 13.0986 30.807 13.1898C30.797 13.2777 30.7489 13.3574 30.6743 13.4055C30.1267 13.749 29.4963 13.9381 28.8492 13.953ZM28.8492 7.51548C27.2365 7.52377 25.9357 8.83783 25.944 10.4505C25.9473 11.2154 26.2526 11.9504 26.7918 12.493C27.6363 13.3408 28.9139 13.5847 30.0106 13.1069L28.0528 11.149C27.9881 11.0976 27.9499 11.0163 27.9532 10.9334C27.9549 10.8554 27.9914 10.7824 28.0528 10.7343L30.6411 8.12937C30.1267 7.73449 29.4979 7.5188 28.8492 7.51548Z" fill="#FF6C37"/>
<path d="M31.1392 8.1626L28.302 10.9832L30.5585 13.2396C30.7858 13.1086 30.9965 12.9543 31.1889 12.7751C32.4184 11.4759 32.3968 9.43517 31.1392 8.1626Z" fill="white"/>
<path d="M30.5087 13.4885C30.4324 13.4918 30.3594 13.462 30.3096 13.4055L28.0531 11.1491C27.9884 11.0977 27.9503 11.0164 27.9536 10.9334C27.9552 10.8554 27.9917 10.7824 28.0531 10.7343L30.8737 7.9635C30.965 7.82579 31.1508 7.78928 31.2885 7.87888C31.3217 7.90045 31.3499 7.92866 31.3714 7.9635C32.7452 9.31074 32.7685 11.5158 31.4212 12.8912C31.4046 12.9078 31.388 12.9244 31.3714 12.941C31.1757 13.1484 30.9533 13.3276 30.7078 13.4719C30.6464 13.5034 30.575 13.5084 30.5087 13.4885ZM28.6836 10.9334L30.5585 12.8083C30.6879 12.7187 30.809 12.6174 30.9235 12.5096C31.4743 11.9604 31.7846 11.2138 31.7862 10.4356C31.7879 9.7388 31.534 9.06684 31.0728 8.5442L28.6836 10.9334Z" fill="#FF6C37"/>
<path d="M26.975 13.1234C26.5087 12.6854 25.782 12.6854 25.3158 13.1234L17.7998 20.6228L19.0442 21.8838L26.9916 14.9153C27.4827 14.4474 27.5009 13.6693 27.0314 13.1798C27.0131 13.1599 26.9949 13.1417 26.975 13.1234Z" fill="white"/>
<path d="M18.977 22.1824C18.9024 22.1807 18.831 22.1509 18.7779 22.0994L17.517 20.8385C17.4058 20.7223 17.4058 20.5398 17.517 20.4237L25.033 12.9409C25.6286 12.3452 26.5942 12.3452 27.1899 12.9409C27.4885 13.2395 27.6511 13.6477 27.6379 14.0691C27.6213 14.4889 27.4354 14.8837 27.1235 15.1641L19.1761 22.1326C19.1181 22.1741 19.0467 22.1907 18.977 22.1824ZM18.0977 20.6228L18.9273 21.469L26.7253 14.683C26.9194 14.5154 27.0339 14.2748 27.0406 14.0193C27.0505 13.7622 26.9476 13.5133 26.7585 13.3391C26.3968 12.979 25.8095 12.979 25.4478 13.3391L18.0977 20.6228Z" fill="#FF6C37"/>
<path d="M11.9757 29.1676C11.9309 29.2274 11.9309 29.307 11.9757 29.3667L12.3076 30.8102C12.3441 31.0358 12.1914 31.2499 11.9658 31.2864C11.8446 31.3063 11.7202 31.2714 11.6273 31.1918L9.35425 29.0017L16.4389 21.8673H18.8944L20.5536 23.5265C17.9653 25.7896 15.0784 27.6876 11.9757 29.1676Z" fill="white"/>
<path d="M11.8264 31.6065C11.6389 31.6032 11.4597 31.5252 11.3287 31.3908L9.15517 29.2173C9.09046 29.1659 9.0523 29.0846 9.05562 29.0016C9.05728 28.9236 9.09378 28.8506 9.15517 28.8025L16.2896 21.6515C16.3294 21.6084 16.3825 21.5802 16.4389 21.5686H18.911C18.9757 21.5453 19.0454 21.5453 19.1101 21.5686L20.7693 23.2277C20.834 23.2875 20.8639 23.3737 20.8523 23.46C20.8556 23.543 20.8174 23.6243 20.7527 23.6757L20.62 23.7918C18.0217 25.9587 15.1613 27.7921 12.1085 29.2505L12.4237 30.5944C12.515 30.9777 12.2794 31.3626 11.8961 31.4539C11.8463 31.4655 11.7949 31.4721 11.7435 31.4738L11.8264 31.6065ZM9.80224 29.0016L11.7601 30.976C11.7982 31.0092 11.8546 31.0092 11.8928 30.976C11.9177 30.9412 11.9177 30.8947 11.8928 30.8599L11.561 29.4164C11.5079 29.2024 11.6107 28.9817 11.8098 28.8855C14.7814 27.447 17.5671 25.6534 20.1056 23.543L18.7451 22.1825H16.5218L9.80224 29.0016Z" fill="#FF6C37"/>
<path d="M7.64581 30.7107L9.30497 29.0515L11.8601 31.6066L7.79513 31.3246C7.61263 31.3113 7.47492 31.152 7.48819 30.9695C7.49648 30.8633 7.55455 30.7671 7.64581 30.7107Z" fill="white"/>
<path d="M11.9092 31.8555L7.8608 31.5734C7.51404 31.5403 7.26018 31.2333 7.29171 30.8865C7.30498 30.7455 7.36471 30.6144 7.4626 30.5116L9.12176 28.8524C9.23791 28.7413 9.42041 28.7413 9.53655 28.8524L12.0751 31.3909C12.1464 31.4905 12.1464 31.6232 12.0751 31.7228C12.0369 31.7842 11.9788 31.8323 11.9092 31.8555ZM7.8608 30.9264L11.1791 31.1421L9.35405 29.4331L7.8608 30.9264Z" fill="#FF6C37"/>
<path d="M19.1269 22.0663L15.7754 22.5806L17.7166 20.656L19.1269 22.0663Z" fill="white"/>
<path d="M15.775 22.8959C15.6605 22.8992 15.556 22.8345 15.5096 22.73C15.4382 22.6305 15.4382 22.4977 15.5096 22.3982L17.4342 20.457C17.5553 20.3425 17.7445 20.3425 17.8656 20.457L19.2759 21.8672C19.3323 21.9585 19.3323 22.0746 19.2759 22.1659C19.2493 22.2787 19.1581 22.3633 19.0436 22.3816L15.7253 22.8959H15.775ZM17.7162 21.0874L16.6378 22.1659L18.4961 21.8838L17.7162 21.0874Z" fill="#FF6C37"/>
<path d="M19.1271 22.0663L16.7877 22.3649C16.6267 22.4014 16.4674 22.3002 16.4309 22.141C16.4094 22.0431 16.4376 21.9402 16.5056 21.8672L17.7168 20.656L19.1271 22.0663Z" fill="white"/>
<path d="M16.7206 22.6802C16.4999 22.6786 16.2975 22.5574 16.1896 22.365C16.0602 22.131 16.1 21.8407 16.2892 21.6515L17.5004 20.4404C17.6215 20.3259 17.8106 20.3259 17.9318 20.4404L19.342 21.8506C19.4615 21.9635 19.4665 22.1526 19.3537 22.2721C19.3022 22.3252 19.2342 22.3583 19.1595 22.365L16.8367 22.6636L16.7206 22.6802ZM16.7206 22.0663L18.4793 21.8506L17.6995 21.0708L16.704 22.0663H16.7206Z" fill="#FF6C37"/>
<path d="M31.1558 10.0706C31.0911 9.96279 30.955 9.91965 30.8405 9.97109C30.7261 10.0292 30.6813 10.1702 30.7393 10.283C30.7393 10.2847 30.741 10.2847 30.741 10.2863C30.8571 10.5302 30.8256 10.8206 30.658 11.0329C30.5718 11.1142 30.5668 11.2503 30.6481 11.3382C30.6514 11.3416 30.6547 11.3449 30.658 11.3482C30.7012 11.3648 30.7476 11.3648 30.7908 11.3482C30.8687 11.3681 30.9534 11.3432 31.0065 11.2818C31.2852 10.94 31.3433 10.4688 31.1558 10.0706Z" fill="#FF6C37"/>
<path d="M110.95 16.941C110.237 18.4268 109.642 19.7938 108.989 21.1608C108.81 21.5174 108.692 21.9928 108.335 21.9928C107.859 21.9928 107.8 21.5174 107.622 21.1013C107.087 19.9127 106.552 18.724 106.017 17.5948C105.898 17.4165 105.898 17.0599 105.66 17.1193C105.363 17.1787 105.423 17.5353 105.423 17.7731C105.423 20.1504 105.423 22.5277 105.423 24.9645C105.423 25.3211 105.423 25.6777 105.363 26.0343C105.304 26.3909 105.066 26.6286 104.709 26.6286C104.353 26.5692 104.234 26.3315 104.175 26.0343C104.175 25.7966 104.175 25.5588 104.175 25.3211C104.175 21.8145 104.175 18.3674 104.175 14.8608C104.175 14.3853 104.056 13.7316 104.591 13.5533C105.185 13.375 105.542 13.8504 105.779 14.3853C106.433 15.7523 106.968 17.1193 107.622 18.4268C107.8 18.7834 107.859 19.4372 108.335 19.4966C108.87 19.4966 108.929 18.7834 109.108 18.4268C109.761 17.1193 110.296 15.8118 110.95 14.5042C111.188 13.9693 111.485 13.4344 112.139 13.5533C112.792 13.7316 112.614 14.3853 112.614 14.9202C112.614 18.3674 112.614 21.8145 112.614 25.2617C112.614 25.7966 112.792 26.6286 112.02 26.6286C111.188 26.6286 111.366 25.7966 111.366 25.2022C111.366 22.9438 111.366 20.6853 111.366 18.3674C111.307 17.8919 111.425 17.4165 110.95 16.941Z" fill="#FF6C37"/>
<path d="M136.446 17.2382C136.09 17.5948 136.209 18.0703 136.209 18.4863C136.209 20.8637 136.209 23.1816 136.209 25.5589C136.209 25.9749 136.328 26.6287 135.733 26.6287C135.08 26.6881 135.08 26.0344 135.08 25.5589C135.08 21.9335 135.08 18.308 135.08 14.6231C135.08 14.2071 135.02 13.6722 135.496 13.5533C136.03 13.375 136.328 13.7911 136.565 14.2665C137.516 16.4061 138.527 18.5457 139.478 20.7448C139.656 21.2203 139.894 21.6363 140.072 22.1118C140.191 22.3495 140.191 22.7061 140.547 22.5872C140.845 22.4684 140.785 22.1118 140.785 21.874C140.785 19.5561 140.785 17.2382 140.785 14.9203C140.785 14.6231 140.785 14.3854 140.845 14.0882C140.904 13.6722 141.142 13.4939 141.498 13.4939C141.855 13.5533 141.974 13.8505 141.974 14.2071C141.974 15.0986 141.974 15.9901 141.974 16.8816C141.974 19.675 141.974 22.4089 141.974 25.2023C141.974 25.6778 142.152 26.3315 141.558 26.5098C140.904 26.7476 140.666 26.0938 140.429 25.5589C139.299 23.1221 138.229 20.6259 137.1 18.1891C136.922 17.8325 136.863 17.4165 136.446 17.2382Z" fill="#FF6C37"/>
<path d="M68.9902 20.0317C68.9308 21.3392 69.0497 22.5873 68.8714 23.8948C68.5742 25.7373 67.5638 26.6288 65.7214 26.6288C63.7601 26.6288 62.6309 25.7967 62.3931 23.9543C62.096 21.2798 62.0365 18.5458 62.3931 15.8713C62.6309 14.1477 63.8195 13.3157 65.6025 13.3157C67.3855 13.3157 68.5148 14.2072 68.8119 15.8713C69.1091 17.2977 68.9308 18.6647 68.9902 20.0317ZM67.8016 20.0317C67.8016 19.0213 67.861 18.0109 67.8016 17.0005C67.7421 15.4553 66.9101 14.5638 65.5431 14.6232C64.2356 14.6232 63.4629 15.4553 63.4035 17.0005C63.3441 19.0213 63.3441 21.1015 63.4035 23.1222C63.4629 24.6675 64.2356 25.4995 65.5431 25.559C66.9101 25.559 67.7421 24.7269 67.8016 23.1222C67.861 22.1118 67.8016 21.1015 67.8016 20.0317Z" fill="#FF6C37"/>
<path d="M127.71 25.7966C127.71 26.2127 127.651 26.5098 127.294 26.5693C126.997 26.6287 126.759 26.5693 126.64 26.2127C126.581 25.9749 126.462 25.6778 126.403 25.44C125.868 23.5976 125.868 23.5976 124.263 23.5976C124.085 23.5976 123.907 23.5976 123.728 23.5976C121.708 23.5976 121.708 23.5976 120.994 25.7372C120.875 26.1532 120.816 26.7476 120.222 26.5693C119.627 26.3315 119.806 25.7372 119.925 25.2617C120.875 21.6957 121.826 18.0703 122.837 14.5043C123.015 13.9694 123.074 13.1967 123.847 13.2562C124.501 13.3156 124.62 13.9694 124.739 14.5043C125.63 17.892 126.581 21.2797 127.473 24.7268C127.591 25.0834 127.651 25.44 127.71 25.7966ZM123.728 22.4684C123.907 22.4684 124.144 22.4684 124.323 22.4684C125.63 22.4684 125.69 22.4089 125.274 20.9231C124.917 19.4967 124.56 18.0703 124.144 16.7033C124.085 16.4061 124.144 15.9901 123.788 15.9901C123.431 15.9901 123.372 16.4061 123.312 16.7627C123.015 17.9514 122.718 19.1401 122.361 20.3288C121.767 22.4684 121.826 22.4684 123.728 22.4684Z" fill="#FF6C37"/>
<path d="M48.0693 20.0315C48.0693 18.1891 48.0693 16.3467 48.0693 14.5042C48.0693 13.6127 48.3665 13.3156 49.0797 13.3156C49.7335 13.3156 50.4467 13.3156 51.1004 13.3156C53.8344 13.375 54.8448 14.6231 54.7853 17.7731C54.7259 19.9127 53.6561 21.1608 51.8136 21.2796C51.2787 21.2796 50.8033 21.3391 50.2684 21.2796C49.4363 21.2202 49.1391 21.6362 49.1986 22.5277C49.258 23.5975 49.1986 24.6673 49.1986 25.6777C49.1986 26.0938 49.1391 26.5692 48.6042 26.5692C48.0693 26.5692 48.0693 26.0938 48.0693 25.6183C48.0693 23.7758 48.0693 21.874 48.0693 20.0315ZM50.8627 20.2098C52.5863 20.2098 53.2401 19.7938 53.5372 18.5457C53.8344 17.2976 53.8344 16.1089 52.9429 15.158C51.9919 14.2071 50.7438 14.6231 49.6146 14.6825C49.1986 14.6825 49.1986 15.2174 49.1986 15.6335C49.1986 16.525 49.1986 17.4165 49.1986 18.308C49.1986 20.2098 49.1986 20.2098 50.8627 20.2098Z" fill="#FF6C37"/>
<path d="M79.5688 26.7475C78.3207 26.7475 77.3104 26.5098 76.5377 25.5589C76.3 25.2617 76.0028 24.8457 76.3594 24.4296C76.6566 24.073 77.0132 24.3108 77.2509 24.6079C77.9641 25.3806 78.7368 25.6183 79.6877 25.5589C80.5792 25.4994 81.233 25.0834 81.5896 24.073C81.9462 23.0627 81.7084 22.1117 81.0547 21.3985C80.4009 20.6853 79.5688 20.3882 78.7368 19.9721C77.5481 19.4372 76.6566 18.6646 76.5377 17.0599C76.3594 14.9203 77.3104 13.7316 79.3905 13.3156C80.282 13.1373 81.1141 13.375 81.8867 13.6722C82.3028 13.791 82.6594 14.1476 82.4811 14.6825C82.3028 15.2769 81.8867 15.0391 81.5301 14.8608C80.7575 14.4448 79.9254 14.4448 79.1528 14.5637C78.499 14.6825 77.9047 15.0986 77.7858 15.9306C77.667 16.7627 77.7858 17.4759 78.3802 18.0108C79.1528 18.6646 80.0443 18.9023 80.8764 19.3184C82.1839 19.9721 82.8971 21.1014 82.8971 22.7655C82.8971 24.3108 82.5405 25.4994 81.233 26.2721C80.6386 26.6881 79.9849 26.6287 79.5688 26.7475Z" fill="#FF6C37"/>
<path d="M92.585 20.507C92.585 18.9617 92.5255 17.4759 92.585 15.9306C92.6444 14.8014 92.2284 14.4448 91.3368 14.5637C90.9802 14.6231 90.5642 14.5637 90.2076 14.5637C89.851 14.5637 89.6133 14.3854 89.6133 13.9099C89.6133 13.5533 89.851 13.3156 90.1482 13.3156C92.1689 13.3156 94.1897 13.3156 96.2104 13.3156C96.5076 13.3156 96.7453 13.4938 96.7453 13.8504C96.7453 14.2665 96.5076 14.5042 96.151 14.5042C95.7349 14.5042 95.2595 14.5637 94.8434 14.5042C94.0114 14.4448 93.7736 14.8608 93.7736 15.7523C93.7736 18.6646 93.7736 21.6362 93.7736 24.5485C93.7736 24.8456 93.7736 25.2023 93.7736 25.4994C93.7736 25.9749 93.7142 26.5098 93.1793 26.5098C92.585 26.5098 92.585 25.9749 92.585 25.4994C92.585 24.073 92.585 22.706 92.585 21.2796C92.585 21.0419 92.585 20.8042 92.585 20.507Z" fill="#FF6C37"/>
</g>
<defs>
<clipPath id="clip0_1_2320">
<rect width="142" height="40" fill="white"/>
</clipPath>
</defs>
</svg>
