<svg width="54" height="49" viewBox="0 0 54 49" fill="none" xmlns="http://www.w3.org/2000/svg">
<g clip-path="url(#clip0_1_2135)">
<path d="M44.4 16C43.8 15.8 43.3 15.6 42.7 15.5C42.8 15.1 42.9 14.7 43 14.3C44.3 7.89997 43.5 2.79997 40.5 1.09997C37.6 -0.500029 33 1.19997 28.4 5.19997C27.9 5.59997 27.5 5.99997 27 6.39997C26.7 6.09997 26.4 5.79997 26.1 5.59997C21.2 1.29997 16.3 -0.600029 13.4 1.09997C10.6 2.79997 9.8 7.59997 11 13.7C11.1 14.3 11.2 14.9 11.4 15.5C10.7 15.7 10 15.9 9.4 16.1C3.7 18.1 0 21.2 0 24.5C0 27.8 3.9 31.2 9.9 33.2C10.4 33.4 10.9 33.5 11.4 33.7C11.2 34.4 11.1 35 11 35.6C9.9 41.5 10.8 46.3 13.6 47.9C16.5 49.6 21.4 47.9 26.1 43.7C26.5 43.4 26.9 43 27.2 42.7C27.7 43.2 28.2 43.6 28.7 44C33.3 47.9 37.8 49.5 40.6 47.9C43.5 46.2 44.4 41.1 43.2 35C43.1 34.5 43 34 42.9 33.6C43.2 33.5 43.6 33.4 43.9 33.3C50 31.2 54 27.8 54 24.5C54 21.2 50.2 18.1 44.4 16ZM29.9 6.89997C33.9 3.39997 37.6 2.09997 39.3 2.99997C41.1 3.99997 41.8 8.19997 40.7 13.8C40.6 14.2 40.5 14.5 40.5 14.9C38.3 14.4 35.8 14 33.3 13.8C31.8 11.7 30.3 9.79997 28.7 8.09997C29.1 7.69997 29.5 7.29997 29.9 6.89997ZM17.2 24.5C17.9 23 18.7 21.6 19.5 20.1C20.3 18.7 21.2 17.3 22.1 15.9C23.7 15.8 25.4 15.7 27 15.7C28.7 15.7 30.3 15.8 31.9 15.9C32.8 17.2 33.7 18.6 34.5 20.1C35.3 21.6 36.1 23 36.8 24.4C36.1 25.8 35.3 27.3 34.5 28.8C33.7 30.3 32.8 31.7 31.9 33C30.3 33.1 28.6 33.2 27 33.2C25.3 33.2 23.7 33.1 22.1 33C21.2 31.7 20.3 30.3 19.5 28.8C18.6 27.4 17.9 26 17.2 24.5ZM15.9 27.2C16.4 28.1 16.9 29.1 17.4 30C17.9 30.9 18.5 31.9 19.1 32.8C17.3 32.6 15.7 32.3 14.1 32C14.7 30.4 15.3 28.8 15.9 27.2ZM15.9 21.8C15.2 20.2 14.7 18.6 14.2 17.1C15.7 16.8 17.4 16.5 19.1 16.3C18.5 17.2 18 18.1 17.4 19C16.9 19.9 16.4 20.9 15.9 21.8ZM36.5 30C37.1 29 37.6 28.1 38.1 27.1C38.8 28.7 39.4 30.3 39.9 31.9C38.3 32.3 36.6 32.5 34.9 32.8C35.4 31.9 36 30.9 36.5 30ZM38.1 21.8C37.6 20.9 37.1 19.9 36.5 19C36 18.1 35.4 17.2 34.9 16.3C36.6 16.5 38.3 16.8 39.8 17.2C39.3 18.6 38.8 20.2 38.1 21.8ZM27 9.69997C28.1 10.9 29.1 12.1 30.2 13.5C29.1 13.5 28.1 13.4 27 13.4C25.9 13.4 24.9 13.4 23.8 13.5C24.9 12.2 25.9 10.9 27 9.69997ZM14.6 3.19997C16.4 2.19997 20.4 3.59997 24.6 7.39997C24.9 7.59997 25.1 7.89997 25.4 8.09997C23.8 9.79997 22.3 11.7 20.8 13.8C18.3 14 15.8 14.4 13.6 14.9C13.5 14.3 13.3 13.8 13.2 13.2C12.2 8.09997 12.9 4.09997 14.6 3.19997ZM12 31.4C11.5 31.3 11.1 31.1 10.7 31C8.1 30.1 5.9 28.9 4.4 27.7C3.1 26.6 2.4 25.4 2.4 24.5C2.4 22.5 5.3 20 10.2 18.3C10.8 18.1 11.4 17.9 12.1 17.7C12.8 19.9 13.7 22.2 14.7 24.5C13.5 26.9 12.6 29.2 12 31.4ZM24.5 41.9C22.4 43.7 20.3 45 18.5 45.7C16.8 46.3 15.5 46.3 14.7 45.8C13 44.8 12.3 41 13.3 35.9C13.4 35.3 13.5 34.7 13.7 34.1C15.9 34.6 18.4 34.9 21 35.2C22.5 37.3 24.1 39.2 25.6 40.9C25.1 41.3 24.8 41.6 24.5 41.9ZM27.1 39.3C26 38.1 24.9 36.8 23.9 35.4C24.9 35.4 26 35.5 27.1 35.5C28.2 35.5 29.3 35.5 30.4 35.4C29.2 36.9 28.1 38.2 27.1 39.3ZM41.1 42.5C40.8 44.2 40.1 45.4 39.3 45.9C37.6 46.9 34 45.6 30 42.2C29.5 41.8 29.1 41.4 28.6 41C30.1 39.3 31.6 37.4 33.1 35.3C35.7 35.1 38.2 34.7 40.4 34.2C40.5 34.6 40.6 35.1 40.7 35.5C41.4 38.1 41.5 40.6 41.1 42.5ZM43.1 31C42.8 31.1 42.5 31.2 42.2 31.3C41.5 29.1 40.6 26.8 39.5 24.5C40.6 22.2 41.5 19.9 42.1 17.8C42.7 18 43.2 18.1 43.7 18.3C48.7 20 51.7 22.6 51.7 24.5C51.7 26.5 48.4 29.3 43.1 31Z" fill="#01D8F8"/>
<path d="M27 19.6C29.7 19.6 31.7999 21.8 31.7999 24.4C31.7999 27.1 29.6 29.2 27 29.2C24.4 29.2 22.2 27 22.2 24.4C22.2 21.8 24.3 19.6 27 19.6Z" fill="#01D8F8"/>
</g>
<defs>
<clipPath id="clip0_1_2135">
<rect width="54" height="49" fill="white"/>
</clipPath>
</defs>
</svg>
