<svg width="53" height="55" viewBox="0 0 53 55" fill="none" xmlns="http://www.w3.org/2000/svg">
<path d="M4.84216 35.3785C6.69547 34.6707 7.63406 32.568 6.93855 30.6819C6.24305 28.7959 4.17682 27.8407 2.3235 28.5485C0.470183 29.2563 -0.468406 31.359 0.227102 33.2451C0.922611 35.1311 2.98884 36.0863 4.84216 35.3785Z" fill="url(#paint0_linear_1_56)"/>
<path d="M16.7933 35.3773C18.6466 34.6695 19.5852 32.5667 18.8897 30.6807C18.1942 28.7947 16.128 27.8395 14.2747 28.5473C12.4214 29.2551 11.4828 31.3578 12.1783 33.2438C12.8738 35.1299 14.94 36.085 16.7933 35.3773Z" fill="url(#paint1_linear_1_56)"/>
<path d="M10.4955 45.0157C12.3488 44.3079 13.2874 42.2052 12.5919 40.3191C11.8964 38.4331 9.83014 37.4779 7.97682 38.1857C6.1235 38.8935 5.18491 40.9962 5.88042 42.8823C6.57593 44.7683 8.64216 45.7235 10.4955 45.0157Z" fill="url(#paint2_linear_1_56)"/>
<path d="M15.8724 54.7696C17.7257 54.0618 18.6643 51.9591 17.9688 50.073C17.2733 48.187 15.2071 47.2318 13.3538 47.9396C11.5005 48.6474 10.5619 50.7501 11.2574 52.6362C11.9529 54.5222 14.0191 55.4774 15.8724 54.7696Z" fill="url(#paint3_linear_1_56)"/>
<path d="M21.8578 45.0154C23.7111 44.3077 24.6497 42.2049 23.9542 40.3189C23.2587 38.4328 21.1924 37.4777 19.3391 38.1855C17.4858 38.8933 16.5472 40.996 17.2427 42.882C17.9382 44.7681 20.0045 45.7232 21.8578 45.0154Z" fill="url(#paint4_linear_1_56)"/>
<path d="M26.7972 54.7686C28.6506 54.0608 29.5891 51.9581 28.8936 50.0721C28.1981 48.186 26.1319 47.2309 24.2786 47.9386C22.4253 48.6464 21.4867 50.7492 22.1822 52.6352C22.8777 54.5212 24.9439 55.4764 26.7972 54.7686Z" fill="url(#paint5_linear_1_56)"/>
<path d="M37.6859 54.7698C39.5392 54.062 40.4778 51.9593 39.7823 50.0733C39.0868 48.1872 37.0206 47.2321 35.1672 47.9399C33.3139 48.6477 32.3753 50.7504 33.0709 52.6364C33.7664 54.5225 35.8326 55.4776 37.6859 54.7698Z" fill="url(#paint6_linear_1_56)"/>
<path d="M32.1215 45.0194C33.9748 44.3116 34.9134 42.2088 34.2179 40.3228C33.5223 38.4368 31.4561 37.4816 29.6028 38.1894C27.7495 38.8972 26.8109 40.9999 27.5064 42.8859C28.2019 44.772 30.2681 45.7271 32.1215 45.0194Z" fill="url(#paint7_linear_1_56)"/>
<path d="M43.2904 45.0191C45.1437 44.3113 46.0823 42.2086 45.3868 40.3226C44.6913 38.4365 42.6251 37.4813 40.7717 38.1891C38.9184 38.8969 37.9798 40.9996 38.6753 42.8857C39.3709 44.7717 41.4371 45.7269 43.2904 45.0191Z" fill="url(#paint8_linear_1_56)"/>
<path d="M37.3588 35.3773C39.2121 34.6695 40.1507 32.5667 39.4552 30.6807C38.7597 28.7947 36.6934 27.8395 34.8401 28.5473C32.9868 29.2551 32.0482 31.3578 32.7437 33.2438C33.4392 35.1299 35.5054 36.085 37.3588 35.3773Z" fill="url(#paint9_linear_1_56)"/>
<path d="M48.6664 35.3797C50.5197 34.6719 51.4583 32.5692 50.7628 30.6831C50.0673 28.7971 48.001 27.8419 46.1477 28.5497C44.2944 29.2575 43.3558 31.3602 44.0513 33.2463C44.7468 35.1323 46.8131 36.0875 48.6664 35.3797Z" fill="url(#paint10_linear_1_56)"/>
<path d="M43.3353 25.492C45.1886 24.7842 46.1272 22.6815 45.4317 20.7955C44.7362 18.9094 42.67 17.9542 40.8167 18.662C38.9633 19.3698 38.0248 21.4725 38.7203 23.3586C39.4158 25.2446 41.482 26.1998 43.3353 25.492Z" fill="url(#paint11_linear_1_56)"/>
<path d="M34.1548 10.2865C35.5869 10.161 36.6479 8.87783 36.5246 7.42041C36.4014 5.96299 35.1405 4.88322 33.7083 5.00868C32.2762 5.13414 31.2152 6.41731 31.3385 7.87473C31.4617 9.33215 32.7226 10.4119 34.1548 10.2865Z" fill="url(#paint12_linear_1_56)"/>
<path d="M43.5337 2.88089C43.8254 1.62131 43.0585 0.359602 41.8208 0.0627791C40.583 -0.234044 39.3432 0.546421 39.0516 1.806C38.7599 3.06558 39.5268 4.32729 40.7645 4.62412C42.0023 4.92094 43.2421 4.14047 43.5337 2.88089Z" fill="url(#paint13_linear_1_56)"/>
<path d="M10.4271 25.4922C12.2804 24.7845 13.219 22.6817 12.5235 20.7957C11.828 18.9097 9.76178 17.9545 7.90846 18.6623C6.05514 19.3701 5.11655 21.4728 5.81206 23.3588C6.50757 25.2449 8.5738 26.2 10.4271 25.4922Z" fill="url(#paint14_linear_1_56)"/>
<path d="M16.0775 15.6685C17.9308 14.9607 18.8694 12.858 18.1739 10.972C17.4784 9.08592 15.4122 8.13076 13.5589 8.83855C11.7055 9.54634 10.7669 11.6491 11.4625 13.5351C12.158 15.4211 14.2242 16.3763 16.0775 15.6685Z" fill="url(#paint15_linear_1_56)"/>
<path d="M22.0658 25.4932C23.9191 24.7854 24.8577 22.6827 24.1622 20.7967C23.4667 18.9106 21.4004 17.9555 19.5471 18.6633C17.6938 19.371 16.7552 21.4738 17.4507 23.3598C18.1462 25.2459 20.2125 26.201 22.0658 25.4932Z" fill="url(#paint16_linear_1_56)"/>
<path d="M27.2416 15.67C29.0949 14.9622 30.0335 12.8595 29.338 10.9734C28.6425 9.08739 26.5762 8.13222 24.7229 8.84001C22.8696 9.5478 21.931 11.6505 22.6265 13.5366C23.322 15.4226 25.3883 16.3778 27.2416 15.67Z" fill="url(#paint17_linear_1_56)"/>
<defs>
<linearGradient id="paint0_linear_1_56" x1="-6.34118" y1="11.9305" x2="25.9733" y2="74.9157" gradientUnits="userSpaceOnUse">
<stop stop-color="#BCFA01"/>
<stop offset="1" stop-color="#26ED88"/>
</linearGradient>
<linearGradient id="paint1_linear_1_56" x1="3.18987" y1="7.03969" x2="35.5017" y2="70.025" gradientUnits="userSpaceOnUse">
<stop stop-color="#BCFA01"/>
<stop offset="1" stop-color="#26ED88"/>
</linearGradient>
<linearGradient id="paint2_linear_1_56" x1="-5.63979" y1="11.5699" x2="26.6747" y2="74.5552" gradientUnits="userSpaceOnUse">
<stop stop-color="#BCFA01"/>
<stop offset="1" stop-color="#26ED88"/>
</linearGradient>
<linearGradient id="paint3_linear_1_56" x1="-5.2044" y1="11.3493" x2="27.1101" y2="74.3345" gradientUnits="userSpaceOnUse">
<stop stop-color="#BCFA01"/>
<stop offset="1" stop-color="#26ED88"/>
</linearGradient>
<linearGradient id="paint4_linear_1_56" x1="3.42141" y1="6.9203" x2="35.7359" y2="69.9056" gradientUnits="userSpaceOnUse">
<stop stop-color="#BCFA01"/>
<stop offset="1" stop-color="#26ED88"/>
</linearGradient>
<linearGradient id="paint5_linear_1_56" x1="3.50658" y1="6.87557" x2="35.8211" y2="69.8608" gradientUnits="userSpaceOnUse">
<stop stop-color="#BCFA01"/>
<stop offset="1" stop-color="#26ED88"/>
</linearGradient>
<linearGradient id="paint6_linear_1_56" x1="12.1891" y1="2.42295" x2="44.5036" y2="65.4082" gradientUnits="userSpaceOnUse">
<stop stop-color="#BCFA01"/>
<stop offset="1" stop-color="#26ED88"/>
</linearGradient>
<linearGradient id="paint7_linear_1_56" x1="11.6014" y1="2.7237" x2="43.916" y2="65.709" gradientUnits="userSpaceOnUse">
<stop stop-color="#BCFA01"/>
<stop offset="1" stop-color="#26ED88"/>
</linearGradient>
<linearGradient id="paint8_linear_1_56" x1="20.5078" y1="-1.84596" x2="52.8223" y2="61.1393" gradientUnits="userSpaceOnUse">
<stop stop-color="#BCFA01"/>
<stop offset="1" stop-color="#26ED88"/>
</linearGradient>
<linearGradient id="paint9_linear_1_56" x1="19.5856" y1="-1.3737" x2="51.9001" y2="61.6116" gradientUnits="userSpaceOnUse">
<stop stop-color="#BCFA01"/>
<stop offset="1" stop-color="#26ED88"/>
</linearGradient>
<linearGradient id="paint10_linear_1_56" x1="28.6032" y1="-5.99705" x2="60.9177" y2="56.9882" gradientUnits="userSpaceOnUse">
<stop stop-color="#BCFA01"/>
<stop offset="1" stop-color="#26ED88"/>
</linearGradient>
<linearGradient id="paint11_linear_1_56" x1="28.2568" y1="-5.82257" x2="60.5713" y2="57.1627" gradientUnits="userSpaceOnUse">
<stop stop-color="#BCFA01"/>
<stop offset="1" stop-color="#26ED88"/>
</linearGradient>
<linearGradient id="paint12_linear_1_56" x1="27.4606" y1="-5.41199" x2="59.7751" y2="57.5733" gradientUnits="userSpaceOnUse">
<stop stop-color="#BCFA01"/>
<stop offset="1" stop-color="#26ED88"/>
</linearGradient>
<linearGradient id="paint13_linear_1_56" x1="35.4276" y1="-9.49664" x2="67.7394" y2="53.4887" gradientUnits="userSpaceOnUse">
<stop stop-color="#BCFA01"/>
<stop offset="1" stop-color="#26ED88"/>
</linearGradient>
<linearGradient id="paint14_linear_1_56" x1="2.01596" y1="7.64119" x2="34.3305" y2="70.6265" gradientUnits="userSpaceOnUse">
<stop stop-color="#BCFA01"/>
<stop offset="1" stop-color="#26ED88"/>
</linearGradient>
<linearGradient id="paint15_linear_1_56" x1="10.4023" y1="3.33894" x2="42.7168" y2="66.3242" gradientUnits="userSpaceOnUse">
<stop stop-color="#BCFA01"/>
<stop offset="1" stop-color="#26ED88"/>
</linearGradient>
<linearGradient id="paint16_linear_1_56" x1="11.2963" y1="2.88096" x2="43.6108" y2="65.8663" gradientUnits="userSpaceOnUse">
<stop stop-color="#BCFA01"/>
<stop offset="1" stop-color="#26ED88"/>
</linearGradient>
<linearGradient id="paint17_linear_1_56" x1="19.3045" y1="-1.2248" x2="51.619" y2="61.7605" gradientUnits="userSpaceOnUse">
<stop stop-color="#BCFA01"/>
<stop offset="1" stop-color="#26ED88"/>
</linearGradient>
</defs>
</svg>
