<svg width="87" height="33" viewBox="0 0 87 33" fill="none" xmlns="http://www.w3.org/2000/svg">
<g clip-path="url(#clip0_1_1911)">
<path d="M27.9901 1.41162H34.9876L17.4938 31.5884L0 1.41162H6.91006H13.3828L17.4938 8.40915L21.5174 1.41162H27.9901Z" fill="#41B883"/>
<path d="M0 1.41162L17.4938 31.5884L34.9876 1.41162H27.9901L17.4938 19.5177L6.91006 1.41162H0Z" fill="#41B883"/>
<path d="M6.91016 1.41162L17.4939 19.6052L27.9902 1.41162H21.5175L17.4939 8.40915L13.3829 1.41162H6.91016Z" fill="#35495E"/>
<path d="M47.0517 9.99341H48.6637L44.0214 22.8719H42.5416L37.9258 9.99341H39.5114L42.4712 18.3265C42.8116 19.2839 43.0819 20.2146 43.2816 21.1189C43.493 20.1676 43.769 19.2193 44.1097 18.2737L47.0517 9.99341Z" fill="#35495E"/>
<path d="M51.5883 13.2173V19.4803C51.5883 20.2674 51.7674 20.8546 52.1257 21.2422C52.4837 21.6298 53.0448 21.8236 53.8082 21.8236C54.8182 21.8236 55.5568 21.5476 56.0236 20.9955C56.4905 20.4436 56.7239 19.542 56.7239 18.2912V13.2173H58.1862V22.8717H56.9794L56.7679 21.5767H56.6887C56.3892 22.0523 55.9737 22.4167 55.4422 22.669C54.9106 22.9216 54.3045 23.0477 53.6231 23.0477C52.4485 23.0477 51.5693 22.7689 50.9849 22.2109C50.4005 21.6531 50.1084 20.7605 50.1084 19.533V13.2173H51.5883Z" fill="#35495E"/>
<path d="M65.3649 23.048C63.938 23.048 62.8117 22.6135 61.9867 21.7443C61.1616 20.8753 60.749 19.6685 60.749 18.1239C60.749 16.5678 61.1322 15.3316 61.8986 14.4155C62.6649 13.4994 63.6941 13.0413 64.9861 13.0413C66.1959 13.0413 67.153 13.4392 67.8578 14.2348C68.5625 15.0306 68.9148 16.0803 68.9148 17.384V18.3089H62.2642C62.2935 19.4425 62.5799 20.3028 63.123 20.89C63.6661 21.4774 64.4311 21.7708 65.4177 21.7708C66.4571 21.7708 67.4847 21.5536 68.5008 21.1189V22.4226C67.9841 22.6459 67.4952 22.8058 67.0342 22.9027C66.5731 22.9995 66.0168 23.048 65.3649 23.048ZM64.9686 14.2656C64.1934 14.2656 63.5754 14.5181 63.1144 15.0231C62.6532 15.5283 62.3818 16.227 62.2995 17.1195H67.3471C67.3471 16.1977 67.1414 15.4915 66.7304 15.0011C66.3193 14.5109 65.7319 14.2656 64.9686 14.2656Z" fill="#35495E"/>
<path d="M71.1963 21.9378C71.1963 21.5445 71.2857 21.2462 71.465 21.0437C71.6442 20.8412 71.901 20.7397 72.2358 20.7397C72.5762 20.7397 72.8422 20.841 73.033 21.0437C73.2238 21.2462 73.3193 21.5445 73.3193 21.9378C73.3193 22.3197 73.2224 22.6132 73.0286 22.8186C72.8348 23.0242 72.5705 23.127 72.2358 23.127C71.9364 23.127 71.6882 23.0344 71.4915 22.8495C71.2946 22.6646 71.1963 22.3607 71.1963 21.9378Z" fill="#35495E"/>
<path d="M75.0375 27.2056C74.4796 27.2056 74.0275 27.132 73.6809 26.9854V25.7962C74.0861 25.9136 74.4856 25.9724 74.879 25.9724C75.3371 25.9724 75.6732 25.8476 75.8876 25.5981C76.1019 25.3484 76.2092 24.9683 76.2092 24.4573V13.2172H77.6714V24.3515C77.6714 26.2543 76.7934 27.2056 75.0375 27.2056ZM76.0858 10.6011C76.0858 10.2664 76.168 10.0212 76.3325 9.86551C76.4967 9.70998 76.7024 9.63208 76.9491 9.63208C77.1839 9.63208 77.3865 9.71135 77.5569 9.86989C77.7272 10.0284 77.8123 10.2722 77.8123 10.6011C77.8123 10.93 77.7272 11.1752 77.5569 11.3366C77.3865 11.4982 77.1839 11.5788 76.9491 11.5788C76.7024 11.5788 76.4967 11.4982 76.3325 11.3366C76.168 11.1751 76.0858 10.93 76.0858 10.6011Z" fill="#35495E"/>
<path d="M86.9997 20.2378C86.9997 21.1363 86.665 21.8295 85.9955 22.3167C85.3261 22.8042 84.3865 23.0479 83.1766 23.0479C81.8963 23.0479 80.8981 22.8453 80.1817 22.4401V21.0835C80.6455 21.3186 81.1431 21.5035 81.6748 21.6385C82.2063 21.7737 82.7187 21.8411 83.2119 21.8411C83.9752 21.8411 84.5626 21.7193 84.9737 21.4755C85.3847 21.2319 85.5904 20.8605 85.5904 20.3612C85.5904 19.9855 85.4275 19.6639 85.1015 19.3966C84.7756 19.1295 84.1399 18.8138 83.1944 18.4496C82.2959 18.1149 81.6573 17.8228 81.2784 17.5731C80.8997 17.3237 80.6178 17.0403 80.4327 16.7231C80.2477 16.406 80.1553 16.0273 80.1553 15.5868C80.1553 14.8 80.4754 14.1789 81.1154 13.7237C81.7554 13.2686 82.6334 13.041 83.7492 13.041C84.7885 13.041 85.8046 13.2524 86.7971 13.6753L86.2773 14.8645C85.3083 14.4653 84.4303 14.2654 83.6435 14.2654C82.9506 14.2654 82.4278 14.3741 82.0755 14.5914C81.7232 14.8087 81.547 15.1083 81.547 15.4899C81.547 15.7483 81.613 15.9685 81.7452 16.1505C81.8773 16.3327 82.09 16.5059 82.3838 16.6702C82.6774 16.8347 83.2412 17.0725 84.0751 17.3837C85.2203 17.8008 85.994 18.2206 86.3962 18.6434C86.7985 19.0663 86.9997 19.5978 86.9997 20.2378Z" fill="#35495E"/>
</g>
<defs>
<clipPath id="clip0_1_1911">
<rect width="87" height="33" fill="white"/>
</clipPath>
</defs>
</svg>
