<svg width="21" height="22" viewBox="0 0 21 22" fill="none" xmlns="http://www.w3.org/2000/svg">
<g clip-path="url(#clip0_1_674)">
<path d="M8.75625 8.5883L13.2188 11.009L8.75625 13.4296V8.5883ZM21 3.12502V18.875C21 20.0607 19.9922 21.0227 18.75 21.0227H2.25C1.00781 21.0227 0 20.0607 0 18.875V3.12502C0 1.9393 1.00781 0.977295 2.25 0.977295H18.75C19.9922 0.977295 21 1.9393 21 3.12502ZM19.0312 11.0134C19.0312 11.0134 19.0312 8.34668 18.675 7.067C18.4781 6.36004 17.9016 5.80521 17.1656 5.61728C15.8391 5.27275 10.5 5.27275 10.5 5.27275C10.5 5.27275 5.16094 5.27275 3.83438 5.61728C3.09844 5.80521 2.52187 6.36004 2.325 7.067C1.96875 8.34221 1.96875 11.0134 1.96875 11.0134C1.96875 11.0134 1.96875 13.6802 2.325 14.9599C2.52187 15.6669 3.09844 16.1993 3.83438 16.3872C5.16094 16.7273 10.5 16.7273 10.5 16.7273C10.5 16.7273 15.8391 16.7273 17.1656 16.3828C17.9016 16.1948 18.4781 15.6624 18.675 14.9554C19.0312 13.6802 19.0312 11.0134 19.0312 11.0134Z" fill="white"/>
</g>
<defs>
<clipPath id="clip0_1_674">
<rect width="21" height="20.0455" fill="white" transform="translate(0 0.977295)"/>
</clipPath>
</defs>
</svg>
