<svg width="24" height="25" viewBox="0 0 24 25" fill="none" xmlns="http://www.w3.org/2000/svg">
<path d="M22 4.06148C21 4.55776 20.02 4.75931 19 5.06417C17.879 3.78296 16.217 3.71206 14.62 4.31772C13.023 4.92338 11.977 6.40412 12 8.10261V9.11542C8.755 9.19949 5.865 7.70255 4 5.06417C4 5.06417 -0.182 12.5924 8 16.2051C6.128 17.4681 4.261 18.3199 2 18.2308C5.308 20.0569 8.913 20.6848 12.034 19.7672C15.614 18.7139 18.556 15.9965 19.685 11.926C20.0218 10.688 20.189 9.409 20.182 8.12489C20.18 7.8727 21.692 5.31737 22 4.06047V4.06148Z" fill="#01031C" stroke="#01031C" stroke-linecap="round" stroke-linejoin="round"/>
</svg>
